#define back1_width 40
#define back1_height 40

static char back1_bits[] = {
 0x00, 0x00, 0x00, 0x00, 0x00, 0x3e, 0xa8, 0xe2, 0x9c, 0x7f, 0x22, 0x50,
 0xa5, 0x94, 0x40, 0xe2, 0xa9, 0xa2, 0x94, 0x40, 0x02, 0x51, 0xa5, 0x94,
 0x7c, 0x02, 0xa9, 0xa2, 0x97, 0x04, 0xe2, 0x51, 0x25, 0x90, 0x04, 0x22,
 0xa8, 0x22, 0x90, 0x64, 0x3e, 0x50, 0xe5, 0x9f, 0x67, 0x00, 0x00, 0x00,
 0x00, 0x00, 0x00, 0x00, 0x00, 0x00, 0x00, 0xe0, 0xf9, 0xe7, 0x1f, 0x0c,
 0x20, 0x09, 0x24, 0x10, 0x12, 0x3e, 0x09, 0x24, 0x10, 0x21, 0x02, 0x09,
 0x24, 0x90, 0x40, 0x02, 0x89, 0x27, 0x90, 0x40, 0xe2, 0x89, 0x24, 0x10,
 0x21, 0x22, 0x88, 0x24, 0x10, 0x12, 0x3e, 0xf8, 0x27, 0x10, 0x0c, 0x00,
 0x00, 0x20, 0x10, 0x00, 0x00, 0x00, 0x20, 0x10, 0x00, 0x54, 0xf9, 0x3f,
 0x90, 0x7f, 0xaa, 0x08, 0x00, 0x90, 0x40, 0x54, 0x09, 0x00, 0x90, 0x5e,
 0xaa, 0x08, 0x00, 0x90, 0x52, 0x54, 0xc9, 0x07, 0x92, 0x52, 0xaa, 0x48,
 0x04, 0x92, 0x5e, 0x54, 0x49, 0x04, 0x92, 0x40, 0xaa, 0x78, 0xfc, 0x9f,
 0x7f, 0x00, 0x00, 0x00, 0x00, 0x00, 0x00, 0x00, 0x00, 0x00, 0x00, 0x78,
 0xe0, 0x01, 0x9e, 0x07, 0x00, 0x20, 0x01, 0x92, 0x04, 0x4a, 0x21, 0x01,
 0x92, 0x7c, 0x32, 0x39, 0xe7, 0x93, 0x40, 0x32, 0x09, 0x24, 0x90, 0x40,
 0x4a, 0x09, 0x24, 0x90, 0x4f, 0x00, 0x08, 0x24, 0x10, 0x48, 0x78, 0xf8,
 0xe7, 0x1f, 0x78, 0x00, 0x00, 0x00, 0x00, 0x00 };
