#define jewellogo2_width 360
#define jewellogo2_height 54

static char jewellogo2_bits[] = {
 0x00, 0x00, 0x00, 0x00, 0x00, 0x00, 0x00, 0x00, 0x00, 0x00, 0x00, 0x00,
 0x00, 0x00, 0x00, 0x00, 0x00, 0x00, 0x00, 0x00, 0x00, 0x00, 0x00, 0x00,
 0x00, 0x00, 0x00, 0x00, 0x00, 0x00, 0x00, 0x00, 0x00, 0x00, 0x00, 0x00,
 0x00, 0x00, 0x00, 0x00, 0x00, 0x00, 0x00, 0x00, 0x00, 0x00, 0xfc, 0xff,
 0xff, 0xff, 0x07, 0x00, 0x00, 0x00, 0x00, 0x00, 0x00, 0x00, 0x00, 0x00,
 0x00, 0x00, 0x00, 0x00, 0x00, 0x00, 0x00, 0x00, 0x00, 0x00, 0x00, 0x00,
 0x00, 0x00, 0xf0, 0xff, 0xff, 0x00, 0x00, 0x00, 0x00, 0x00, 0x00, 0x00,
 0x00, 0x00, 0x00, 0x00, 0x00, 0x00, 0x00, 0x02, 0x00, 0x00, 0x00, 0x78,
 0x00, 0x00, 0x00, 0x00, 0x00, 0x00, 0x00, 0x00, 0x00, 0x00, 0x00, 0x00,
 0x00, 0x00, 0x00, 0x00, 0x00, 0x00, 0x00, 0x00, 0x00, 0x00, 0x00, 0x08,
 0x00, 0x00, 0x1f, 0x00, 0x00, 0x00, 0x00, 0x00, 0x00, 0x00, 0x00, 0x00,
 0x00, 0x00, 0x00, 0x00, 0x01, 0x00, 0x00, 0x00, 0x80, 0x00, 0x00, 0x00,
 0x00, 0x00, 0x00, 0x00, 0x00, 0x00, 0x00, 0x00, 0x00, 0x00, 0x00, 0x00,
 0x00, 0x80, 0xff, 0x00, 0x00, 0x00, 0x00, 0x00, 0x06, 0x00, 0x00, 0x20,
 0x00, 0x00, 0x00, 0x00, 0x00, 0x00, 0x00, 0x00, 0x00, 0x00, 0x00, 0x00,
 0x80, 0x00, 0x00, 0x00, 0x00, 0x00, 0x01, 0x00, 0x00, 0x00, 0x00, 0x00,
 0x00, 0x00, 0x00, 0x00, 0x00, 0x00, 0x00, 0x00, 0x00, 0x00, 0x40, 0x00,
 0x03, 0x00, 0x00, 0x00, 0xc0, 0x01, 0x00, 0x00, 0xc0, 0x01, 0x00, 0x00,
 0x00, 0x00, 0x00, 0x00, 0x00, 0x00, 0x00, 0x00, 0x00, 0x80, 0x00, 0x00,
 0x00, 0x00, 0x00, 0x02, 0x00, 0x00, 0x00, 0x00, 0x00, 0x00, 0x00, 0x00,
 0x00, 0x00, 0x00, 0x00, 0x00, 0x00, 0x00, 0x30, 0x00, 0x0c, 0x00, 0x00,
 0x00, 0x20, 0x00, 0x00, 0x00, 0x00, 0x06, 0x00, 0x00, 0x00, 0x00, 0x00,
 0x00, 0x00, 0x00, 0x00, 0x00, 0x00, 0x80, 0x00, 0x00, 0x00, 0x00, 0x00,
 0x02, 0x00, 0x00, 0x00, 0x00, 0x00, 0x00, 0x00, 0x00, 0x00, 0x00, 0x00,
 0x00, 0x00, 0x00, 0x00, 0x08, 0x00, 0x10, 0x00, 0x00, 0x00, 0x10, 0x00,
 0x00, 0x00, 0x00, 0x08, 0x00, 0x00, 0x00, 0x00, 0x00, 0x00, 0x00, 0x00,
 0x00, 0x3e, 0x00, 0x80, 0x00, 0x00, 0x00, 0x00, 0x00, 0x02, 0x00, 0x00,
 0x00, 0x00, 0x00, 0x00, 0x00, 0x00, 0x00, 0x00, 0x00, 0x00, 0x00, 0x00,
 0x00, 0x04, 0x00, 0x20, 0x00, 0x00, 0x00, 0x10, 0x00, 0x00, 0x00, 0x00,
 0x10, 0x00, 0x00, 0x00, 0x00, 0x00, 0x00, 0x00, 0x00, 0x80, 0xc1, 0x01,
 0x00, 0xe1, 0x0f, 0x00, 0xc0, 0x03, 0x01, 0x00, 0x00, 0x00, 0x00, 0x00,
 0x00, 0x00, 0x00, 0x00, 0x00, 0x00, 0x00, 0x00, 0x00, 0x00, 0x04, 0x00,
 0x40, 0x00, 0x00, 0x00, 0x20, 0x00, 0xe0, 0x01, 0x00, 0x10, 0x00, 0x00,
 0x00, 0x00, 0x00, 0x00, 0x00, 0x00, 0x40, 0x00, 0x02, 0x00, 0x1e, 0xf0,
 0x00, 0x30, 0xc4, 0x00, 0x00, 0x00, 0x00, 0x00, 0x00, 0x00, 0x00, 0x00,
 0x00, 0x00, 0x00, 0x00, 0x00, 0x00, 0x00, 0x02, 0x00, 0x40, 0x00, 0x00,
 0x00, 0x40, 0x00, 0x1f, 0xfe, 0x00, 0x20, 0x00, 0x00, 0x00, 0x00, 0x00,
 0x00, 0x00, 0x00, 0x40, 0x00, 0x02, 0x00, 0x00, 0x00, 0x01, 0x08, 0x38,
 0x00, 0x00, 0x00, 0x00, 0x00, 0x00, 0x00, 0x00, 0x00, 0x00, 0x00, 0x00,
 0x00, 0x00, 0x00, 0x00, 0x01, 0xf8, 0x40, 0x00, 0x00, 0x00, 0x80, 0xe3,
 0x00, 0x00, 0x03, 0x40, 0x00, 0x00, 0x00, 0x00, 0x00, 0x00, 0x00, 0x00,
 0x20, 0x00, 0x04, 0x00, 0x00, 0x00, 0x06, 0x08, 0x00, 0x00, 0x00, 0x00,
 0x00, 0x00, 0x00, 0x00, 0x00, 0x00, 0x00, 0x00, 0x00, 0x00, 0x00, 0x00,
 0x80, 0x00, 0x84, 0x40, 0x00, 0x00, 0x00, 0x00, 0x1c, 0x00, 0x00, 0x04,
 0x80, 0x00, 0x00, 0x00, 0x00, 0x00, 0x00, 0x1c, 0x00, 0x20, 0x00, 0x04,
 0x00, 0x00, 0x00, 0x04, 0x08, 0x00, 0x00, 0x00, 0xfe, 0x01, 0x00, 0x00,
 0x00, 0x00, 0x00, 0xe0, 0x07, 0x00, 0xc0, 0x3f, 0x00, 0x40, 0x00, 0x82,
 0x40, 0x00, 0x00, 0x00, 0x00, 0x00, 0x00, 0x00, 0x38, 0x80, 0x00, 0x00,
 0x00, 0x00, 0x00, 0x00, 0xe3, 0x00, 0x20, 0x00, 0x04, 0x00, 0x00, 0x00,
 0x08, 0x10, 0x00, 0x00, 0x80, 0x01, 0x0e, 0x00, 0x00, 0x00, 0x00, 0x00,
 0x10, 0x08, 0x00, 0x30, 0xc0, 0x01, 0x40, 0x00, 0x81, 0x40, 0x00, 0x00,
 0x00, 0xf0, 0x0f, 0x00, 0x00, 0x40, 0x80, 0x00, 0x00, 0x00, 0x00, 0x00,
 0xe0, 0x00, 0x01, 0x20, 0x00, 0x04, 0x00, 0x00, 0x00, 0x10, 0x10, 0x00,
 0x00, 0x60, 0x00, 0x30, 0x00, 0x00, 0x00, 0x00, 0x00, 0x10, 0x10, 0x00,
 0x0c, 0x00, 0x06, 0x40, 0x80, 0x80, 0x40, 0x00, 0x00, 0x00, 0x08, 0x10,
 0x00, 0x00, 0x40, 0x80, 0x00, 0x00, 0x00, 0x00, 0x00, 0x10, 0x00, 0x06,
 0x40, 0x00, 0x04, 0x00, 0x00, 0x00, 0x10, 0x30, 0x00, 0x00, 0x10, 0x00,
 0x40, 0x00, 0x00, 0x00, 0x00, 0x00, 0x10, 0x10, 0x00, 0x02, 0x00, 0x08,
 0x40, 0x40, 0x80, 0x40, 0x00, 0x00, 0x00, 0x04, 0x10, 0x00, 0x00, 0x40,
 0x80, 0x00, 0x00, 0x00, 0x00, 0x00, 0x10, 0x00, 0x08, 0x40, 0x00, 0x04,
 0x00, 0x00, 0x00, 0x10, 0x40, 0x00, 0x00, 0x0c, 0x00, 0x80, 0x00, 0x00,
 0x00, 0x00, 0x00, 0x18, 0x10, 0x80, 0x01, 0x00, 0x10, 0x20, 0x40, 0x40,
 0x40, 0x00, 0x00, 0x00, 0x04, 0x10, 0x00, 0x00, 0x40, 0x40, 0x00, 0x00,
 0x00, 0x00, 0x00, 0x0c, 0x00, 0x10, 0x80, 0x07, 0x04, 0x00, 0x00, 0x00,
 0x20, 0x40, 0x00, 0x00, 0x02, 0x00, 0x80, 0x00, 0x00, 0x00, 0x00, 0x00,
 0x04, 0x10, 0x40, 0x00, 0x00, 0x10, 0x20, 0x20, 0x20, 0x40, 0x00, 0x00,
 0x00, 0x04, 0x20, 0x00, 0x00, 0x40, 0x40, 0x00, 0x00, 0x00, 0x00, 0x00,
 0x02, 0x00, 0x20, 0x00, 0x06, 0x06, 0x00, 0x00, 0x00, 0x40, 0x80, 0x00,
 0x00, 0x01, 0x00, 0x00, 0x01, 0x00, 0x00, 0x00, 0x00, 0x04, 0x10, 0x20,
 0x00, 0x00, 0x20, 0x20, 0x20, 0x20, 0x40, 0x00, 0x00, 0x00, 0x04, 0x20,
 0x00, 0x00, 0x40, 0x40, 0x00, 0x00, 0x78, 0x00, 0x00, 0x01, 0x00, 0x20,
 0x00, 0x01, 0x02, 0x00, 0x00, 0x00, 0x40, 0x80, 0x00, 0x80, 0x00, 0x00,
 0x00, 0x02, 0x00, 0x00, 0x00, 0x00, 0x04, 0x10, 0x10, 0x00, 0x00, 0x40,
 0x20, 0x20, 0x20, 0x40, 0x00, 0x00, 0x00, 0x04, 0x20, 0x00, 0x00, 0x40,
 0x40, 0x00, 0x00, 0x84, 0x01, 0x00, 0x01, 0x00, 0x40, 0x00, 0x01, 0x02,
 0x00, 0x00, 0x00, 0x40, 0x80, 0x00, 0x80, 0x00, 0x00, 0x00, 0x04, 0x00,
 0x00, 0x00, 0x00, 0x04, 0x0c, 0x10, 0x00, 0x00, 0x80, 0x20, 0x20, 0x10,
 0x20, 0x00, 0x00, 0x00, 0x08, 0x20, 0x00, 0x00, 0x40, 0x40, 0x00, 0xff,
 0x03, 0x02, 0xc0, 0x00, 0x00, 0x40, 0x00, 0x01, 0x02, 0x00, 0x00, 0x00,
 0x80, 0x00, 0x01, 0x40, 0x00, 0x70, 0x00, 0x08, 0x00, 0x00, 0x00, 0x00,
 0x04, 0x10, 0x08, 0x00, 0x0e, 0x00, 0x21, 0x20, 0x08, 0x20, 0x00, 0x00,
 0x00, 0x10, 0x20, 0x00, 0x00, 0x60, 0x20, 0x80, 0x00, 0x00, 0x04, 0x20,
 0x00, 0x00, 0x40, 0x00, 0x01, 0x02, 0x00, 0x00, 0x00, 0x00, 0x01, 0x01,
 0x20, 0x00, 0x8f, 0x07, 0x08, 0x00, 0x00, 0x00, 0x00, 0x04, 0x20, 0x04,
 0xe0, 0xf1, 0x00, 0x31, 0x10, 0x06, 0x10, 0x00, 0x00, 0x00, 0x10, 0x20,
 0x00, 0xf8, 0x11, 0x20, 0x40, 0x00, 0x00, 0x18, 0x20, 0x00, 0x0e, 0x80,
 0xc0, 0x00, 0x01, 0x00, 0x00, 0x00, 0x00, 0x01, 0x02, 0x20, 0x80, 0x00,
 0x04, 0x08, 0x3f, 0x00, 0x00, 0x00, 0x08, 0x40, 0x04, 0x10, 0x80, 0x00,
 0x11, 0x10, 0x01, 0x10, 0x00, 0x00, 0x00, 0x10, 0x60, 0x00, 0x04, 0x1e,
 0x20, 0x20, 0x00, 0x00, 0x20, 0x10, 0x80, 0x09, 0x80, 0x20, 0x00, 0x01,
 0x00, 0x00, 0x00, 0x00, 0x02, 0x02, 0x30, 0x60, 0x00, 0x04, 0x88, 0x40,
 0x00, 0x00, 0x00, 0x30, 0x40, 0x04, 0x0c, 0x80, 0x00, 0x11, 0x10, 0x01,
 0x10, 0x00, 0x00, 0x00, 0x20, 0x40, 0x00, 0x02, 0x00, 0x20, 0x30, 0x00,
 0x00, 0x40, 0x08, 0x40, 0x70, 0x00, 0x31, 0x80, 0x00, 0x00, 0x00, 0x00,
 0x00, 0x02, 0x02, 0x10, 0x20, 0x00, 0x04, 0x88, 0x40, 0x00, 0x00, 0x00,
 0x40, 0x40, 0x02, 0x04, 0x80, 0x00, 0x11, 0x90, 0x00, 0x08, 0x00, 0x00,
 0x00, 0x20, 0x40, 0x00, 0x02, 0x00, 0x18, 0x08, 0x00, 0x00, 0x80, 0x08,
 0x20, 0x40, 0x00, 0x09, 0x40, 0x00, 0x00, 0x3f, 0x00, 0x00, 0x02, 0x04,
 0x10, 0x10, 0x00, 0x04, 0x88, 0x80, 0x01, 0x00, 0x00, 0x40, 0xc0, 0x02,
 0x02, 0x80, 0x00, 0x11, 0x88, 0x00, 0x04, 0x00, 0x00, 0x00, 0x20, 0x40,
 0x00, 0x02, 0x00, 0x08, 0x08, 0x00, 0x00, 0x00, 0x09, 0x18, 0x80, 0x00,
 0x09, 0x20, 0x00, 0x80, 0x40, 0x00, 0x00, 0x02, 0x04, 0x10, 0x10, 0x00,
 0x02, 0x84, 0x00, 0x02, 0xf8, 0x00, 0x40, 0x80, 0x02, 0x02, 0x40, 0x80,
 0x10, 0x48, 0x00, 0x04, 0x00, 0x00, 0x00, 0x20, 0x40, 0x00, 0x02, 0x00,
 0x08, 0x04, 0xe0, 0x03, 0x00, 0x0a, 0x08, 0x00, 0x01, 0x07, 0x10, 0x00,
 0x40, 0x80, 0x00, 0x00, 0x02, 0x04, 0x10, 0x10, 0x00, 0x01, 0x84, 0x00,
 0x02, 0x04, 0x01, 0x40, 0x80, 0x02, 0x02, 0x20, 0x80, 0x10, 0x48, 0x00,
 0x02, 0x00, 0x00, 0x00, 0x10, 0x40, 0x00, 0x04, 0x00, 0x08, 0x02, 0x18,
 0x1c, 0x00, 0x12, 0x04, 0x00, 0x02, 0x00, 0x08, 0x00, 0x20, 0x80, 0x00,
 0x00, 0x02, 0x04, 0x10, 0x10, 0xc0, 0x00, 0x82, 0x00, 0x02, 0x02, 0x02,
 0x80, 0x80, 0x02, 0x02, 0x18, 0x40, 0x10, 0x48, 0x00, 0x01, 0x00, 0x00,
 0x00, 0x10, 0x40, 0x00, 0x04, 0x00, 0x08, 0x02, 0x04, 0xe0, 0x01, 0xe2,
 0x03, 0x00, 0x02, 0x00, 0x04, 0x00, 0x10, 0x80, 0x00, 0x00, 0x01, 0x04,
 0x10, 0x08, 0x20, 0x00, 0x01, 0x03, 0x02, 0x02, 0x02, 0x80, 0x80, 0x02,
 0x01, 0x04, 0x20, 0x10, 0x48, 0x80, 0x00, 0x00, 0x00, 0x00, 0x10, 0x40,
 0x00, 0xf8, 0x01, 0x10, 0x02, 0x04, 0x00, 0x06, 0x04, 0x00, 0x00, 0x02,
 0x00, 0x02, 0x00, 0x10, 0x40, 0x00, 0x00, 0x01, 0x02, 0x10, 0x88, 0x3b,
 0x00, 0x01, 0x02, 0x02, 0x02, 0x02, 0x80, 0x80, 0x02, 0x71, 0x07, 0x20,
 0x10, 0x48, 0x40, 0x00, 0x00, 0x00, 0x00, 0x10, 0x20, 0x00, 0x00, 0x06,
 0x20, 0x02, 0x02, 0x00, 0x04, 0x04, 0x00, 0x00, 0x02, 0x00, 0x01, 0x00,
 0x08, 0x20, 0x00, 0x00, 0x01, 0x02, 0x10, 0x44, 0x04, 0xe0, 0x00, 0x02,
 0x02, 0x02, 0x04, 0x80, 0x80, 0x82, 0x88, 0x00, 0x1c, 0x10, 0x50, 0x20,
 0x00, 0x00, 0x00, 0x00, 0x08, 0x10, 0x00, 0x00, 0x04, 0x20, 0x03, 0x01,
 0x00, 0x04, 0x04, 0x00, 0x00, 0x02, 0x80, 0x00, 0x00, 0x04, 0x10, 0x00,
 0x80, 0x00, 0x02, 0x10, 0x24, 0x00, 0x10, 0x00, 0x02, 0x02, 0x02, 0x08,
 0x80, 0x80, 0x82, 0x04, 0x00, 0x02, 0x30, 0x90, 0x1f, 0x00, 0x00, 0x00,
 0x00, 0x04, 0x10, 0x00, 0x00, 0x08, 0x20, 0x81, 0x00, 0x00, 0x08, 0x04,
 0x00, 0x00, 0x02, 0x40, 0x00, 0x00, 0x04, 0x08, 0x00, 0x40, 0x00, 0x02,
 0x10, 0x28, 0x00, 0x10, 0xf0, 0x02, 0x02, 0x02, 0x08, 0x80, 0x40, 0x02,
 0x05, 0x00, 0x02, 0x3e, 0x10, 0x00, 0x00, 0x00, 0x00, 0x00, 0x04, 0x10,
 0x00, 0x00, 0x10, 0x20, 0x81, 0x00, 0x00, 0x08, 0x04, 0x00, 0x00, 0x01,
 0x30, 0x00, 0x00, 0x04, 0x04, 0x00, 0x40, 0x00, 0x02, 0x10, 0x28, 0x00,
 0x0e, 0x08, 0x05, 0x02, 0x02, 0x08, 0x80, 0x40, 0x02, 0x05, 0xc0, 0x01,
 0x21, 0x10, 0x00, 0x00, 0x00, 0x00, 0x00, 0x06, 0x10, 0x00, 0x00, 0x10,
 0x20, 0x81, 0x00, 0x00, 0x08, 0x04, 0x00, 0x80, 0x00, 0x08, 0x00, 0x00,
 0x04, 0x02, 0x00, 0x20, 0x00, 0x01, 0x10, 0x28, 0x00, 0x01, 0x04, 0x05,
 0x02, 0x02, 0x10, 0x40, 0x40, 0x02, 0x05, 0x20, 0x80, 0x20, 0x10, 0x00,
 0x00, 0x00, 0x00, 0x00, 0x02, 0x08, 0x00, 0x00, 0x20, 0x40, 0x81, 0x00,
 0x00, 0x08, 0x04, 0x00, 0x40, 0x00, 0x08, 0x00, 0x00, 0x04, 0x02, 0x00,
 0x20, 0x00, 0x01, 0x10, 0x48, 0x80, 0x00, 0x02, 0x05, 0x02, 0x04, 0x10,
 0x40, 0x40, 0x02, 0x09, 0x10, 0x40, 0x20, 0x10, 0x00, 0x1c, 0x00, 0x00,
 0x00, 0x02, 0x04, 0x00, 0x00, 0x20, 0x40, 0x81, 0x00, 0x00, 0x08, 0x04,
 0x00, 0x30, 0x00, 0x04, 0x00, 0x00, 0x04, 0x02, 0x00, 0x10, 0x80, 0x00,
 0x10, 0x48, 0x40, 0x00, 0x02, 0x05, 0x02, 0x08, 0x20, 0x40, 0x20, 0x02,
 0x09, 0x08, 0x40, 0x20, 0x10, 0x00, 0x23, 0x00, 0x00, 0x00, 0x02, 0x04,
 0x00, 0x00, 0x40, 0x80, 0x01, 0x01, 0x00, 0x08, 0x04, 0x00, 0x0c, 0x00,
 0x04, 0xc0, 0x03, 0x04, 0x02, 0x00, 0x08, 0x80, 0x00, 0x10, 0x88, 0x3f,
 0x00, 0x01, 0x05, 0x02, 0x10, 0x40, 0x20, 0x20, 0x02, 0xf1, 0x07, 0x20,
 0x20, 0x10, 0x80, 0x40, 0x00, 0x00, 0x00, 0x01, 0x04, 0x00, 0x00, 0x40,
 0x80, 0x03, 0x01, 0x00, 0x08, 0x04, 0x00, 0x02, 0x00, 0x04, 0x30, 0x0c,
 0x04, 0x02, 0x00, 0x08, 0x40, 0x00, 0x10, 0x08, 0x00, 0xc0, 0x00, 0x05,
 0x04, 0x10, 0x40, 0x10, 0x10, 0x02, 0x01, 0x00, 0x18, 0x20, 0x20, 0x80,
 0x40, 0x00, 0x00, 0x80, 0x00, 0xc4, 0x1f, 0x00, 0x40, 0x80, 0x02, 0x01,
 0x00, 0x08, 0x04, 0x00, 0x03, 0x00, 0x04, 0x08, 0x10, 0x04, 0x02, 0x00,
 0x04, 0x20, 0x00, 0x10, 0x10, 0x00, 0x20, 0x80, 0x04, 0x04, 0x10, 0x40,
 0x08, 0x10, 0x02, 0x02, 0x00, 0x04, 0x30, 0x20, 0x40, 0x40, 0x00, 0x00,
 0xc0, 0x00, 0x22, 0xe0, 0x00, 0x40, 0x80, 0x02, 0x01, 0x00, 0x08, 0x04,
 0x80, 0x00, 0x03, 0x04, 0x04, 0x20, 0x04, 0x04, 0x00, 0x03, 0x20, 0x00,
 0x10, 0x20, 0x00, 0x20, 0x80, 0x04, 0x04, 0x10, 0x40, 0x08, 0x10, 0x02,
 0x04, 0x00, 0x04, 0x50, 0x20, 0x60, 0x40, 0x00, 0x00, 0x40, 0x00, 0x12,
 0x00, 0x01, 0x20, 0x40, 0x02, 0x02, 0x00, 0x06, 0x04, 0x60, 0xc0, 0x04,
 0x08, 0x02, 0x20, 0x04, 0x08, 0x80, 0x00, 0x10, 0x00, 0x20, 0x20, 0x00,
 0x10, 0x80, 0x04, 0x08, 0x10, 0x80, 0x04, 0x08, 0x04, 0x04, 0x00, 0x02,
 0x50, 0x60, 0x10, 0x40, 0x00, 0x00, 0x40, 0x00, 0x0a, 0x00, 0x0f, 0x10,
 0x40, 0x04, 0x00, 0x00, 0x01, 0x04, 0x10, 0x20, 0x04, 0x10, 0x01, 0x20,
 0x08, 0x70, 0x40, 0x00, 0x08, 0x00, 0x40, 0x40, 0x00, 0x0e, 0x40, 0x04,
 0x18, 0x10, 0x80, 0x03, 0x04, 0x08, 0x08, 0xc0, 0x01, 0x48, 0x80, 0x0f,
 0x40, 0x00, 0x00, 0x40, 0x00, 0x0a, 0x00, 0xf0, 0x0f, 0x20, 0x04, 0x04,
 0xf8, 0x00, 0x02, 0x0c, 0x1c, 0x04, 0xe0, 0x01, 0x20, 0x08, 0x80, 0x3f,
 0x00, 0x04, 0x00, 0x40, 0x80, 0xff, 0x01, 0x20, 0x08, 0x20, 0x08, 0x82,
 0x00, 0x04, 0x08, 0xf0, 0x3f, 0x00, 0x44, 0x00, 0x00, 0x40, 0x00, 0x00,
 0x40, 0x00, 0x09, 0x00, 0x00, 0x00, 0x20, 0x04, 0x18, 0x04, 0x00, 0x02,
 0x82, 0x03, 0x04, 0x00, 0x00, 0x10, 0x10, 0x00, 0x00, 0x00, 0x02, 0x00,
 0x80, 0x00, 0x00, 0x00, 0x10, 0x10, 0xc0, 0x07, 0x02, 0x00, 0x02, 0x10,
 0x00, 0x00, 0x00, 0x82, 0x00, 0x00, 0x30, 0x00, 0x00, 0x40, 0x80, 0x10,
 0x00, 0x00, 0x00, 0x10, 0x08, 0xe0, 0x03, 0x00, 0x01, 0x6c, 0x00, 0x04,
 0x00, 0x00, 0x08, 0x20, 0x00, 0x00, 0x00, 0x01, 0x00, 0x00, 0x01, 0x00,
 0x00, 0x10, 0x10, 0x00, 0x00, 0x03, 0x00, 0x01, 0x20, 0x00, 0x00, 0x00,
 0x82, 0x00, 0x00, 0x08, 0x00, 0x00, 0x40, 0x80, 0x60, 0x00, 0x00, 0x00,
 0x08, 0x08, 0x00, 0x00, 0x80, 0x00, 0x10, 0x00, 0x04, 0x00, 0x00, 0x06,
 0x20, 0x00, 0x00, 0x80, 0x00, 0x00, 0x00, 0x01, 0x00, 0x00, 0x08, 0x10,
 0x00, 0x00, 0x03, 0x80, 0x00, 0x20, 0x00, 0x00, 0x00, 0x01, 0x01, 0x00,
 0x08, 0x00, 0x00, 0x80, 0x60, 0x80, 0x00, 0x00, 0x00, 0x04, 0x10, 0x00,
 0x00, 0x40, 0x00, 0x00, 0x00, 0x18, 0x00, 0x00, 0x01, 0x40, 0x00, 0x00,
 0x60, 0x00, 0x00, 0x00, 0x02, 0x00, 0x00, 0x06, 0x20, 0x00, 0x80, 0x04,
 0x60, 0x00, 0x40, 0x00, 0x00, 0xc0, 0x00, 0x02, 0x00, 0x06, 0x00, 0x00,
 0x80, 0x20, 0x00, 0x07, 0x00, 0x00, 0x03, 0x20, 0x00, 0x00, 0x38, 0x00,
 0x00, 0x00, 0x20, 0x00, 0xc0, 0x00, 0x80, 0x01, 0x00, 0x18, 0x00, 0x00,
 0x00, 0x04, 0x00, 0x00, 0x01, 0x40, 0x00, 0x40, 0x08, 0x18, 0x00, 0x80,
 0x00, 0x00, 0x20, 0x00, 0x04, 0xc0, 0x01, 0x00, 0x00, 0x00, 0x11, 0x00,
 0x08, 0x00, 0xc0, 0x00, 0xc0, 0x00, 0x00, 0x04, 0x00, 0x00, 0x00, 0xc0,
 0x01, 0x38, 0x00, 0x00, 0x06, 0x00, 0x06, 0x00, 0x00, 0x00, 0x18, 0x00,
 0xe0, 0x00, 0x80, 0x01, 0x30, 0xf0, 0x07, 0x00, 0x00, 0x03, 0x00, 0x1c,
 0x00, 0xf8, 0x3f, 0x00, 0x00, 0x00, 0x00, 0x0e, 0x00, 0x70, 0x00, 0x40,
 0x00, 0x00, 0x01, 0x00, 0x03, 0x00, 0x00, 0x00, 0x00, 0xfe, 0x07, 0x00,
 0x00, 0xf8, 0xff, 0x01, 0x00, 0x00, 0x00, 0xe0, 0xff, 0x1f, 0x00, 0x00,
 0xfe, 0x0f, 0x00, 0x00, 0x00, 0x00, 0xfc, 0xff, 0x03, 0x00, 0x00, 0x00,
 0x00, 0x00, 0x00, 0x00, 0x00, 0x00, 0x80, 0xff, 0x3f, 0x00, 0x00, 0xfe,
 0xff, 0x00, 0x00, 0x00, 0x00, 0x00, 0x00, 0x00, 0x00, 0x00, 0x00, 0x00,
 0x00, 0x00, 0x00, 0x00, 0x00, 0x00, 0x00, 0x00, 0x00, 0x00, 0x00, 0x00,
 0x00, 0x00, 0x00, 0x00, 0x00, 0x00, 0x00, 0x00, 0x00, 0x00, 0x00, 0x00,
 0x00, 0x00, 0x00, 0x00, 0x00, 0x00, 0x00, 0x00, 0x00, 0x00, 0x00, 0x00,
 0x00, 0x00, 0x00, 0x00, 0x00, 0x00 };
