#define smicon_width 17
#define smicon_height 17
static char smicon_bits[] = {
   0xfc, 0x7f, 0x00, 0xfe, 0xff, 0x00, 0xff, 0xbf, 0x01, 0x0f, 0x00, 0x01,
   0xd7, 0x9e, 0x01, 0xe7, 0x5d, 0x01, 0xd7, 0x9e, 0x01, 0xe7, 0x5d, 0x01,
   0xf7, 0x9e, 0x01, 0xf7, 0x5f, 0x01, 0xf7, 0x9f, 0x01, 0xf7, 0x5f, 0x01,
   0xf7, 0x8a, 0x01, 0x07, 0x40, 0x01, 0xab, 0xaa, 0x01, 0x56, 0xd5, 0x00,
   0xfc, 0x7f, 0x00};
