#define axeLogo_width 30
#define axeLogo_height 13
static unsigned char axeLogo_bits[] = {
   0x80, 0x01, 0x00, 0x00, 0x60, 0x02, 0x00, 0x00, 0x18, 0x04, 0x00, 0x00,
   0x07, 0x08, 0x00, 0x00, 0x01, 0x18, 0x00, 0x00, 0x02, 0x24, 0x00, 0x00,
   0x04, 0x44, 0x00, 0x00, 0x08, 0x82, 0x01, 0x00, 0x10, 0x02, 0x06, 0x00,
   0x20, 0x01, 0x18, 0x00, 0x40, 0x01, 0xe0, 0x00, 0x80, 0x01, 0x00, 0x07,
   0x00, 0x00, 0x00, 0x38};
