#define bwdArrow_width 11
#define bwdArrow_height 9
static unsigned char bwdArrow_bits[] = {
   0x20, 0x00, 0x70, 0x00, 0xf8, 0x00, 0xfc, 0x01, 0xfe, 0x03, 0xff, 0x07,
   0x70, 0x00, 0x70, 0x00, 0x00, 0x00};
