#define fwdArrow_width 11
#define fwdArrow_height 9
static unsigned char fwdArrow_bits[] = {
   0x00, 0x00, 0x70, 0x00, 0x70, 0x00, 0xff, 0x07, 0xfe, 0x03, 0xfc, 0x01,
   0xf8, 0x00, 0x70, 0x00, 0x20, 0x00};
