#define hzCentre_width 9
#define hzCentre_height 11
static unsigned char hzCentre_bits[] = {
   0x10, 0x00, 0x10, 0x00, 0x11, 0x01, 0x93, 0x01, 0xd7, 0x01, 0xff, 0x01,
   0xd7, 0x01, 0x93, 0x01, 0x11, 0x01, 0x10, 0x00, 0x10, 0x00};
