#define modMark_width 9
#define modMark_height 9
static unsigned char modMark_bits[] = {
   0x00, 0x00, 0x10, 0x00, 0x7c, 0x00, 0x7c, 0x00, 0xfe, 0x00, 0x7c, 0x00,
   0x7c, 0x00, 0x10, 0x00, 0x00, 0x00};
