#define tickMark_width 9
#define tickMark_height 8
static unsigned char tickMark_bits[] = {
   0x00, 0x01, 0x80, 0x01, 0xc0, 0x00, 0x60, 0x00,
   0x31, 0x00, 0x1b, 0x00, 0x0e, 0x00, 0x04, 0x00
};

