#define vtCentre_width 11
#define vtCentre_height 9
static unsigned char vtCentre_bits[] = {
   0xfc, 0x01, 0xf8, 0x00, 0x70, 0x00, 0x20, 0x00, 0xff, 0x07, 0x20, 0x00,
   0x70, 0x00, 0xf8, 0x00, 0xfc, 0x01};
