#define warn_width 99
#define warn_height 50
static unsigned char warn_bits[] = {
   0x00, 0x00, 0x00, 0x00, 0x00, 0x00, 0x02, 0x00, 0x00, 0x00, 0x00, 0x00,
   0x00, 0x00, 0x00, 0x00, 0x00, 0x00, 0x00, 0x05, 0x00, 0x00, 0x00, 0x00,
   0x00, 0x00, 0x00, 0x00, 0x00, 0x00, 0x00, 0x80, 0x0a, 0x00, 0x00, 0x00,
   0x00, 0x00, 0x00, 0x00, 0x00, 0x00, 0x00, 0x00, 0x40, 0x15, 0x00, 0x00,
   0x00, 0x00, 0x00, 0x00, 0x00, 0x00, 0x00, 0x00, 0x00, 0xa0, 0x2a, 0x00,
   0x00, 0x00, 0x00, 0x00, 0x00, 0x00, 0x00, 0x00, 0x00, 0x00, 0x50, 0x55,
   0x00, 0x00, 0x00, 0x00, 0x00, 0x00, 0x00, 0x00, 0x00, 0x00, 0x00, 0xa8,
   0xaa, 0x00, 0x00, 0x00, 0x00, 0x00, 0x00, 0x00, 0x00, 0x00, 0x00, 0x00,
   0x54, 0x55, 0x01, 0x00, 0x00, 0x00, 0x00, 0x00, 0x00, 0x00, 0x00, 0x00,
   0x00, 0xaa, 0xa8, 0x02, 0x00, 0x00, 0x00, 0x00, 0x00, 0x00, 0x00, 0x00,
   0x00, 0x00, 0x55, 0x50, 0x05, 0x00, 0x00, 0x00, 0x00, 0x00, 0x00, 0x00,
   0x00, 0x00, 0x80, 0x2a, 0xa0, 0x0a, 0x00, 0x00, 0x00, 0x00, 0x00, 0x00,
   0x00, 0x00, 0x00, 0x40, 0x15, 0x40, 0x15, 0x00, 0x00, 0x00, 0x00, 0x00,
   0x00, 0x00, 0x00, 0x00, 0xa0, 0x0a, 0x82, 0x2a, 0x00, 0x00, 0x00, 0x00,
   0x00, 0x00, 0x00, 0x00, 0x00, 0x50, 0x05, 0x05, 0x55, 0x00, 0x00, 0x00,
   0x00, 0x00, 0x00, 0x00, 0x00, 0x00, 0xa8, 0x82, 0x0a, 0xaa, 0x00, 0x00,
   0x00, 0x00, 0x00, 0x00, 0x00, 0x00, 0x00, 0x54, 0x01, 0x05, 0x54, 0x01,
   0x00, 0x00, 0x00, 0x00, 0x00, 0x00, 0x00, 0x00, 0xaa, 0x80, 0x0a, 0xa8,
   0x02, 0x00, 0x00, 0x00, 0x00, 0x00, 0x00, 0x00, 0x00, 0x55, 0x00, 0x05,
   0x50, 0x05, 0x00, 0x00, 0x00, 0x00, 0x00, 0x00, 0x00, 0x80, 0x2a, 0x80,
   0x0a, 0xa0, 0x0a, 0x00, 0x00, 0x00, 0x00, 0x00, 0x00, 0x00, 0x40, 0x15,
   0x00, 0x05, 0x40, 0x15, 0x00, 0x00, 0x00, 0x00, 0x00, 0x00, 0x00, 0xa0,
   0x0a, 0x80, 0x0a, 0x80, 0x2a, 0x00, 0x00, 0x00, 0x00, 0x00, 0x00, 0x00,
   0x50, 0x05, 0x00, 0x05, 0x00, 0x55, 0x00, 0x00, 0x00, 0x00, 0x00, 0x00,
   0x00, 0xa8, 0x02, 0x80, 0x0a, 0x00, 0xaa, 0x00, 0x00, 0x00, 0x00, 0x00,
   0x00, 0x00, 0x54, 0x01, 0x00, 0x05, 0x00, 0x54, 0x01, 0x00, 0x00, 0x00,
   0x00, 0x00, 0x00, 0xaa, 0x00, 0x80, 0x0a, 0x00, 0xa8, 0x02, 0x00, 0x00,
   0x00, 0x00, 0x00, 0x00, 0x55, 0x00, 0x00, 0x05, 0x00, 0x50, 0x05, 0x00,
   0x00, 0x00, 0x00, 0x00, 0x80, 0x2a, 0x00, 0x80, 0x0a, 0x00, 0xa0, 0x0a,
   0x00, 0x00, 0x00, 0x00, 0x00, 0x40, 0x15, 0x00, 0x00, 0x05, 0x00, 0x40,
   0x15, 0x00, 0x00, 0x00, 0x00, 0x00, 0xa0, 0x0a, 0x00, 0x00, 0x02, 0x00,
   0x80, 0x2a, 0x00, 0x00, 0x00, 0x00, 0x00, 0x50, 0x05, 0x00, 0x00, 0x05,
   0x00, 0x00, 0x55, 0x00, 0x00, 0x00, 0x00, 0x00, 0xa8, 0x02, 0x00, 0x00,
   0x02, 0x00, 0x00, 0xaa, 0x00, 0x00, 0x00, 0x00, 0x00, 0x54, 0x01, 0x00,
   0x00, 0x05, 0x00, 0x00, 0x54, 0x01, 0x00, 0x00, 0x00, 0x00, 0xaa, 0x00,
   0x00, 0x00, 0x02, 0x00, 0x00, 0xa8, 0x02, 0x00, 0x00, 0x00, 0x00, 0x55,
   0x00, 0x00, 0x00, 0x05, 0x00, 0x00, 0x50, 0x05, 0x00, 0x00, 0x00, 0x80,
   0x2a, 0x00, 0x00, 0x00, 0x02, 0x00, 0x00, 0xa0, 0x0a, 0x00, 0x00, 0x00,
   0x40, 0x15, 0x00, 0x00, 0x00, 0x05, 0x00, 0x00, 0x40, 0x15, 0x00, 0x00,
   0x00, 0xa0, 0x0a, 0x00, 0x00, 0x00, 0x02, 0x00, 0x00, 0x80, 0x2a, 0x00,
   0x00, 0x00, 0x50, 0x05, 0x00, 0x00, 0x00, 0x05, 0x00, 0x00, 0x00, 0x55,
   0x00, 0x00, 0x00, 0xa8, 0x02, 0x00, 0x00, 0x00, 0x00, 0x00, 0x00, 0x00,
   0xaa, 0x00, 0x00, 0x00, 0x54, 0x01, 0x00, 0x00, 0x00, 0x02, 0x00, 0x00,
   0x00, 0x54, 0x01, 0x00, 0x00, 0xaa, 0x00, 0x00, 0x00, 0x00, 0x05, 0x00,
   0x00, 0x00, 0xa8, 0x02, 0x00, 0x00, 0x55, 0x00, 0x00, 0x00, 0x00, 0x02,
   0x00, 0x00, 0x00, 0x50, 0x05, 0x00, 0x80, 0x2a, 0x00, 0x00, 0x00, 0x00,
   0x00, 0x00, 0x00, 0x00, 0xa0, 0x0a, 0x00, 0x40, 0x15, 0x00, 0x00, 0x00,
   0x00, 0x00, 0x00, 0x00, 0x00, 0x40, 0x15, 0x00, 0xa0, 0xaa, 0xaa, 0xaa,
   0xaa, 0xaa, 0xaa, 0xaa, 0xaa, 0xaa, 0xaa, 0x2a, 0x00, 0x50, 0x55, 0x55,
   0x55, 0x55, 0x55, 0x55, 0x55, 0x55, 0x55, 0x55, 0x55, 0x00, 0xa8, 0xaa,
   0xaa, 0xaa, 0xaa, 0xaa, 0xaa, 0xaa, 0xaa, 0xaa, 0xaa, 0xaa, 0x00, 0x54,
   0x55, 0x55, 0x55, 0x55, 0x55, 0x55, 0x55, 0x55, 0x55, 0x55, 0x55, 0x01,
   0xaa, 0xaa, 0xaa, 0xaa, 0xaa, 0xaa, 0xaa, 0xaa, 0xaa, 0xaa, 0xaa, 0xaa,
   0x02, 0x54, 0x55, 0x55, 0x55, 0x55, 0x55, 0x55, 0x55, 0x55, 0x55, 0x55,
   0x55, 0x01};
