#define none_width 24
#define none_height 24
static char none_bits[] = {
   0x00, 0x00, 0x00, 0x1a, 0x00, 0x00, 0x24, 0x00, 0x00, 0x24, 0x00, 0x00,
   0x24, 0x00, 0x00, 0x24, 0x00, 0x00, 0x00, 0x00, 0x00, 0x80, 0x07, 0x00,
   0x80, 0x04, 0x00, 0x80, 0x04, 0x00, 0x80, 0x04, 0x00, 0x80, 0x07, 0x00,
   0x00, 0x00, 0x00, 0x00, 0xd0, 0x00, 0x00, 0x20, 0x01, 0x00, 0x20, 0x01,
   0x00, 0x20, 0x01, 0x00, 0x20, 0x01, 0x00, 0x00, 0x1c, 0x00, 0x00, 0x04,
   0x00, 0x00, 0x1c, 0x00, 0x00, 0x04, 0x00, 0x00, 0x1c, 0x00, 0x00, 0x00};
