#define oval_width 48
#define oval_height 48
static char oval_bits[] = {
   0x00, 0x00, 0x00, 0x00, 0x00, 0x00, 0x00, 0x00, 0x00, 0x00, 0x00, 0x00,
   0x00, 0x00, 0x00, 0x00, 0x00, 0x00, 0x00, 0x00, 0x00, 0x00, 0x00, 0x00,
   0x00, 0x00, 0xf8, 0x3f, 0x00, 0x00, 0x00, 0x00, 0xff, 0xff, 0x01, 0x00,
   0x00, 0xc0, 0x0f, 0xe0, 0x07, 0x00, 0x00, 0xe0, 0x01, 0x00, 0x0f, 0x00,
   0x00, 0x78, 0x00, 0x00, 0x3c, 0x00, 0x00, 0x1c, 0x00, 0x00, 0x70, 0x00,
   0x00, 0x0e, 0x00, 0x00, 0xe0, 0x00, 0x00, 0x07, 0x00, 0x00, 0xc0, 0x01,
   0x00, 0x03, 0x00, 0x00, 0x80, 0x01, 0x80, 0x01, 0x00, 0x00, 0x00, 0x03,
   0xc0, 0x01, 0x00, 0x00, 0x00, 0x07, 0xc0, 0x00, 0x00, 0x00, 0x00, 0x06,
   0xe0, 0x00, 0x00, 0x00, 0x00, 0x0e, 0x60, 0x00, 0x00, 0x00, 0x00, 0x0c,
   0x60, 0x00, 0x00, 0x00, 0x00, 0x0c, 0x70, 0x00, 0x00, 0x00, 0x00, 0x1c,
   0x30, 0x00, 0x00, 0x00, 0x00, 0x18, 0x30, 0x00, 0x00, 0x00, 0x00, 0x18,
   0x30, 0x00, 0x00, 0x00, 0x00, 0x18, 0x30, 0x00, 0x00, 0x00, 0x00, 0x18,
   0x30, 0x00, 0x00, 0x00, 0x00, 0x18, 0x30, 0x00, 0x00, 0x00, 0x00, 0x18,
   0x30, 0x00, 0x00, 0x00, 0x00, 0x18, 0x30, 0x00, 0x00, 0x00, 0x00, 0x18,
   0x30, 0x00, 0x00, 0x00, 0x00, 0x18, 0x70, 0x00, 0x00, 0x00, 0x00, 0x1c,
   0x60, 0x00, 0x00, 0x00, 0x00, 0x0c, 0x60, 0x00, 0x00, 0x00, 0x00, 0x0c,
   0xe0, 0x00, 0x00, 0x00, 0x00, 0x0e, 0xc0, 0x00, 0x00, 0x00, 0x00, 0x06,
   0xc0, 0x01, 0x00, 0x00, 0x00, 0x07, 0x80, 0x01, 0x00, 0x00, 0x00, 0x03,
   0x00, 0x03, 0x00, 0x00, 0x80, 0x01, 0x00, 0x07, 0x00, 0x00, 0xc0, 0x01,
   0x00, 0x0e, 0x00, 0x00, 0xe0, 0x00, 0x00, 0x1c, 0x00, 0x00, 0x70, 0x00,
   0x00, 0x78, 0x00, 0x00, 0x3c, 0x00, 0x00, 0xe0, 0x01, 0x00, 0x0f, 0x00,
   0x00, 0xc0, 0x0f, 0xe0, 0x07, 0x00, 0x00, 0x00, 0xff, 0xff, 0x01, 0x00,
   0x00, 0x00, 0xf8, 0x3f, 0x00, 0x00, 0x00, 0x00, 0x00, 0x00, 0x00, 0x00,
   0x00, 0x00, 0x00, 0x00, 0x00, 0x00, 0x00, 0x00, 0x00, 0x00, 0x00, 0x00};
