#define polygon_width 48
#define polygon_height 48
static char polygon_bits[] = {
   0x00, 0x00, 0x00, 0x00, 0x00, 0x00, 0x00, 0x00, 0x00, 0x00, 0x00, 0x00,
   0x00, 0x00, 0x00, 0x00, 0x00, 0x00, 0x00, 0x00, 0x00, 0x00, 0x00, 0x00,
   0x00, 0x00, 0x00, 0x00, 0x00, 0x00, 0x00, 0x00, 0x00, 0x00, 0x00, 0x00,
   0x00, 0x00, 0x00, 0x00, 0x00, 0x00, 0x00, 0x00, 0x00, 0x00, 0x00, 0x00,
   0x00, 0x00, 0x00, 0x00, 0x00, 0x00, 0x00, 0x00, 0x00, 0x00, 0x00, 0x00,
   0x00, 0x00, 0x00, 0x00, 0x00, 0x00, 0x00, 0x0e, 0x00, 0x00, 0x00, 0x00,
   0x00, 0x3e, 0x00, 0x00, 0x00, 0x00, 0x00, 0x66, 0x00, 0x00, 0x00, 0x00,
   0x00, 0xc7, 0x01, 0x00, 0x00, 0x00, 0x00, 0x03, 0x03, 0x00, 0x00, 0x00,
   0x00, 0x03, 0x0e, 0x00, 0x00, 0x00, 0x00, 0x03, 0x1c, 0x00, 0x00, 0x03,
   0x00, 0x03, 0x30, 0x00, 0x80, 0x03, 0x80, 0x03, 0xe0, 0x00, 0xc0, 0x03,
   0x80, 0x01, 0x80, 0x01, 0x60, 0x03, 0x80, 0x01, 0x00, 0x07, 0x38, 0x03,
   0x80, 0x01, 0x00, 0x0c, 0x1c, 0x03, 0x80, 0x01, 0x00, 0x38, 0x06, 0x03,
   0xc0, 0x01, 0x00, 0xf0, 0x03, 0x03, 0xc0, 0x00, 0x00, 0xc0, 0x01, 0x03,
   0xc0, 0x00, 0x00, 0x00, 0x00, 0x03, 0xc0, 0x00, 0x00, 0x00, 0x00, 0x03,
   0xe0, 0x00, 0x00, 0x00, 0x00, 0x03, 0xe0, 0x00, 0x00, 0x00, 0x00, 0x03,
   0x60, 0x00, 0x00, 0x00, 0x00, 0x03, 0x60, 0x00, 0x00, 0x00, 0x00, 0x03,
   0x60, 0x00, 0x00, 0x00, 0x00, 0x03, 0x70, 0x00, 0x00, 0x00, 0x00, 0x03,
   0x70, 0x00, 0x00, 0x00, 0xc0, 0x03, 0x30, 0x00, 0x00, 0x00, 0x7c, 0x00,
   0x30, 0x00, 0x00, 0xe0, 0x07, 0x00, 0x30, 0x00, 0x00, 0x7e, 0x00, 0x00,
   0x38, 0x00, 0xf0, 0x07, 0x00, 0x00, 0x38, 0x00, 0x3f, 0x00, 0x00, 0x00,
   0x18, 0xf8, 0x03, 0x00, 0x00, 0x00, 0x98, 0x3f, 0x00, 0x00, 0x00, 0x00,
   0xf8, 0x03, 0x00, 0x00, 0x00, 0x00, 0x38, 0x00, 0x00, 0x00, 0x00, 0x00,
   0x00, 0x00, 0x00, 0x00, 0x00, 0x00, 0x00, 0x00, 0x00, 0x00, 0x00, 0x00,
   0x00, 0x00, 0x00, 0x00, 0x00, 0x00, 0x00, 0x00, 0x00, 0x00, 0x00, 0x00};
