/* XPM */
static char *background6_xpm[] = {
/* width height ncolors chars_per_pixel */
"128 128 4 1",
/* colors */
"` c #000000",
"a c #C0C0C0",
"b c #808080",
"c c #FFFFFF",
/* pixels */
"baaaabbaaaaaaabcaababbbbbaaacbcbabaaaaaababbaabccbbbcbbaabaabcaaacbababcbbbbcbbcaaccacacbaaacbaabbbbababbbbbcc`bbbabbcabbbbbbaab",
"bbbaaacaaaabbbbcbcbabcbbabbaaacacccabaab`aaaabcabb`aabbbbbaabbbabb`aaaacbbbbbacccacb`bbbbbabcbbbbbacbaabaacaabaacabbbcbaabbabbba",
"aaababbbbbbbaaab`cbbabaacbabaabbbbbbaabbbaaacaaa`aababababbababb`caaacabbabaacbbbbbbbaabbaabcbabaabbbbbbababcaccbabbacbbbbbaaaaa",
"babaabbbbaacbbbbac`cabaaabbcabaaaaaaaabbaaababaaabbabaaabbaaabbbacaacabbabbbccbbbbbbaaababaaabaabababababaabbbbbbbabcabbbbababba",
"bbaabaacaababcababbabbbabbabbbbbbbbbbbbaaaabaabaabaababbbaababaaaabababaababcbbbbaaabbaababcbbaaabbbbaababbbcaabaaabbbaaaacacabb",
"baaaabccbcaabaabacbaaabbbbbbaababcbabbcaababaaaa`bbbaabaabaaababaabbaabaabaacbb`acbbbababbacbaaaabacbabcabbbababababcbabbcabcbba",
"abccbacaabbbacbaababbbaabbbabbbaaaabbbababbbbbbbbaabababaabbbabababc`abbbbbcc`baaaacaaababbcaaaabbbabacbbbbacabbbcbabbabaabbabbb",
"bacabbca`aacacbbbbbbaaababbbaaabaababbaabbbaababacbababacbaaababaabbbcbabbcbbbbbaababbabbbcc`aabbacbabbbbbaabbababbbbbbbaaabaaba",
"aaabbabbbcbbbabbbbababbabbaababababbbabababaaabaababbacccaaaacacabbaabaa`abbbabcacaabababbcaba`bbbbbbbabbaabaabbbabbaaacbabaabbb",
"abcaabaababcbbabbbbbbaabbabbababcaaabbabacbabababbabbaabbbabbababbabbac`bbabaababababbabbaabbbababbbabbaababcbabbaacccbaaaaaaabb",
"caabaababcaabaabbaaaabaaabbacaccabbaabaabcbabbbabbabbabaabbbccbabbaaababbaacbbaabaabbabbabacbaaccaaacabababababbabacbbaabbababab",
"bbbb`bbabaabbabbaaaaaaabababaabbaaaabbbbacbbbbcabaaabbacabacbabbbabaacaaaacaacbabaababababababaaaa`ab`aacacacaabbaacbbaaaaaabaab",
"bcbaaababbaababbbbbbbbbaabbaaabababbaaaabcbbbbabababbababaabaababbaacaaaccbaabbabbaaabbbbaccaabaaaaabaabaababbbbacaabbabbbabbabb",
"bbbbbbaabbaabcbbbaaacacaababbcbaabaaababacbbbacbbbcaababbbaaabbbbcbacbababbaabbababbbaaaabaaaaaabbbbaaacabaaabaabcbbbbaaabababbb",
"baabaabacaaa`bbbbabbbbbababaaaabaaaabbbbabbbbbabaabbaabaaaabbbbabaacabaababbabbbaabacababababbbb`abbbbaaaabababbacbababbabbbaacb",
"ababababaabaacbbababbbccabaabcbaabbbbbbcabababaaababababbaababbbaabababbbaaaaaaababbaababaabbb`bbbbabaacabababaabc`bbbabbbbbbbbb",
"bbaabaabcababbbbbabaaaabbaabcaaabbabaaacbbbaabababcbcbabaabbaabacbaaaaaababbbbbbbbbaabaaaaccaaacccccbbbababaabb`abbbbababbaababb",
"aabbabbacbaaaaaaababbbabbbbababbabababbbabababababaabbabcccaabbababaaabbbaaaaaabaaabacaaaab`bbba`bbaaaaababaabbbaccbabaabaaababa",
"bbabaaabababababaaaaaabacacbbcbabbbbaaaabbbacbaababbbaaaabbabababbababbbababbbbbbaaaababb`baacccccab`bacaababbabababbabaaaccccca",
"bababbaaababababbaabababbbabbabbabbbabaaabbabbbabaabbabaaabbaabababbcabcbabbbbbbaababaababaabaaabbbbbaaabbabbabaaac`aaabababbb``",
"ababaaaababbcbabbbbbaaaababbaacbbaacaaababababcbaabaacbbbbabaabbabaaabbbbbbbbbbaabbabcaaabcacabbbbbbbaabbaaabaababcabbbabccbaaba",
"babaababbbabbbaaaaaaaabaabacaaabbaabbbaabbbaaacacaabbcbccabacbbabababaacc`baaaaabaaacababababbabbbbbbaaaaababaaaababbabaababaaba",
"baabababaabaaabbaaaaaababbccaabbbaaaababbbccbccbbbbbaababaababbbbaabccaaabaabbbaaacbbbbababbbbcbabbaaaaaababbaaababbabababcbaaab",
"bbbabaababaabcaabbabbbbabacabab`bbcbababaaabacbabbaababba`bbbbbbabaabbbbbbabaaaaaaabbbbbbbbacaababbbabaabaabacacabbbcbbbaacbbbbb",
"baaababaababacabaaabaabaaacb`a`bcacaaabbaabbabbbbbbbaaaaababbbbbbaabbabbbbbabbbacabbbbcbabbaababbbbbacabbabaabbbbbaabbaabcabaaab",
"abbaababbababcbaababbbabbbbabbabbaabbbbacacaca`bbbabbaacaabababaabababbabcbbaaacbbbbaaabccbbabbbbabbabacabaabbbbbbbbbbbaaaabbbbb",
"bbacaaaaabaaacabaab`cbbbcccaaccaacbaaaaaaababbbbaaabacaabbbbaaabababaaababbabbacbbbaababbabbcaababbaaacbaaa`bbb`bbbabababacbcbba",
"abbcbaaaaaccacbabbbabbababbbbbbbbcaabbaabababbbabcaabaabbbaaaaaabababbccbccaccccbbaaaaaaccbccbbbabacabcbaaabaabcbbaababaacbabbaa",
"abacaaaaaacbabbaaabababacaaacbcbbcaabaabaaabbbabccabacabbbabaabbbaabaacbbcabbbba`babaaaaabbabbbbaaababb`a``bcbca`aaaaaacccaabbca",
"cbbcbabababaabaaabbababaabbbabaabcbbbbbabbbbbbcccabbaababcbccaaaaabccbaaacabbccbbaabbabbbbaabbbaabaabbaabaccbaabbaabbbcabbbbbaab",
"bbbcbbabababbbbbbbbbbbaccaababbbbbbbbbabbb`bcccabbbbaaaababcabbbbccabaaaabbbbb`bbabcaabaabbbbbabababbbbbcbaabaaab`bababbbbbbbaab",
"ababbabbbbbbabbababbbaacbabababacbcbabaacbaacbbaabbbcabbbaabbbabbbbbababababcbabbaccbaaacbba`ababaabbbacaacaabbbbaabcccaabbbbbba",
"bbababbbbbbbabacaabbabcaabbbaabcabbbbabbbbbacbbabbabcaaaaabbbabbabbbbaaaabababbbaacabaaabbabaaabababaabb`abaababbbcccbbbbbaabaac",
"aababaabaaababcabbabaccabbaaabbbb`bbcbcbcbaacaabbbbbabaababbaabbbaaaaababbaaabbabacbaabaabbbbbbaabaaabaaacabbbabbaabbabbbbbbabaa",
"bababaaaaababbcaabbbbcbbbabbbb`baabbaabacaaac`a`caabcbbbbbabbabbabbabaabbbab`bbaabcababababaaaaaaaaababacabbababbacabbbbaaabaacc",
"aabacaabababaccba`aaccbaabbbbbaabaaabbbaaaabaacbcbabbbbbbaaaacbcbaaabaabaabbababbacbbaababaabaaabaabcacc`bbbbabbbbaabbbaaabaaacb",
"abbbcaccaccacabbabaaaababbbaaaababbbacaaabbbbbbbaaaaabbbbabababababbaacaaababcbaabcbbababbbbbbbaaabbcaa`bababcbbacaaabbaabbabcbb",
"aa`bcbabbabbabaabbbabaabbbaaababaaaabbbaabbababbabbbbbaaabcbabaabbaababbbabbacbbaaaaabbbb`aaacacbbaaabbbbbacccbbaabbbaaaaaaaacaa",
"abbbcbaababbaababbbaca`bbcbabbbbabbaaabaaabcbbbcbaabbababaaababbbbbaaaacaabbabbbbacabab`baababbabbabaabbaabbabbbbbbaaabcaaabcaaa",
"babbabbabbaabbbbbbbaabbbababbababababbaaabaabbbcbabaaababbbcabaa`aabababbbbcbaaccccabbbaabaaabbbababbbbabaacaabbbabcbbabbbacabba",
"b`bbacaababbbabbbbabbbbaaaababbaaaabaaaaaaabbaacabbbaaabbaacbbabbaabaacaaababbbbabbbbbbbbabababababbaabcbaaaabababacbaaaacabbbb`",
"ababccababbbbbababababbbabbcaaaabbbacbababbbbbcbbbaaabbbcbaba`abbbbaabaabbbabbababbaabbaababcbbabbbbbbacabbaabbbbbaaabaaababbaab",
"aaabba`b`babbababababaaabaacbabaaaabababaabbbabbaabbbbbbabbaabbcababacaaaaabaaabbababbabaababbabbbaaaacabbaababbbabcbabaaabbbcbc",
"abbaacbaabbabbaaabaabaacabbcaabbbbabaabcacaaabacbbbbbbaabbabbabcbbaacaabbbaacbbbacaababbabaaaababaabbaabbabbabbbabaaabacbab`cabc",
"``babcaaaaaabaaabbabaaaabaaabbbaaabaaaababbbbbaababcaaabaabaaacabbbaabbaaaababbabbbabbaaababbbaababbaaaaababbbbbbaabbbbb`bbacabb",
"acabacbaabbabbcbbaacbbcabbabcaabbbbbcbaaaaabbaabaabcaaaacbabacaabbbabbabbbbaabbabaab`aabbabaacaaabacaccbbaabbbaaabbaaababcabbbaa",
"ab`abcabababaaabbcacbccbaaaacaaaaccccacaaa`babcbcaaabaaacbccacabbbabbabbbbaabbbabbbaabaabaabaaaaaaacaaabababbabbaaabbabaacbabbaa",
"abababbbbabababbaaabaabaababcabbababbaaabbbbabababaabababbabaaabbabaabaaababababaabababababaccababaababbabbbbabbabbaabaabbbbbaba",
"bbbbaabcbbbbbbbbaabbbbbabababbabbaabbabba`babacabbbbabaabbabbbbabbaabaabbacaaaabcbaaaaaabbaaabbbbaababbbbbbbabaabaaababaacccabaa",
"aabcababbbbbabbabbabbabaaabbbabbaaaaaabbbbccaacbaabbbbbbaac`ccaa`abbabbaaabaababbbbbaaabaabacbaaacbbababaabababbabababaccbbbaaba",
"bbbbbbbabaaabaaaabababbcbababbaababbbabbcacbabcbaabaabbabbabbabbbaaabaabbabcbbbbbbaaaaababcacaacbaaabaabbbbaabaaababaaaab`acbaaa",
"baaabbabababaabbabbabaacbabababbbbbbb`accbaabaabbbbbababaaabccabbbbbaabaacccbbbbababcbbbacaaabababbbbab`ababbabccccaaaabbbacaabb",
"aababbbababacabaabaabcaabababbaababbacabbbabaa`bbbbaababaabababbbbaaabaaaabbbbbbabcbcababbbbbbbababababbaabaaaaababbabbabaacbbbb",
"baababaaabaaabbbbbabacbabababbabbbabcabcbaabbbbbcbababaaaaabaaabbbabbababbbbbbbabcaacbbbaabbbcabbbbabbbbbbacccbaabbabbabaabcbbaa",
"aabbbbbbababcbaaabaabcbabaabacaaaabbcbbbbabbbbbcababaabacaabbb`bbbaaaaabcbaaababaaababbbabaaabababbabbbaaabcba`bbbaabcbabbabaabb",
"bbbbbabbabaaababbaabbcbcbcbabbbbbbaacaabbbbbaccaabccbbabbabbbabbababbcaac`bbabaccabaabbbacabcabbcaaababababcabbaabbabcbbabababba",
"bbabaababaabcabbabbbccabaaaaaabbaaabcbabaaaaabbbbbbbbaaacaaabcbababaacbbbbaabaaca`bcabbbcabacbaaaabbbbbbabaaabaaaaabab`baabaabab",
"acaabaaaabbaabbabaacabbaabbbbb`abbbccbabababaaaacbabbabbababaabbbaabacbbabbccccaaaccabcccbbbaabaabbabbaabacaabaabbb`a`aaabaabaaa",
"bbbbbabbbaabbbbabaacaaabaababbaaaaababcaaaabbbabaabbabaacababbbbaccaccabcacbabbabbabbbabbbbacabcaabbbcbbaccbabbbabbacbaabababbcc",
"bbbcbabbaabaccccbaaababaabababbbabbcbbba`b`bbbbbb`bbbaaaaaaababaaaabcbabbba`bbbaaaaaabbabbabcbbbabbcccbaacbbaabbbbaaababaaaaccab",
"bbbbbcbbabbabcbabacaaaaabbbbbbbabaaabaabbbbabacaabbbaaaaababaabaababaabaabcaabcaabbbbbbcbbcabaabcababbbbbaaaabbabababbaabaaaabba",
"baaaababaaaaccbbbaabbbaabcbbbbaabcaaaccaaaaabababaaabaababaabbbbaacbababaaa`bccbabbaaaab`cbbacaababbbabaccbbbbbbbbbbbbaababaabaa",
"bbbbccabbbabbabbbbbba`bbbbbbacbccccacbbbabababacabbbabababababbbbbababababbbbcaabbababaabcbababababaabbaaab`bbbbbbababacabaabbbb",
"baaacabbabaaccbabbbababbbbabbcbcaabbbbababbbbaacabbababaaaaabbbaaccabbcaabbbacababbb`bb`bbbcbcababbbabbbabbbaaabbabababcbbaabbab",
"aabacbbbbbababbaabacbcaaaabbcc`cb`bbbaababbaaaabbaacccccaabbbbbbabbaabcbbbacabbaabbbaabababbbcabb`aaaaabaabaaabbabaaaababaaabacb",
"bcccbaabbacaaabaabcbbbbabbababaa`bbaaababbbbababababbbabbaaaabbaacbaaabbbbbbbabbbbbbaaccacabacbbbabbbbbbabbbbbabaababbaacbabbbbb",
"acbabbabbabaabbabbbbaaabbababcbbbaabababbbbaabaaacaaaabbcbababbacabcbabaababaaabbbaaaacbbcaccc`bbaacabbabababbaaabaababccbbbbbba",
"acbbbaaabaacbbacaabbbbbbbbaaaaa`aaccaaabbbabaabaaabbbbbaababbbbccbbbbababbaa`bbbaacacbabbcbbbaababbcbbbaabaabaababaaabcaaaabacac",
"abbbacabbabababbbbbbbaaaaaababc`abbbaabbaaaaabaaabbbbbbbbabbbbacbabaaabbbbbaaabcccbbaaabaabbcb`bbacabbbabaabaabaaaaababbababaaab",
"cbbccabbbaaaabbbabbbacbbaaaaababccaababaabbababbabbabbbababaabacbbbaacbbbaaaabcbbabaa`bbbbbb``cbacaabbabaababbbaaabbbbababbbaaab",
"cbaabaabbbbababbaabaaabaabbbbcbacbbabbbbbbaabcaccaccacabaabbbbbabbbabbbbbabbabcabaaabbbbbbbaaaabaabbbbababbbbbabbbbbabaabbcabbbb",
"abccbababaaabbbaacabaababaaacaaaabbbcbaabacaacabaaaab`bbacaabbaababbabbaaaaacccbbbab`baaaaaabcaacabbbacabaaaaababbbbbaabaaaabbca",
"bbbbabbbbabbbbabaabbabbabaaababaaaabaaababbbbabaabbabccbaabaaaaababaabbbbabcc`bbbbbbbabbbcbaccbaabbacabbbabaababbcbbaabbabbbbcab",
"aababbaabababacacabbbabbaaaabaabaababbbabbaacbabbaabaabbbcbabbbabbaaabaaccacbbabbababbaacaacbbbabbbbabaaabaabbccbabababaaaaacbba",
"bbabbbbabaabababbabbacaabbabbababababaababbbbbbbbbba`b`baababbbbacaaacabbaabbabbaabaababcbbbaabbbbbacabbaaaaaaaabababaababababbb",
"ababbbababaabbabaaaabbbbaaabcbabaaabaabcbbbabaabcaacacaacaababbababcabbbacbaabbacaaaabcaabacabaaaaacaaaaaabbbbcbabbcaabaabababba",
"caabbbbba`c`babccababaabaabbaaaaababaabbbaababacaababbbbbbbabbbaccba`bbbabbbbbaabbbaaabbbbbbbbcbbbbaababbbbaacacbabbbbbabbbaabab",
"abbabbabbaabcbaabaab`abaaaacbbbabbabbbbbbbaababbababaabbabaaabbccbbaabababbbbabaabaabbbbababcbcbcbbababbbabbcbaaaabacaccaaccccaa",
"cabababaabababaacbbabbaaaacbbaabbbaaabbcaabaaaccbabbabbaaacbbbaca`aabbbcabaaabbaaaab`babaabacbabbbabccababbaaaaababcbbbbbbcbbabb",
"abbbbbaabaaaacaabaaaaaccacbabbbbabaaaacbbaabcaabbcbbaababbbaabbcbbab`bcaacbaaabcabbbaababbabcbaabbbcaaba`bcccbaaabacbbcbabcaabba",
"cbbbababaabcabaababbbbbbbabbbaaaaaacbb`baabaabbbbababbbbbaaaaaacbbbbaaaacbacacaaabcbbbabaaabcbabbaaaacabbccabaaaaabaababccabbbbb",
"abaabababbacbaababbababaaabbbabaaaccb`aacabbaaaaaaaabbbaccaaaaaaabbbcaababbbbbbabb`bbaababaaaaabaaaaaaa`baababbabbbb`bbbbbbbabbb",
"bbabcbabcabcbababaabbcacabbbbaabbaaabbbcbabaabbabaababaaaabbbabbbbbaaaaaaaaabaabbbabababaababbbbabbaab``ababbbbababbcbccaabbbbaa",
"bcabbbacabababababbbabbabbbaaaaaaaaabbabbbaabbbbbbbcababbbbaaabbbbbaababababbabbbababababbababbabcacaacaaabbbaababcccacbbbbaabaa",
"acbabacbabbacaacbabaababbbbaaaabbaba`bbcccaabbbabaaabbbabccaaaabbabababaabbaabbbbbababaaaaaacaccbbbaa``bbbbababccccabbbbacbbbbab",
"aabbabababbbaacbbbaaaaabbbbabbbbbabbbbababb`bbababccabacccbbabbbbaaccbaaaaaabbabbabaababbababbbabbab``abaaabababa`abbabcbb`aabaa",
"abaaaacaaacaacbaababb`bbaaababababbbabcccbbabababacbbaabbaabbababaabbaabbbbabbabaaaababaababccaabbaaacccabaababacbcbabaabcbaaccb",
"bbaaabbaaaababbabbbbcc`bbabababababababcab`aabaaabbcaaaaaabbbabaabbabbbbaaababbabbbbabaaacccaaaaabbbabacacabbaabababbbbaaaaaabba",
"bbcaaaaababacbaabbbbb`baababaaba`bacabaa`bbababaacabaabaaaaababbabcaabbaabbbaaaabbaababcaabbbaababaaaccbbaabbabbaaaaaaaabbababbb",
"baababbaababbbabbbbbbababababbbbabbbabc`bbababaacbbbabbababbbabaababbbacaaaabbbbbbaaabaabaaabbbababacabaaabaaaaabcaaaaabbabbabab",
"abbabbbaabbababbabaabaabaacaaaaaaaaacbabbabaaabaabaaabbaabaaaabbcbabbaaaabaabbabaaabaaaaabbabbcaaaaabbbbbababbabacbcabaacabababb",
"bababbababaabbccbaaacbababbbabaabbcbcbbacaabbaabcbabbbbbbbbaabbaabbbcaabbabababbaaaaabaabbbbbbbbabaabbabababaacacbabaa`bbabbbaab",
"bbaacccaaaaaaacbbbaabbbabaabcaaaaccacaaabbaaabcbcbaabbabbbbbbbababababaaaabb`bbacaaaabc`bbabbcccaaabaaaccbbbaababaabbbbaabbababb",
"babcabbbaabababbbbbaaaaababbcbaaabbbbababcbaaccbabaabaabaabcbabbbbbbabcabbabaabababb`abbbbabbcbbaabbbbbbbbbbcbaabbbabc`aaabbaabb",
"bcccaaaacbbabb`bbaaaabbaaccccabbbbbbaabbabbababbabaabbabaaabaababaabbccbbb`bbaabcabbbbbbaabcaabaabbaabbaaacacbbbbabbbabbababbaba",
"bbabbbababbbbbbbcaaabbacbcbbbbbbabcaabbbabbabaaabccbbbabababcabaabbaacabbbababbababbccbaababbaabaaabaaaaaabbaaabbabbabbbbabbabbb",
"babaaaabbbabbbaabbbabbabaababbbbbabbbaabaabbaababbaabaaaabbaa`bbbaabca``bbaabaaaabbaabbccabaabbbaabaabbcabbcbaaaaabaabababaababc",
"baccbbbabbaaacaabaaabaaaababacabaaccacabbbbbababbbbbbaababbababbaaccbbcabcbbabaababaaabcb`ababbbcbbabbaabbbabababbbbabbababaccac",
"bbbbbbcbbbababaabaabaabaaabab`bccbcbabbabbbaabbbbbbabbbabbabaaacababbccacabababbbabaaababbaabaaacbaabbaabbbabaaabbbabaabaabacbab",
"baaabbaabbaababbabcaaabaaabbbabcabcbcbbbbabababababaaabbbbabaabcbacbcabbbbbbaaaacbaaabaaaabbcaccaabbbbbabbabbbaaabbaaabaabaccbbb",
"aababbaabacbbabbbbcbabaabbaabbacbbbbbbbaacababababaabababaabcacabaaabaaabbbabbbbcaccaabbbbaccaababbabbcbbbabacbcabaabaaabaccbaaa",
"bbbbaabcabbaabbbaaabbbbaaaabbbaaaabbbbbcabacaabaaaacccbbabbacbbabbbaababbbbaaaaccaba`aacccbabbabababaabbbabaaabcbbbaababbaaababb",
"aababacaabaabbaabbcacaaaaabbbbababbbabbabbabbbabacaabababaabcbaabacbababbbbabbacbaabacabbbbbaaaaaabbaaaabbababacabcaaabaccaababb",
"abbbabaaabaabbbbababbbbabbbbbababbbabaacaaaabcccbaabbbbaabaacbabbbcabaabbbaaaabababbabbabaaabbb`aabbaabbabaabaaabbcbbbaaababbaba",
"aababacaabaabbbabcabbbbbbbbbabababbbacbcababbabaaabbaabcbcccabbabacaaabbbabbabbccbabbababaabbbbccba`cbbbbaaacccbbbbabacaaabaabab",
"cbbacacabababbbaabcccbbbbbbabaaabaccccacababbbbbb`abaababcbbbaaabbabbabbbbacccccbbabababbaabacbcbabbbbbaaabbbbbbabbcbaaabbbbb`ab",
"bbbcbaabbababbbaabcbbbbaaaababbaabcbbabbbaabaaaaaaabccbabbbaaabbacaaabbbbababbb`acbaaaaabababbbca``abaacbaaaccabaccaaabab`abbacb",
"bbabbbababaabaacbacabbcbabbabacbcccaaaaaababbbbbbbaacbbbacabaaaabaababbbacacaaaababbabbbababbbba`baababbbcbacababbbabaabbabcbbcb",
"bbbabbaababbaabbbccbbbabbaabaaabcbababbabb`bbbbbbbbcbabaaabcaabbbbbbb`baabbabbbabcabaaaabbabbbbaaabcacaaccbabbaaacabaababbcaaacb",
"bbacccaaababababbcbabbabaabaabcbbabbbaaabbbaaabbaaacabbababbbababbababbbccbcaaaabcbbbaababc`ababbbacbcbcabaaaabababaaaababababba",
"babbbbbcaabaaabbbaabbaabaacaccaacaabbbbb`babaababbabaabaaacababbbbababcaaababbab`bbbabaab`ababaaacbcaabcaabbbbaabbbaaaabbbbabaab",
"bbccacbabbabbbb`abcbaaabbabaabababbbabbbbabaababaaaacbabaabbbc`bbababbcbcbbbbbbbaaabaaabbaabbababbac`bbbbbabaabbbbbcbababbccbbbb",
"bbcbbbbbbabbbbbaaacbbabbaabbbbbbaaabbbaabbaaaabbabcbababcb`cabba`abaabaaaabbcbcaaabaaaa`bbbabababacaaabaabbbabbbbbbaaba`baabbbaa",
"bacbabbabbb`bbbabccbaabbbbabcababbbbacaabaababbcaabbcbbaabcb`b`baaabababbbbaabcbbabbaabaccbbbabaaccbbbbabaabbabbbaacbaaabbababab",
"abcbaabaabcaacaaabaabbabbbcbcbbcbababcbbaababaaabbaba`acb`bbabaaaaaababaabcbb`abbaaaabaaabbbaacccabbaabcbbbbaabbcbbbbbbbbbcabbbb",
"acaabbbbaaacabbcbacbaaaabaaaabbcbbbbcaaaaccabaaaabaacccab`babaabcaabbaababbbcabbaabbbabcbbbabccbabbbbbbbbbababbbbbcbbaabbaabbbba",
"bbbbaabaccaabcccbabbabbabbaab`bbbbbbbbaaabbbaaccbbaacabbcaabbbbbcbaaabaaccaabbaaababcbcca`aaacbbbbababbabcabbaabaaabaaabaaabbaaa",
"baababbca`aababbbbbcabbaabbbbbabbbcaaaabbaaabcbb`bbcbbbbb`aaaaaacaaabbaaababbbbbaabbabcb`baccabbbababbbbaabbaabcacbaaababcacabba",
"aabaabaabbcbacbababaabbabbbbbabaababbabbbaabbcbabaacbabbaababaabaabbbbcaabbbbaaabbaabbabbabcbbbaaaabbaacbacbbababaabaaaaaaabaaaa",
"bababcbbbbcabbbbbbaaabaabbaaaaaababbababccabaabbbbbcabbbabacacaacabbbbaabaacbbaaababbabbbaaabbaababbbaabbba`abbbabbabbababbbabbb",
"cababcaaaacaabbbbbcbbababbbbbbcbabaabcbabbbababbbaacaababacabbbaabbaaacbbabbbbbbbccaabbbaaaababbcbbbbabababaabaabaabaabaabbaabba",
"ababacababcbbabaaabbaabaabaaaacaaaaacaaaaba`aabbbabcbbbbcaaabaacbbbbbbbbbbbaacbaccbabaaaabbbabaaabbbababbbabaabbaababaaababcaaac",
"abbabcababbaaabbbbbabbbbbbbbaabbbbbbaabbbbcccabbbaaaabaab`babbbabbbbbabbacaabbbccabbbbbcaaababcabbabaabaaababaabaabaabbbabbaaabb",
"bbabacabbbaaba`bbaaabaaaabbabbccabacbaacbacbbb`bababababbaaabbbbabbbaababcaabbaabbbaacacabbaaabbabcccbaabbababbccbbbbbaccaaaabba",
"aaabaabbaaaaabbaaacbababbbabaacabbcabaabbac`aabababccbbbbbababbabbbaabbabcbabcabbbbbbbbabbbabbcaaabbbbabaaaabaaaa`babbcbabaaabcb",
"ab`bacaabbbb`bbbacababcbabaabbcbaaaabccababbaa`cccbabababaababaaabababaabcabbbbbbabbbbbcbbbaaccabaaaabcaabbaabaab`aabcabbbbbbcba",
"ab`acabbbbbababaccbaaabaabbaaaabb`baabbabbaabbbababaabaabbcbabaabaabaabacc`bbbbbbabaaabcbbaaccabbbbababababbaababbbbabbbbcababab",
"b`ababbbbbaaaabaabbabbacbbabbabbbacbbaba`bbbbaabcbbbcabbbbaaaaacbbbabaaacaabaaababaabaabbbbbcbbaaaabababbaaabcacabcabcccccbbb`bb"
};
