/* XPM */
static char *background4_xpm[] = {
/* width height ncolors chars_per_pixel */
"128 128 3 1",
/* colors */
"` c #BCC0E1",
"a c #7C80AF",
"b c #FFFFFF",
/* pixels */
"aaab`a`a`aba``a```a`aaab`a``a``a`ab``a``ab`a``ab``aaaabaaa`baaaba`a```a``a``aaab``a`aabab`a````aab`aa`a``a```aaaaab```a``aaaaba`",
"aabaaaa`aab``a``aa`b``ababaa`aaaba``a``a``a`aa`a`aaabba`b`ba`bb`````aa`ba``aa`ab`a```a`aba``a`a``aabaaaba`a`aa`b`b`a`a``a`b``aaa",
"`b`aab``aa``a``aaa`ba`aa```baaab`aba``a``aa`aab`aaaaba``a`a``a`a`a`a`a``aaaaab`aaa`a`a`a``a`aa``aab``b`a````aaba``a```a``a`a``ab",
"`a`bba`aba`a`a``ababa``abaaaaaba`a``a``aaa`aa`aa`b``b`a````a``a`a```aaba`abbba``b```a`aba``a`ba``abaaa``a`aaaab`a``a`a`a````aa`b",
"a``a````aab``aaa`aab``aaaaa`bb``a`a``a``abaab`b``aaba``a`a``a````a`aaabaabaa``a`aa```aabaab`a```aaaab`a```aa`ab``aa`a```a`aaa`b`",
"``a``a`a`ab`aaaaa`b`aaaabbb``a`a`aaaa``a`a`bb`a``aab`aaaa``a`aaaa`aa`baab````a`a``aaaa``ab`a`aaaaabb`a`a`ab``b``aa`aa``a`a``aa`a",
"aaa`a```aa```abbbba``a`b`a`a````a``b`a`````a`a``a`aaaaab`a```aaab`a`baab`a`ab`a`a``b`b``a````aab`aba````a`aaba```a``ba`````a`bbb",
"a````a`a`aba`aba`a`aaaba``a`a`a``b`aa`ba`aa```a`````a`ba``aaaa``b`a```a```aaaaa`aa`aaaaa``a`aabaa`b`a`aabaab``a`aaba`a``a`a`a`a`",
"ab`a``a`aabaaab`````aa``a``````a`a``a`aaaab`a``a`a`abb```a`ba`ab`a``aaab`aa``bbab`aa``b`a`aaab`aab`a`aabaab`a``a`a`aa`baaa```a`a",
"`aaaaaaa`aaabba`aaaaab`a``a`a`aaa``aaabbb``a``a`a````aaaaaaa`baba``aa````aa`b`a``a`````a``aa``aab`a````a`a`a``a``a`baba``ba`a``a",
"aab`bbaba`bba``aaaaa`aa``aa``aaaba`a`baaaa``a``aaaa`a`abb`babaa``a``abb`a``ba``a```b`a``aa`bba`a```a`a````aba``a`a`aab``a`````a`",
"aab`a`ababa``a`aab``bb`aabbaaa`ba`a`baa`b`a``aaabba``aa```aaa`ba``a``a`a`aaa`a``a`aa``a`abba`ababa``a`a`a`a`aa`aaaba`a`aaaaa`a`a",
"aab``aaaab``a``a`aabaaa`aba``ab`````aab`aaba`aaba``aaaab`a`a`aa`ab``aaaa``ab``a``aaaa`aaaa``aa`ab`a``````a`abaaaa`````aaab``````",
"abb`aaab`a`a``a`aab```aab```aaba`a`aab`a``a`a`b``aaaab``a`aabbb`aa`a`ab``aab`a``aaab`aa`aba`aab`aa``a`a`a`a`aa``bbaa`aba`a`aaaa`",
"``aaaabaaba``a``a`ba`aaba`a`aa`aaa`aaba``a``aba`aaabb`a````aba`a``aaaabaab`aaaaaa`b`ab`bab```a````aa`a`a``ab`bbba``ba`a`b`a`baba",
"aaa`bbaab``a``a``a`aaaa`aaaaa`abb`aab``a``a`b``a`bba`a`aa```a`a`a`aba`aaba``a``a`aaa```aaba`a``a`ab`````a``a`a`a`a`aaaaba``a`ab`",
"`aabaaab`a`aa```a``a`b`abbabbab`a`aaba``a`aa`a``aa````aba``a`````a`b`baab`a`aab`abb``aaab``a`aabaaaaa`a``a````a```a`a`b``aabaab`",
"aa``aab`a`aaba`a``a``aab`a``aaba``aba``a``````aaaba`aaab`ab``a`a`ab`a``a`a`aabaab`aab`a```a``aabaab``aaaaa`a`a```a`aaba`aaab``aa",
"`aba```a`aa`b```a``aabb`a``a`a``a`a```a``a`a```a`b`a`aba`a``a```a``a``a```aaaaab`a`aaaa``a``a`aa`ba`abb`aa`aaaa`a```aa`b`aba`aab",
"``a`a`a``aa`ba`a`a``aba``a``a```aaaba``aaaa`a`a`ba``aa``a`a``a`a`a``a``aababbb`ba````ba`a`a``aaab``aabaa`bab``ba`a`aabba`a``aab`",
"`a`````aaa`ab`aab`a``a``a``aab`aabbaaaab`bab`a`a``a```abaa`aaaaaa``a``aabaab`a`a`a`a`aabab`aaa`b`a`aabaab```aab```aa`ba`a``aab`a",
"``a`a`a`b``b`a`aba``a``a`a`aaaa`baaab`ba`a``aaa``a`a`aabaab`ab`b``a``a``aaaba``ab`a```a`abaaab``a`aa`aab`a`a`aba`a```a````aaaba`",
"`a```a``aaba````a`a`aaa````aabba`aab`a``a``a`aaba````aaa`b`aab`a```a``aa`b`a``aaa```a```b````a`aa`baa`bba``aab``a``a```a`a`a`b`a",
"a`a`a`aaab``a`aaaa`aab`aaaaa`ba`aaba``a`abaaab`a`a`a``a`a`a`a```a`a`a`aaba``aaaaba`a`a`a`a`a``aa`aa`bba``a`aaba``a``a`a```a``b``",
"aaa````aba`a```aabb``aab``baba```bb`a``a`aa`ba```aa``a`ab``aa`aa````aa`baaaabaa```a``aa```a`aabbabab`a`a``a`a``a```aa``a`a```a`a",
"abbaa`a`aab`a`a`aba`aaba``aab``aaa`a``a`a``ba`aabb``a`aab`a```b``aaaaabaaabba`b``aaaaaba`a```aba`aaba````a`aa`a`a`aaaba`aaa`a``a",
"b`a`b`a``ba````aa````ab`aaaaa`aaaab`a``aa`ab```a`a`a```a`aaba`a`aaabbba`aba```aabaaabab`a``a`aa```aa``aaa```ab``aaaaab```ab```aa",
"aaaa`a`a`a`aaaaabba`aabaab`bbaa`b`a``a`aabaa`aaab`aabaaabab````a``ba`a`a`b`a`a`aa`bbaaba`a``aaba`a`bbaaa`aaa`a`ab`bbaba`a```aaa`",
"`b`ab```a``abab``aaaabaaba``aabba``aaaaab``a``a`a`aabaabaaba`a``aab`a`a`a`a```aabba``bb```aaabaaaaa`a`ab`abb``aab``aab`a``a`aa``",
"`aaaba`a``aa`ab`a`a`baab```a`a`a`aa```bb`aa``b`abaab`a``aab`a``aaa`a`aabab``a`aaba``a`aa`aaa`a`bbab``aa`a`ba`a`a``a``aa``a```a`b",
"``aab`a``a`aba```aab`aba`a````ab`aaba`a`aaab`a``a`bba``aab```a````a`aaaba``a``aa``a`aa``a`abb`a`aaba``aa````a`aa`aaaaab`a``a`aba",
"aaa`ba`a``aababaaabaaab`a`a`aaabaab````a`aba``a``aaa`aa`ba`a``a`a``abbbaaba`a`aba``aabaa```a```a`a`aaaa`b`a``aa`ab`b`aba`a``aa``",
"``abb````aabaab``a``a`a`````aabaab`a`aabaab``a``aaab`aab```aaa`a``a``a`aab```aabaa`aba`aba``a`a```abaa`ab``a`aabb``a`aa````aa`aa",
"`a``aaaa`a`aaba`a``a````aaaaaab`a`a`aaab`a``a`a`aabaaaaba`aaa`b``aa`aaa``a`aaabaa```a``ab``a`a`aba`a`bbba`a```aba`a`a``aa`aaabaa",
"bb`a``ab```abb```a`aba`aaaa`bba`aa`aa`baaaba````aab`b`baaaa`aba`a`aa`b`aa``a`aa``b`aba`a``a````a``aaba`a```a`aa``a````abaa`a`aab",
"`a``a``a`a``a`a`a`aab`aabb`ba``aab`abbaaabb`aaaaabaaaaa`b`abab`a`aabba`b`aa`b``b`a```a`aba`a`a``aa`b````a`a``aa```a`a`aa`bbabbba",
"``a```aa``aaaa````aabaab`a`a`aaaba```aa`ba`aa``bbaab`b``a`baaba`aa`b``aaa`ab`a`a``a`a`a`aa``a``a``ba`a`a`aaaaaaba```aaabb`a``a``",
"`a`a`aaa`aa`ab`a`aa``aaba`aabaab````a`aba``aab`aaaba`a`a`aaab``aaaba`a```a``a`a``a```aab``ba``a```a`a```aabb````aa`aa`ab`a``a``a",
"aa``aa`b``abaaaaaaab`a`````aa`b`a`a``a`a``aaabaabb````aabaab`aaabab`a``a`aa```aa``a`aa```a``a``a`a```a`a`aba``a`b`aaababa``a``a`",
"aab``a``a`baabab`bbaaaaaaaaabba``a`a``aba``a`aaba`a`a``aaaba``abaaba`a``a`ba`aa`a``a`ab`a`ab`a``aaaa``a```a`a``a`abbbaab`a``a`aa",
"``ba`a```aaab````aaab`bab`baba``a```aaabab`a`bb``a```a`aba```aabaab```a``a``abb`aaaaaaba``aa``a`aabaaaaa`a````a``a`a``aa``a``aab",
"aba`a`aaaa`ba`aabaaba```a`aab``a`a`aaabaaba```a`a`a`a`a````aaaabaaba`a``a``a`a`a`bab`baaaa```a`aab``baaba``a`a``a`a``aaaaa`aaa``",
"a````a`bbaa```aaa`b``a`aa`aa``a````aab`aba``a``aaaa`````a`abbab`aba```a```a`a`a``aab`a`bbaaaab`a``aaaab`aba```a```abaaabbaa`abaa",
"`a`aa`a`a`ba`aaa`ba`a```ab`bba`a`aaaba`ab`a``a`aababa`a``a`a`abaab`a`a`aaa`aaa`aaaba``a`a`bab`a`abaabba`a`aa`a`a`aaba`ba```a`b`b",
"abab`````a`aaa`b`a```a`a```a````aabb``aa```a``aabaab```a````aaaaba```````baabbb`ba``a``a``aab``aa`aba````abaaaaaaabaab```aa`ba`a",
"ab`aaba`a`aab`aaaab`a```a`a``a`a`aa`a`aab`a``a`aa`a`a`a``a`a`abb```a`a`a`a````a`aaba``a``a`aa`aaa`ab``a`aab`b`ba`aaa`aa`aa`ab``a",
"aa`aba`````aa`bb`a`a``aaaa``aaa````a```a`aa`a``ab````a``a```aa``a`aaa```a``a```a`ababa``a``abaa`baba`a`a``a`a`aabbb``a`aaababa``",
"``aab`a`a`aaaba``ab`aaaaa`aaa`ba`a``a`a`ab`aaa``aaaaa`aa`a`aa````aa``a`a`a``a`a`aa`a``a``aaab`bba`a`````a`ab`aaba`a`abbabbaaba`a",
"a``ba````aaa`b``aaba`babbbabab``a``aab```a```ba``abb``ab```aab`aaaab``a```a``a``aab`a``a```a`a`a`aab`a`aaaab`aab``````a`a`aab```",
"`aaa``aaaaa`ab`aaab``aab`a`aab`a``a``aa`a``aab``a``a`a``a`aaab`abbb`aab``a`aaaaaabaa``aaa`a`a`a````aaaa```baaaba`a`a`a``ababa`a`",
"``a`a``a`abbba`aaaaa`aaba``aaba``a``a`ba``aaaba```a````a`aaabaaaa`a``a`a```aab`b`aa`aa`bab```a`aaa```baba`a``a``a`a```a`a`a``a`a",
"aaa`baa```ba``aabbb`a``a`a`abaaa``a``a`abaa`b``a`a`a`a`ab`bbaabb`a`a`aaba`aab``aabbab`a`aa`aaa`bbaaaaa`b```a``ab```a`a`aab`ab```",
"aabab``aaba``a```a`a``a`aaaa``b`aaaa``aaaa`b`a``a````aa`aaaaaba`a``aa`b``aab`aaaba```a`aa`aaabb`a``b`aba`a``aab``a`aa````a`aaa`a",
"abaab`a`a```a```a`a`aaaaba`b``a``bab`a`a`b``a``a``a`a`aa`b`ab``a`ab`a``a`aab`aab``a`a`abb`b``baa````ab``a``a`a````aab`a`a`a``baa",
"b`a`aa`a`ba``a`a````abb`a`ba```a```aaaaaaba``a``aaa``aabba`a`a``aaaaa```aaaba`a``a```aa``a`a````a`a```a``a``aa`a`aaaba````abaaab",
"`a`abab`a``a``aaaaa``a`abba`a`aba`aab`b`bb`a``aaa``aaaba``aab`aa`abb`a`aaa`a`aaba``a``ab``aaba```a`a`aaa``aaab``aaab``a`aaaaabba",
"``aabab``aaa`aa``b`a``a``a```a`a``aab`a``a``a`aa`ababab``a`abaab```aaba`b`b```a```a`aa`a`a``a``a````aa``a``aab`a`b``a``a``abba``",
"`aa``a``a`aab`aaa`a``a``a```a`aabaab`a``a``a`aaabba`a`aaaaaab`aba`a`a`aba``a`a``aa`aaab`a``aa`a``aaaaa`ab`a``aa``a`ab`a```aba``a",
"``a``a```aabba`bba``a``a``a```aab`a````a``aaaaaaba``ab`b`abba`ab`a```ab```a`abaaaba`ab`a``a`abaaaaabbbab`a``a``aa``a`aa`a`aa``a`",
"`aa``aabaaaba`a`a`a`aba`a``a`aabaaaba`a`a`aaab``b`a`a``aa`aa`aa```a`a``a`a`aaaab```baba`a``aaa`b`bba`aa```a``a`b`a``ab```aaba``a",
"a`abaab`a`ab```a``a`ab```a``aaab``ab`````aabbaaba``aabaa``b```a`aa```a``a``aabba`a`a`a```a``ab`a``a``aaba``a``a`a``a`a`aaa```a``",
"````abba`aa`a`a`aaaab`a`a``a`a``a`aaa`a`a```aaba``aaaaaab`aabaa```aaa`aaaaaaab``aabaa`baaa`a`aab`a``a`aa``a``a`a`ab`aaaabbaabaaa",
"ba`a``a```abbaaa`aba`a```a`aaabaa``ab``a``a```a``aaa`bbba``a`aab`a`ab``aab`bbbaaa`baabaaa`b```aaa`a``aabba`aa````a`aab`baaab`aaa",
"b`a`a``aaa`a`aa`b`a``ba`a`aa`b``baaaba``a``a`a`bababba```a`aa`ba``a`ba`abba`aa`ba`aaba```aa`aaabba`aaab`aaaa`aa`aa`ab``a`bba``a`",
"ba````aaab``a`a`b``aab`a`aabb`a`aab```a``a`aaaba`aab``a`a`aabab``aa`b```a``a```a``aab``a`abaaab`a``aab`a`abbabaaababa`a``a```aaa",
"b`a`a`aab``a`aaba`a`aba`aaa``a`a``aaba``a``aab``aa```a```aabaaba`aa``a`a``a```a``aa```a`aaa`baba`aaba`a`aaba`aaa`aab`a```aa`aaa`",
"ba```aaaba````ab`````````a`b````a`abaa`a``a``a`a``a```a`aaabaa````aa``a``a``a``a``aa`````ab`a``aaaaaaab``aa`aabbb`a````a`aa`aa`a",
"a`a`aa`baaba```aaaaaa`a`a`aba`a``aa`abaaa``aa`a`aaaba``a`a`aabba`a`abaaaa`a``aa`aa`bbaaa``aabaaaabbbb`ba``ababa`aaba`a``aa`abbab",
"`b````aaaab``a`aabab`a```aaa`a``aa`aba``ba``abbaabb```aaaa`bba``a`aaaabb````aa`aaba`a`aba``aaabbbba`a```a`aaab``aab```aaaabba```",
"`a`aaaabbba`a```aa`b``a`aaab`aaaaabb``a`aa`a``a`b`a`aaaab`b`a``a`aa`bbaaabaaaab`ab`a```b`aaa`b`a`a`a``aa````b``aaaba`aaaba```a`a",
"aa```aaba``a``a`aaba`a``a`b`ab`b`aba`aab`ab`a``a`a``aa`ab`a``a```ab``a``a``a`b`a``a``aaa``aa`ba`````a``aaa`a``a```aaaabb`ab`a```",
"aa`aaa`b`a``a``aa`b`a`aaaba``a`a`ab`a`a``aba`a````a`aababa`a``a`a``a``aab`aabaaaaa`aaab`aaaba``a`a`a`aaa`ba`a``a`a`ab`a`aaba`a`a",
"``a``aa```aaaaaabab``aab`a``aaaaa`a``aabaab````aaaaa`baab````a```a``a``aaabbaa`b`ba`baaaaa``aba```a```a`ab````a````ba```a`a```aa",
"`ab`abbbaaa`aaa`aa``a`aaa`aaa``b`aa`a`a`aaba`a`aa`b`ba`a``a`a`aaa``a``a`abaaab`a`a``a`b`bbbaab`aaa``aaab`aaa`a``a`a``a`a``aaaaaa",
"`b`a``a`aaba`bbba``a``abb`ba`b`a``abb````aaaa``aab``aaaa`a```aaaaba``a``abaab`a````a`ba``a``b```aa`aaa`aa``ba``a```a``a`baabbab`",
"``a``a`aaba`ba`a`a``a``a`a``ba``aaba`a`a``a``aaaba`aabb```aaaabbaa`a``a``aa`ba``a`aaba`a``a`a`a```abb`ab`a`a`a``aaaaaaabaaba`aba",
"b```a```a`aba````ab`aa``a``aa`a`aab```a``abba`bb``aabaaabab`bbaa`bb`a``aaa`ab`a``a`ab```a``a```a`a`aaab`a`````a`aaab`abaab``aaaa",
"`a`a``aaa`````a`a`aabb`a`a`aaaaaaaba`a``a``a```aaaab````aaa`a`aaba`a``a`aa```a``a````a`a``a`aaa```aabb`a`abaab```ab`ab```a`a`abb",
"``a``aaab`a``a```a`b`a``````aba`aab`a``a``a``a`aa`aaa`a``b```aaab`a`aaaaab`aa`a``a`a``a``a```aa`a``aa`a``a`aaba`a``a``aaaabaa``a",
"a`aaaaa`aaaba`a`a``a``a`a`aaa``bb`a``a``aa`aaa``bab`b``a`a`aaaaba``aaabab`a`ba`aa`a`a`aaa`a`a````a`aab`aaab``a```a``a`aab`baaba`",
"`aab`b```baa``````a``aaaaaaa`ab`a``aaaaaa`aaa`ab``aaba``a`aab`bb`aaaab``aaabaab`ba```aab`aaa``a`aaaabb```a`aa`aaa``aaabba`a`a```",
"aaba`aab`a```a`aaaaaaaaab`bbab`a``abbab`b``b`a`a`a`a```a```ab``aaaabba`a``ab`aaa``aaaa``ababa`aabbab``a`a`a``a`a``aaa`ba```aaba`",
"`a``aab`a``a`ba``a``a`bba`a`a`a`a```a`a``a`aabbbaaaaba``a`a``a`aa`aba``aa`bba`bba``ab`ba``ab```a`aab`a```a``b``b`aaa`b``a`a`aa`b",
"``a`aba``a``aa`aaaba`ba````a`````a`a``aa``aaba``aab```a````a``a`abab`a`a`ba``a`a`aa`ba`aba`a`aaa`ab```a`a```a`a`a`abba`a```aa`ba",
"`a`aab`a```aabaaa``aab``aab``a`aaa```a`baaab```aaba``a``a`aaa``a`aaaa`aaab``a```aa````aab`aaaabbab`aa``a`a`a```a`aab````a`a`aab`",
"`a`aaba`a`a``aabbba`aba`aaaaaaa`ba``a``aaab``aa``a``aabaaaaa`ba`a`ba`aab`a`a`a`a`a```a`a`aaabba`aaaa``a`aaa`a`a`ababaa`a`aaaa`ba",
"a``a`````a`a``bba``a`aaaaab`b```a`b``a````ba```a`abaaabababab````a`abbba``a`````aaba`aaa`abb`a`a``bba`aaaba`aa````aa``aaaaab`ab`",
"`a``a`ba````a`a``a`ab``b`ab`a`a`a`a`a`a`aaba`a``a`aa`ba`aababa`a``a`ba`abaaba`a``ab`abbbaba`a```a`aaaa`bbaabaaba`aabaaab`bbaaba`",
"```aab``a`a``aaa``aaaaaaa`b`````aaba```aaba```a``aaba````a`ab`a``a``a`aab`a``a``aaba``aaab````a`aaab`baaaab``bb`aaab``aa`a`aab`a",
"a`aaa``a`aa`aaab`a`abbb`abaa`a`aaba```aaa`ab`a``a`ab``aaaa`aba``a``a````aa``a`a`aaaaaa``a``a`a`aa`ba```bab`a`a`a`abaaabba```aba`",
"`a`aab``aaa`aa`ba```a`aabb``a```ab`aaa```aa```a``aaba``aa`bba``a``aaaaa`aba`ab```abbbaaaab``a``aa`b`a`a``ba```a``a`aab`a``a`aa``",
"aaaabba``abab`ab`a`a````aaa``a`aaaa`aba`aba`aaaaaaaa`aaabba``a``a``aa`````a`aba`a`a`aabbba`a`aaaba```a`a`a`a`a`a``aab`a`aabaa`aa",
"b`baba``a```aab`a```a`a`aa`a`aaa``b``b```a`````babbbaaabb``a``a``aaabbba`aa`ab`aab`a`aba``aaaaa`aaba`````````````aa`ba```aaab```",
"a`aab``a`a`aaaba`a`a`aaaabab```a`baab`a`a`aaba`aab`a`bb`a`a``aaaaaa`b`a``aabb`a`aba`aa```a`abab`bb``a`aaaaa`a`a`a``ab``aaabba`a`",
"`aaa``a`````ab``````aab`b`a``a``ba``a``a```aa`a`ba``a`a``a``a`a`b`aba``a`aaba````aaaaa``a`aaa`b`a`a``aaaaab``a`a`a```a`aaaba```a",
"b`ba```a`a`aa``a`a`a``a`a`aba`aaa`a``a``a`aabbaba`a``a`a``a``aaba`ab`a``aaba`a`aaa`bbbab`aababa``aaaaaa`baba``aab`a`a`aabab`a`a`",
"a`aaba``a``aabaab`a`aa`a`aab``aa```aa`a``aaa`aab```a````aa`a`aab`aab``a``ab`````aab`aaaba``a`a`a`aaab`bbaab``aaaba````aaba`a````",
"`a``a``a``aaab`aba```abbaaaaaaa`aaaabaaaaaa`a``aa`a``a`a`ab```a`aab`aa``a``a`a`aaaaaaaba``aaaab`aa``b``a`bba`aaab``a`a`ab`a`aa`a",
"```aabab`aaab`aa``a`a`a``b``ab`bbabbaaa`a`bb`abab``a``a```a`a`aa`ba`ab`a``a```aaa`bb`a```a``bbaaababaa``a`a`a`aba`a```aaaaaa`ba`",
"`a`aaa`baa`ba```aaa````a`aaa`ba`a`aaabbabba`a`aaaaa`a``a`aaaaaabba```a``a``aaaaabba`a`a`a`a`a``abaab``a``aa``aabab`a`aaabbb`ab`a",
"``aababa``ab``aaabbba`a``aa`b``a``abba``b``a`a`bbbb``a``aab`b`aba``a```a``aab`ba```a`abab``a``a``aab`a``aa`aaabaab``aaab`a`aa`a`",
"aaaa`ab``aa`aaa`ba`a`a``a`ab``a``aaba`a`a`a``ab`a`a`a`a`aa``a`ab``a`a`a`aaaa``a```a`aaaab`a``a`aab`ba``a`ab`a`aa```a`a`ba`a`abaa",
"`abb`ba`aaa`ababa``````a``a`````a`aa```a`a``a``a```a`````aaaaaa``a```a``aabb````a`aaa`baa```a``aaba``a``a`aa`b`ab`a``aa`````ab`b",
"a`ba`a`aaa``ba`b`a`aaa``aaaba`a``a``a`aa``a``a``aaaaa`a`aabb`ba```a`a`a``aba`a`aaaaabb```ba``a`aba`aaaa``aab```aa``aaaba`a`aaba`",
"aba```aab`ab```aaaaabaaaaaab`a``a``a``aab``a``aaaabbaaaaa`ba`a``aa``````a`aaaaaabb`bb`a`ab`a``aab``aa`ba`aab``a``aaaa`a`aaaab`aa",
"b``a`a`a`ab`a`a``a`baaaba``aaaaa``a`aa`ab`a`a`aabbaaab`baba````a`baa`a`a`a`b`bab`a`a`a`a``a``a``a`aa`ab``aa``a`aabba`bba`b`b`aaa",
"`a````aaba```a`a`ab`a`bb`baaa`ba`a``abba`a````aabaaaba`aab``a`a`abab``a````a`a``a```aa`aa``a```aaaaaa`ba`aa`aaaab`aaba``a`aaaa`b",
"``a`a`aababa````aabaaba`a``bbba```a``a``a`a`a`a``aab````a``a```aa``a`a`a`aa```aa`aaaabaa`a``a`aababbbba`a``ab``baaaab`a`aaab`aba",
"`aaa`aabaab`a`aaabaab``a`a`a`a``a``a```a```aaa`a`aba`aaba```a`aaab``aa`aaa`a`aa`a`aa`ba```a``aaa`aba`a```a`abab`aabab`aa``b`ab``",
"a`aaaabaab`a`aaaab`a``a```a```aabab`a`a`aab`b``abab``aa``aba`aa`baaaa`a``b``a`abbababa```a`aaa`bab``a``a``aab`aaaba`ba`aaaba``a`",
"a`ab`b``aa```aab`aaa`a``a``a`a`a`a```````a`aaaab`aa`a`abaa````a``aab`b`b`a`ab``a```ab`a`aba`ba`aa``a`aa``a`aaaaab```a``a`b```aaa",
"b``a`a`a`aaaaabaab``aba``a``a`a``aba`a`aaa`abb`a```aaaab`aba`aabaab``a`a``aaba``a`aaba`aabaab`a`a```aa`a`````bbba`a``a``a`a`aaab",
"`a``````a`bbabaaba``a`aaa`a````aaba```aaa``ba`a``a``babaaab``aa`ab`a``a``aab``a``aabaaaabaaba````aaaab`aaa`a`aa````a``a``aaaa`ab",
"a`a`aaa`a``a`aab```aabbaab``a`a``a`aaaa`baba`a`aa``aa``aaba`aaababa``a`aaba``a`a`aab`b``aaab``a`ababb`a```b`a``aaaa``a`a`a`b`bab",
"``````aab````aa`a`aaaba`ba`a```aaa``baaba`a````ab`aaababb````ab`a```a```a`aa``````a``aaab`a`aaa``a``a```aba```a`a```a`````a``aab",
"a`a`a`a`a`a`a`ba`aaab``aaab`a`a`a`aba`b``a`a`a``a``aba`a`a`aaaaaaba``a`a`a``a`a`aaabaa`b```ababa``aaba`aa``a`a`aabab`a`a`a`abaa`",
"`a```aa`b``a`a````bb`aaabba``a`aabb```a`a```a``a``abb```aaaaabbb```a``a```b``aa``aab`ab`a`aaaab``a`abaaaaab`````a`aa``a```aaaabb",
"aaaaaaaba`a```a`a`aaaaab`a`aaaaab``a`a`aabaa`ba`a`aaa`aaabab`baa``a``a``a`a`a`aba``a`aaa`a`abbb`aaaabaab`baa`a`a`a``aaaaaaaa`ba`",
"`a`a`a`a`a`ba``a`a`abab`a``a`ab`ba``a```ab`a```````abaaabaaba```a``ba``a`a``a``b``aaba`b```abaa``a`baab``aabaaa````a`b`b`a`bab``",
"aa``b`b`aa```a``a`bba`a``aaa``ba``a``a`aa`a``a`a`aa`b`````ab`a```a`a`a````a`a`aba`aa`aba`a``a``aa````a``a`aba`ba`a`aba`aab`aa``a",
"a`aba````a``a``a``a```aaaaabab``a``a``aaa`a`a```a`aa`a`aaaaa``aaa`a```a`a`aaabaaaaa`ab````a``a```aa`aa`a`aab`a``a`aab`aab`a``aaa",
"ba`b``a`aaba``a`aa`a`aab`abaa``a`aaaaaaa`bba`aba`aaba`a``b`bbaa`ab```a`a``aab```ba```a`a`a`a``a`aaa`a`a`aab`a`ab`aabaaab`a``abb`",
"`aba`a```a``aaaaaba``aa`abb`bba`aab`b`abba``aa````aa````a``a`a`ba`a`a``aaaab`a`aaabaab``aa```a```a`bb```bba``aabaab``aba``a`a`a`",
"aa``a`a`a`a``b`bba`aaa``ba`aa`aaaba`aaaba`a`aaba`aabaaaa`a``aa```aba`a`aa`ba``aabb``bbaaaba`a`a`a`ba`a`a`a`aaab`a`a`aab`a``a`a`a",
"baab```````aba``a`aaa`aba````aabb``a```a```aab```aab`bab```a``aba`a```aabb``aaab`a`aa`aa`b`````a``a````aab``aba``aabaa```a```ab`",
"a``aaa`a`aaaaaaa`aabbbab``a`a`a``aaa````aaaabaab`a`a`a`aaaa`aaabaaab`a```a`a``aba````a`a`a`aaaaaaa``a`a`aaaa`a``aa`aaa``a``a`a``",
"``ab`baaaaa`bb`baaba`aaba``a``a`a`ab`a`a`ab```a`a```````b``aaabaaaa`aaa`a```aaab`a`a```aab```abab`a``a``abb`a``aaa``b`baaaaaa``a",
"aaaba``b`abba``aaab```aa`a``a``abaab``a`abba`aab`a`a`aaa``aabbaabb`ba`b``a`a`aaba```aaaabba`a```aaba``a``a`a`a``b`aba```ab`b`a``"
};
