/* XPM */
static char * ballbirth3_xpm[] = {
/* width height ncolors chars_per_pixel */
"20 19 5 1",
/* colors */
" 	s None	c None",
".	c #1E00A1",
"X	c #3800C4",
"o	c #4400FF",
"O	c #3000EF",
/* pixels */
"      ........      ",
"    ...XXXXXXX..    ",
"  ...XXooooooOXX..  ",
"  ...XXooooooOXX..  ",
" ...Xoo      ooOXX. ",
" ...o          oXX. ",
"..XXo          oOOX.",
"..oo            ooX.",
"..oo            ooX.",
"..oo            ooX.",
"..oo            ooX.",
"..oo            ooX.",
"....o          oXX..",
" ...o          oXX. ",
" ....oo      ooX... ",
"  .....ooooooX....  ",
"  .....ooooooX....  ",
"    ............    ",
"      ........      "};
