/* XPM */
static char * ballbirth8_xpm[] = {
/* width height ncolors chars_per_pixel */
"20 19 6 1",
/* colors */
" 	s None	c None",
".	c #1E00A1",
"X	c #3800C4",
"o	c #3000EF",
"O	c #4000FF",
"+	c #4400FF",
/* pixels */
"      ........      ",
"    ..XXXXXXX...    ",
"  ..XXooooooXXX...  ",
"  ..XXooooooXXX...  ",
" .XXooOOOoooooXX... ",
" .XXoO++OOOOooXX... ",
".XooO++++OOOOooXXX..",
".XooO++++OOOOooXXX..",
".XooOO++++++OooXXX..",
".XooOO++++++OooXXX..",
".XoooOOO++++oooXXX..",
".XXXooOOOoooooXXXX..",
"..XXooooooooooXX....",
" .XXXXooooooXXXX... ",
" ...XXXXXXXXXXX.... ",
"  ....XXXXXXX.....  ",
"  ....XXXXXXX.....  ",
"    ............    ",
"      ........      "};
