/* XPM */
static char * ball2_xpm[] = {
/* width height ncolors chars_per_pixel */
"20 19 12 1",
/* colors */
" 	s None	c None",
".	c white",
"X	c #3000A9",
"o	c #A91700",
"O	c #1A0084",
"+	c #2C00DC",
"@	c #CC2C00",
"#	c #3D00F2",
"$	c #E83E00",
"%	c #F85F00",
"&	c #4400FE",
"*	c #840000",
/* pixels */
"      ........      ",
"    ..XXXooooO..    ",
"  ..XX++@+++XXXO..  ",
"  .OXX++@+++XXXOO.  ",
" .XX++#$#+++++XXOO. ",
" .XX+#%&####++XXOO. ",
".X++#&%&&####++XXX*.",
".X++#&&%&####++XooO.",
".o++##%&$####+@XooO.",
".o++##%&$####+@XooO.",
".o+++$###$$$@@+oooO.",
".X@@++$##+++++XXXX*.",
".O@@+$@+++++++XXOO*.",
" .XX@X+@++++XXXXOO. ",
" .OOXXXXoXXXXXXOOO. ",
"  .OOOXXoXXXXOOOO.  ",
"  ..OOXXoXXXXOOO..  ",
"    ..O*OOOOOO..    ",
"      ........      "};
