/* XPM */
static char * ballbirth2_xpm[] = {
/* width height ncolors chars_per_pixel */
"20 19 3 1",
/* colors */
" 	s None	c None",
".	c #1E00A1",
"X	c #4400FF",
/* pixels */
"      ........      ",
"    ..XXXXXXXX..    ",
"  ..XX        XX..  ",
"  ..XX        XX..  ",
" .XX            XX. ",
" .XX            XX. ",
".X                X.",
".X                X.",
".X                X.",
".X                X.",
".X                X.",
".X                X.",
".X                X.",
" .XX            XX. ",
" .XX            XX. ",
"  ..XX        XX..  ",
"  ..XX        XX..  ",
"    ..XXXXXXXX..    ",
"      ........      "};
