/* XPM */
static char * ballbirth4_xpm[] = {
/* width height ncolors chars_per_pixel */
"20 19 6 1",
/* colors */
" 	s None	c None",
".	c #1E00A1",
"X	c #3800C4",
"o	c #4400FF",
"O	c #3000EF",
"+	c #4000FF",
/* pixels */
"      ........      ",
"    ............    ",
"  ....XXXXXXX.....  ",
"  ....XXXXXXX.....  ",
" ...XXXooooooXX.... ",
" .XXXXo      oXX... ",
"..XXOo        oX....",
".XXXo          oXX..",
".XOOo          oXX..",
".XOOo          oXX..",
".XOOo          oXX..",
".XOOo          oXX..",
".XOOOo        oXXX..",
" .XXO+o      oXX... ",
" .XXOOOooooooOXX... ",
"  ..XXOOOOOOXXX...  ",
"  ..XXOOOOOOXXX...  ",
"    ..XXXXXXX...    ",
"      ........      "};
