/* XPM */
static char * ballbirth5_xpm[] = {
/* width height ncolors chars_per_pixel */
"20 19 6 1",
/* colors */
" 	s None	c None",
".	c #1E00A1",
"X	c #3800C4",
"o	c #3000EF",
"O	c #4000FF",
"+	c #4400FF",
/* pixels */
"      ........      ",
"    ...XXXXXXX..    ",
"  ...XXXooooooXX..  ",
"  ...XXXooooooXX..  ",
" ...XXoooooOOOooXX. ",
" ...XXo+++++++OoXX. ",
"..XXXo+      ++OooX.",
"..XXX+        +OooX.",
"..XXX+        +OooX.",
"..XXX+        +OooX.",
"..XXX+        +oooX.",
"..XXX+        +oXXX.",
"....XX+      +ooXX..",
" ...XXX++++++oXXXX. ",
" ....XXXXXXXXXXX... ",
"  .....XXXXXXX....  ",
"  .....XXXXXXX....  ",
"    ............    ",
"      ........      "};
