/* XPM */
static char * ballbirth6_xpm[] = {
/* width height ncolors chars_per_pixel */
"20 19 6 1",
/* colors */
" 	s None	c None",
".	c #1E00A1",
"X	c #3800C4",
"o	c #3000EF",
"O	c #4000FF",
"+	c #4400FF",
/* pixels */
"      ........      ",
"    ..XXXXXXX...    ",
"  ..XXooooooXXX...  ",
"  ..XXooooooXXX...  ",
" .XXooOOOoooooXX... ",
" .XXoO++OOOOooXX... ",
".XooO+++++++OooXXX..",
".XooO+++    +ooXXX..",
".XooOO+      +oXXX..",
".XooOO+      +oXXX..",
".XoooO+      +oXXX..",
".XXXooO+    +oXXXX..",
"..XXoooo++++ooXX....",
" .XXXXooooooXXXX... ",
" ...XXXXXXXXXXX.... ",
"  ....XXXXXXX.....  ",
"  ....XXXXXXX.....  ",
"    ............    ",
"      ........      "};
