/* XPM */
static char * ball3_xpm[] = {
/* width height ncolors chars_per_pixel */
"20 19 12 1",
/* colors */
" 	s None	c None",
".	c white",
"X	c #3000A9",
"o	c #A91700",
"O	c #1A0084",
"+	c #2C00DC",
"@	c #CC2C00",
"#	c #3D00F2",
"$	c #4400FE",
"%	c #E83E00",
"&	c #F85F00",
"*	c #840000",
/* pixels */
"      ........      ",
"    ..XoXXXXXO..    ",
"  ..XX++@+++XoXO..  ",
"  .OXX++@+++XoXOO.  ",
" .XX++###@@@@+XXOO. ",
" .XX+#$$%###++XXOO. ",
".X++#$$&$####++XXXO.",
".X++#$&$$####++XXXO.",
".X++#%$&#####++XXXO.",
".X++#%$&#####++XXXO.",
".X++@###%###+@+XXXO.",
".ooo++###@@@@+ooXXO.",
".OXX++++++++@+XX**O.",
" .XXXX+++@@@XXXX**. ",
" .OOXXXXoXXXXXXOOO. ",
"  .OOOXXoXXXXOOOO.  ",
"  ..OOXXoXXXXOOO..  ",
"    ..OOO***OO..    ",
"      ........      "};
