/* XPM */
static char * ballbirth1_xpm[] = {
/* width height ncolors chars_per_pixel */
"20 19 2 1",
/* colors */
" 	s None	c None",
".	c #4400FF",
/* pixels */
"      ........      ",
"    ..        ..    ",
"  ..            ..  ",
"  ..            ..  ",
" .                . ",
" .                . ",
".                  .",
".                  .",
".                  .",
".                  .",
".                  .",
".                  .",
".                  .",
" .                . ",
" .                . ",
"  ..            ..  ",
"  ..            ..  ",
"    ..        ..    ",
"      ........      "};
