/* XPM */
static char * blackhitblock_xpm[] = {
"50 30 9 1",
" 	s None	c None",
".	c #8B8B9999B5B5",
"X	c black",
"o	c gray26",
"O	c gray50",
"+	c red4",
"@	c red3",
"#	c red2",
"$	c red1",
"  ..............................................  ",
" X..............................................X ",
"..X............................................Xoo",
"...XXXXXXXXXXXXXXXXXXXXXXXXXXXXXXXXXXXXXXXXXXXXooo",
"...XOOOOOOOOOOOOOOOOOOOOOOOOOOOOOOOOOOOOOOOOOOXooo",
"...XOOOOOOOOOOOOOOOOOOOOOOOOOOOOOOOOOOOOOOOOOOXooo",
"...XOOOOOOOOOOOOOOOOOOOOOOOOOOOOOOOOOOOOOOOOOOXooo",
"...XOOOOOOOOOOOOOOOOOOOOOOOOOOOOOOOOOOOOOOOOOOXooo",
"...XOOOOOOooooooooooooooooooooooooooooooOOOOOOXooo",
"...XOOOOOOoXXXXXXXXXXXXXXXXXXXXXXXXXXXX.OOOOOOXooo",
"...XOOOOOOoX++++++++++++++++++++++++++X.OOOOOOXooo",
"...XOOOOOOoX+@@@@@@@@@@@@@@@@@@@@@@@@+X.OOOOOOXooo",
"...XOOOOOOoX+@######################@+X.OOOOOOXooo",
"...XOOOOOOoX+@######################@+X.OOOOOOXooo",
"...XOOOOOOoX+@#$$$$$$$$$$$$$$$$$$$$#@+X.OOOOOOXooo",
"...XOOOOOOoX+@#$$$$$$$$$$$$$$$$$$$$#@+X.OOOOOOXooo",
"...XOOOOOOoX+@######################@+X.OOOOOOXooo",
"...XOOOOOOoX+@######################@+X.OOOOOOXooo",
"...XOOOOOOoX+@@@@@@@@@@@@@@@@@@@@@@@@+X.OOOOOOXooo",
"...XOOOOOOoX++++++++++++++++++++++++++X.OOOOOOXooo",
"...XOOOOOOoXXXXXXXXXXXXXXXXXXXXXXXXXXXX.OOOOOOXooo",
"...XOOOOOOo.............................OOOOOOXooo",
"...XOOOOOOOOOOOOOOOOOOOOOOOOOOOOOOOOOOOOOOOOOOXooo",
"...XOOOOOOOOOOOOOOOOOOOOOOOOOOOOOOOOOOOOOOOOOOXooo",
"...XOOOOOOOOOOOOOOOOOOOOOOOOOOOOOOOOOOOOOOOOOOXooo",
"...XOOOOOOOOOOOOOOOOOOOOOOOOOOOOOOOOOOOOOOOOOOXooo",
"...XXXXXXXXXXXXXXXXXXXXXXXXXXXXXXXXXXXXXXXXXXXXooo",
"..XooooooooooooooooooooooooooooooooooooooooooooXoo",
" XooooooooooooooooooooooooooooooooooooooooooooooX ",
"  oooooooooooooooooooooooooooooooooooooooooooooo  "};
