/* XPM */
static char * blueblock_xpm[] = {
"40 20 4 1",
" 	c None",
".	c #49499898FFFF",
"X	c blue1",
"o	c blue3",
"  ....................................  ",
" ...................................... ",
"...XXXXXXXXXXXXXXXXXXXXXXXXXXXXXXXXXX.oo",
"..XXXXXXXXXXXXXXXXXXXXXXXXXXXXXXXXXXXXoo",
"..XXXXXXXXXXXXXXXXXXXXXXXXXXXXXXXXXXXXoo",
"..XXXXXXXXXXXXXXXXXXXXXXXXXXXXXXXXXXXXoo",
"..XXXXXXXXXXXXXXXXXXXXXXXXXXXXXXXXXXXXoo",
"..XXXXXXXXXXXXXXXXXXXXXXXXXXXXXXXXXXXXoo",
"..XXXXXXXXXXXXXXXXXXXXXXXXXXXXXXXXXXXXoo",
"..XXXXXXXXXXXXXXXXXXXXXXXXXXXXXXXXXXXXoo",
"..XXXXXXXXXXXXXXXXXXXXXXXXXXXXXXXXXXXXoo",
"..XXXXXXXXXXXXXXXXXXXXXXXXXXXXXXXXXXXXoo",
"..XXXXXXXXXXXXXXXXXXXXXXXXXXXXXXXXXXXXoo",
"..XXXXXXXXXXXXXXXXXXXXXXXXXXXXXXXXXXXXoo",
"..XXXXXXXXXXXXXXXXXXXXXXXXXXXXXXXXXXXXoo",
"..XXXXXXXXXXXXXXXXXXXXXXXXXXXXXXXXXXXXoo",
"..XXXXXXXXXXXXXXXXXXXXXXXXXXXXXXXXXXXXoo",
"..oXXXXXXXXXXXXXXXXXXXXXXXXXXXXXXXXXXooo",
" oooooooooooooooooooooooooooooooooooooo ",
"  oooooooooooooooooooooooooooooooooooo  "};
