/* XPM */
static char * bombblock_xpm[] = {
"30 30 4 1",
" 	s None	c None",
".	c tan",
"X	c white",
"o	c black",
"                              ",
"                              ",
"                              ",
"                              ",
"              .               ",
"              .               ",
"              .               ",
"              .               ",
"              .               ",
"            XXXXX             ",
"            XoooX             ",
"           XXoooXX            ",
"         XXoooooooXX          ",
"        XoooooooooooX         ",
"       XoooXoooooooooX        ",
"       XooXoXooooooooX        ",
"      XooXoXooooooooooX       ",
"      XoooXoooooooooooX       ",
"      XoooooooooooooooX       ",
"      XoooooooooooooooX       ",
"      XoooooooooooooooX       ",
"      XoooooooooooooooX       ",
"      XoooooooooooooooX       ",
"       XoooooooooooooX        ",
"       XoooooooooooooX        ",
"        XoooooooooooX         ",
"         XXoooooooXX          ",
"           XXXXXXX            ",
"                              ",
"                              "};
