/* XPM */
static char *bonus4_xpm[] = {
"27 27 3 1",
" 	s None	c None",
".	c gold",
"X	c black",
"         .........         ",
"       .............       ",
"     ......XXXXX......     ",
"    ....XXXXXXXXXXX....    ",
"   ....XXXXXXXXXXXXX....   ",
"  ...XXXXXXXXXXXXXXXXX...  ",
"  ...XXXXXXXXXXXXXXXXX...  ",
" ...XXXXXXXXXXXXXXXXXXX... ",
" ..XXXXXXXXXXXX....XXXXX.. ",
"...XXXXXX...XX......XXXX...",
"...XXXXX........XX...XXX...",
"..XXXXX...XX...XXXX..XXXX..",
"..XXXXX..XXXX..XXXX..XXXX..",
"..XXXXX..XXXX..XXXX..XXXX..",
"..XXXXX..XXXX..XXXX..XXXX..",
"..XXXXX..XXXX..XXXX..XXXX..",
"...XXXX..XXXX..XXXX..XXX...",
"...XXXX..............XXX...",
" ..XXXX..............XXX.. ",
" ...XXXXXXXXXXXXXXXXXXX... ",
"  ...XXXXXXXXXXXXXXXXX...  ",
"  ...XXXXXXXXXXXXXXXXX...  ",
"   ....XXXXXXXXXXXXX....   ",
"    ....XXXXXXXXXXX....    ",
"     ......XXXXX......     ",
"       .............       ",
"         .........         "};
