/* XPM */
static char *bonus3_xpm[] = {
"27 27 3 1",
" 	s None	c None",
".	c gold",
"X	c black",
"         .........         ",
"       .............       ",
"     ......XXXXX......     ",
"    ....XXXXXXXXXXX....    ",
"   ....XXXXXXXXXXXXX....   ",
"  ...XXXXXXXXXXXXXXXXX...  ",
"  ...XXXXX.........XXX...  ",
" ...XXXXX..........XXXX... ",
" ..XXXXX...XXXXXX..XXXXX.. ",
"...XXXXX..XXXXXXX..XXXXX...",
"...XXXXX..XXXXXXX..XXXXX...",
"..XXXXXX...XXXXXX..XXXXXX..",
"..XXXXXXX..........XXXXXX..",
"..XXXXXXXX.........XXXXXX..",
"..XXXXXXXX..XXXXX..XXXXXX..",
"..XXXXXXX..XXXXXX..XXXXXX..",
"...XXXXXX..XXXXXX..XXXXX...",
"...XXXXXX...XXXXX..XXXXX...",
" ..XXXXXXX.........XXXXX.. ",
" ...XXXXXXX........XXXX... ",
"  ...XXXXXXXXXXXXXXXXX...  ",
"  ...XXXXXXXXXXXXXXXXX...  ",
"   ....XXXXXXXXXXXXX....   ",
"    ....XXXXXXXXXXX....    ",
"     ......XXXXX......     ",
"       .............       ",
"         .........         "};
