/* XPM */
static char *bonus2_xpm[] = {
"27 27 3 1",
" 	s None	c None",
".	c gold",
"X	c black",
"         .........         ",
"       .............       ",
"     ......XXXXX......     ",
"    ....XXXXXXXXXXX....    ",
"   ....XXXXXXXXXXXXX....   ",
"  ...XXXXXXXXXXXXXXXXX...  ",
"  ...XXXXXXXXXXXXXXXXX...  ",
" ...XXXXXXXXXXXXXXXXXXX... ",
" ..XXX..............XXXX.. ",
"...XXX..............XXXX...",
"...XXX..XXXX..XXXX..XXXX...",
"..XXXX..XXXX..XXXX..XXXXX..",
"..XXXX..XXXX..XXXX..XXXXX..",
"..XXXX..XXXX..XXXX..XXXXX..",
"..XXXX..XXXX..XXXX..XXXXX..",
"..XXXX..XXXX...XX...XXXXX..",
"...XXX...XX........XXXXX...",
"...XXXX......XX...XXXXXX...",
" ..XXXXX....XXXXXXXXXXXX.. ",
" ...XXXXXXXXXXXXXXXXXXX... ",
"  ...XXXXXXXXXXXXXXXXX...  ",
"  ...XXXXXXXXXXXXXXXXX...  ",
"   ....XXXXXXXXXXXXX....   ",
"    ....XXXXXXXXXXX....    ",
"     ......XXXXX......     ",
"       .............       ",
"         .........         "};
