/* XPM */
static char *bonus1_xpm[] = {
"27 27 3 1",
" 	s None	c None",
".	c gold",
"X	c black",
"         .........         ",
"       .............       ",
"     ......XXXXX......     ",
"    ....XXXXXXXXXXX....    ",
"   ....XXXXXXXXXXXXX....   ",
"  ...XXXXXXXXXXXXXXXXX...  ",
"  ...XXXXXXXXXXXXXXXXX...  ",
" ...XXXX........XXXXXXX... ",
" ..XXXXX.........XXXXXXX.. ",
"...XXXXX..XXXXX...XXXXXX...",
"...XXXXX..XXXXXX..XXXXXX...",
"..XXXXXX..XXXXXX..XXXXXXX..",
"..XXXXXX..XXXXX..XXXXXXXX..",
"..XXXXXX.........XXXXXXXX..",
"..XXXXXX..........XXXXXXX..",
"..XXXXXX..XXXXXX...XXXXXX..",
"...XXXXX..XXXXXXX..XXXXX...",
"...XXXXX..XXXXXXX..XXXXX...",
" ..XXXXX..XXXXXX...XXXXX.. ",
" ...XXXX..........XXXXX... ",
"  ...XXX.........XXXXX...  ",
"  ...XXXXXXXXXXXXXXXXX...  ",
"   ....XXXXXXXXXXXXX....   ",
"    ....XXXXXXXXXXX....    ",
"     ......XXXXX......     ",
"       .............       ",
"         .........         "};
