/* XPM */
static char * bullet_xpm[] = {
"7 16 8 1",
" 	s None	c None",
".	c black",
"X	c #C6C6D5D5E2E2",
"o	c gray80",
"O	c #8B8B9999B5B5",
"+	c gray40",
"@	c #B7B7B7B7B7B7",
"#	c gray50",
"   .   ",
"  .X.  ",
" .XoO. ",
".XoOO+.",
".......",
".Xo@#+.",
".Xo@#+.",
".Xo@#+.",
".Xo@#+.",
".Xo@#+.",
".Xo@#+.",
".Xo@#+.",
".Xo@#+.",
".Xo@#+.",
".......",
" ..... "};
