/* XPM */
static char * clock_xpm[] = {
"21 21 5 1",
" 	s None	c None",
".	c black",
"X	c gray50",
"o	c #B7B7B7B7B7B7",
"O	c yellow",
"       .......       ",
"     ..XXXXXXX..     ",
"    .XXoooOoooXX.    ",
"   .XoooooooooooX.   ",
"  .Xoooooo.ooooooX.  ",
" .Xooooooo.oooooooX. ",
" .Xooooooo.oooooooX. ",
".Xoooooooo.ooooooooX.",
".Xoooooooo.ooooooooX.",
".Xoooooooo.ooooooooX.",
".XOooooooo.oooooooOX.",
".Xoooooooo.ooooooooX.",
".Xooooooooo.oooooooX.",
".Xoooooooooo.ooooooX.",
" .Xoooooooooo.ooooX. ",
" .Xooooooooooo.oooX. ",
"  .XoooooooooooooX.  ",
"   .XoooooooooooX.   ",
"    .XXoooOoooXX.    ",
"     ..XXXXXXX..     ",
"       .......       "};
