/* XPM */
static char * counterblock5_xpm[] = {
"40 20 5 1",
" 	s None	c None",
".	c pink",
"X	c pink2",
"o	c pink3",
"O	c pink4",
"  ....................................  ",
" ...................................... ",
"...XXXXXXXXXXXXXXXXXXXXXXXXXXXXXXXXXXooo",
"..XXXXXXXXXXXXXXOOOOOOOOXXXXXXXXXXXXXXoo",
"..XXXXXXXXXXXXXXOOOOOOOOXXXXXXXXXXXXXXoo",
"..XXXXXXXXXXXXXXOOOXXXXXXXXXXXXXXXXXXXoo",
"..XXXXXXXXXXXXXXOOOXXXXXXXXXXXXXXXXXXXoo",
"..XXXXXXXXXXXXXXOOOOOOOXXXXXXXXXXXXXXXoo",
"..XXXXXXXXXXXXXXOOOOOOOOXXXXXXXXXXXXXXoo",
"..XXXXXXXXXXXXXXOOOXXOOOOXXXXXXXXXXXXXoo",
"..XXXXXXXXXXXXXXXXXXXXOOOXXXXXXXXXXXXXoo",
"..XXXXXXXXXXXXXXXXXXXXOOOXXXXXXXXXXXXXoo",
"..XXXXXXXXXXXXXXOOOXXXOOOXXXXXXXXXXXXXoo",
"..XXXXXXXXXXXXXXOOOXXOOOOXXXXXXXXXXXXXoo",
"..XXXXXXXXXXXXXXOOOOOOOOXXXXXXXXXXXXXXoo",
"..XXXXXXXXXXXXXXXOOOOOOXXXXXXXXXXXXXXXoo",
"..XXXXXXXXXXXXXXXXXXXXXXXXXXXXXXXXXXXXoo",
"..oXXXXXXXXXXXXXXXXXXXXXXXXXXXXXXXXXXooo",
" .ooooooooooooooooooooooooooooooooooooo ",
"  oooooooooooooooooooooooooooooooooooo  "};
