/* XPM */
static char * counterblock4_xpm[] = {
"40 20 5 1",
" 	s None	c None",
".	c pink",
"X	c pink2",
"o	c pink3",
"O	c pink4",
"  ....................................  ",
" ...................................... ",
"...XXXXXXXXXXXXXXXXXXXXXXXXXXXXXXXXXXooo",
"..XXXXXXXXXXXXXXXXXXOOOXXXXXXXXXXXXXXXoo",
"..XXXXXXXXXXXXXXXXXOOOOXXXXXXXXXXXXXXXoo",
"..XXXXXXXXXXXXXXXXOOOOOXXXXXXXXXXXXXXXoo",
"..XXXXXXXXXXXXXXXOOOOOOXXXXXXXXXXXXXXXoo",
"..XXXXXXXXXXXXXXXOOXOOOXXXXXXXXXXXXXXXoo",
"..XXXXXXXXXXXXXXOOOXOOOXXXXXXXXXXXXXXXoo",
"..XXXXXXXXXXXXXXOOXXOOOXXXXXXXXXXXXXXXoo",
"..XXXXXXXXXXXXXOOOXXOOOXXXXXXXXXXXXXXXoo",
"..XXXXXXXXXXXXXOOOOOOOOOXXXXXXXXXXXXXXoo",
"..XXXXXXXXXXXXXOOOOOOOOOXXXXXXXXXXXXXXoo",
"..XXXXXXXXXXXXXXXXXXOOOXXXXXXXXXXXXXXXoo",
"..XXXXXXXXXXXXXXXXXXOOOXXXXXXXXXXXXXXXoo",
"..XXXXXXXXXXXXXXXXXXOOOXXXXXXXXXXXXXXXoo",
"..XXXXXXXXXXXXXXXXXXXXXXXXXXXXXXXXXXXXoo",
"..oXXXXXXXXXXXXXXXXXXXXXXXXXXXXXXXXXXooo",
" .ooooooooooooooooooooooooooooooooooooo ",
"  oooooooooooooooooooooooooooooooooooo  "};
