/* XPM */
static char * counterblock3_xpm[] = {
"40 20 5 1",
" 	s None	c None",
".	c pink",
"X	c pink2",
"o	c pink3",
"O	c pink4",
"  ....................................  ",
" ...................................... ",
"...XXXXXXXXXXXXXXXXXXXXXXXXXXXXXXXXXXooo",
"..XXXXXXXXXXXXXXXXOOOOOXXXXXXXXXXXXXXXoo",
"..XXXXXXXXXXXXXXXOOOOOOOXXXXXXXXXXXXXXoo",
"..XXXXXXXXXXXXXXOOOXXOOOXXXXXXXXXXXXXXoo",
"..XXXXXXXXXXXXXXOOOXXXOOXXXXXXXXXXXXXXoo",
"..XXXXXXXXXXXXXXXXXXXOOOXXXXXXXXXXXXXXoo",
"..XXXXXXXXXXXXXXXXXOOOOXXXXXXXXXXXXXXXoo",
"..XXXXXXXXXXXXXXXXXOOOOOXXXXXXXXXXXXXXoo",
"..XXXXXXXXXXXXXXXXXXXOOOOXXXXXXXXXXXXXoo",
"..XXXXXXXXXXXXXXXXXXXXOOOXXXXXXXXXXXXXoo",
"..XXXXXXXXXXXXXXOOOXXXOOOXXXXXXXXXXXXXoo",
"..XXXXXXXXXXXXXXOOOXXOOOOXXXXXXXXXXXXXoo",
"..XXXXXXXXXXXXXXXOOOOOOOXXXXXXXXXXXXXXoo",
"..XXXXXXXXXXXXXXXXOOOOOXXXXXXXXXXXXXXXoo",
"..XXXXXXXXXXXXXXXXXXXXXXXXXXXXXXXXXXXXoo",
"..oXXXXXXXXXXXXXXXXXXXXXXXXXXXXXXXXXXooo",
" .ooooooooooooooooooooooooooooooooooooo ",
"  oooooooooooooooooooooooooooooooooooo  "};
