/* XPM */
static char * counterblock1_xpm[] = {
"40 20 5 1",
" 	s None	c None",
".	c pink",
"X	c pink2",
"o	c pink3",
"O	c pink4",
"  ....................................  ",
" ...................................... ",
"...XXXXXXXXXXXXXXXXXXXXXXXXXXXXXXXXXXooo",
"..XXXXXXXXXXXXXXXXXOOOXXXXXXXXXXXXXXXXoo",
"..XXXXXXXXXXXXXXXXOOOOXXXXXXXXXXXXXXXXoo",
"..XXXXXXXXXXXXXXOOOOOOXXXXXXXXXXXXXXXXoo",
"..XXXXXXXXXXXXXXOOOOOOXXXXXXXXXXXXXXXXoo",
"..XXXXXXXXXXXXXXXXXOOOXXXXXXXXXXXXXXXXoo",
"..XXXXXXXXXXXXXXXXXOOOXXXXXXXXXXXXXXXXoo",
"..XXXXXXXXXXXXXXXXXOOOXXXXXXXXXXXXXXXXoo",
"..XXXXXXXXXXXXXXXXXOOOXXXXXXXXXXXXXXXXoo",
"..XXXXXXXXXXXXXXXXXOOOXXXXXXXXXXXXXXXXoo",
"..XXXXXXXXXXXXXXXXXOOOXXXXXXXXXXXXXXXXoo",
"..XXXXXXXXXXXXXXXXXOOOXXXXXXXXXXXXXXXXoo",
"..XXXXXXXXXXXXXXXXXOOOXXXXXXXXXXXXXXXXoo",
"..XXXXXXXXXXXXXXXXXOOOXXXXXXXXXXXXXXXXoo",
"..XXXXXXXXXXXXXXXXXXXXXXXXXXXXXXXXXXXXoo",
"..oXXXXXXXXXXXXXXXXXXXXXXXXXXXXXXXXXXooo",
" .ooooooooooooooooooooooooooooooooooooo ",
"  oooooooooooooooooooooooooooooooooooo  "};
