/* XPM */
static char * counterblock2_xpm[] = {
"40 20 5 1",
" 	s None	c None",
".	c pink",
"X	c pink2",
"o	c pink3",
"O	c pink4",
"  ....................................  ",
" ...................................... ",
"...XXXXXXXXXXXXXXXXXXXXXXXXXXXXXXXXXXooo",
"..XXXXXXXXXXXXXXXXOOOOOXXXXXXXXXXXXXXXoo",
"..XXXXXXXXXXXXXXXOOOOOOOXXXXXXXXXXXXXXoo",
"..XXXXXXXXXXXXXXOOOXXXOOOXXXXXXXXXXXXXoo",
"..XXXXXXXXXXXXXXOOOXXXOOOXXXXXXXXXXXXXoo",
"..XXXXXXXXXXXXXXXXXXXXOOOXXXXXXXXXXXXXoo",
"..XXXXXXXXXXXXXXXXXXXOOOXXXXXXXXXXXXXXoo",
"..XXXXXXXXXXXXXXXXXOOOOOXXXXXXXXXXXXXXoo",
"..XXXXXXXXXXXXXXXXOOOOOXXXXXXXXXXXXXXXoo",
"..XXXXXXXXXXXXXXXOOOOXXXXXXXXXXXXXXXXXoo",
"..XXXXXXXXXXXXXXXOOOXXXXXXXXXXXXXXXXXXoo",
"..XXXXXXXXXXXXXXOOOXXXXXXXXXXXXXXXXXXXoo",
"..XXXXXXXXXXXXXXOOOOOOOOOXXXXXXXXXXXXXoo",
"..XXXXXXXXXXXXXXOOOOOOOOOXXXXXXXXXXXXXoo",
"..XXXXXXXXXXXXXXXXXXXXXXXXXXXXXXXXXXXXoo",
"..oXXXXXXXXXXXXXXXXXXXXXXXXXXXXXXXXXXooo",
" .ooooooooooooooooooooooooooooooooooooo ",
"  oooooooooooooooooooooooooooooooooooo  "};
