/* XPM */
static char * death3_xpm[] = {
"30 30 7 1",
" 	s None	c None",
".	c ivory",
"X	c red",
"o	c red2",
"O	c black",
"+	c yellow",
"@	c red3",
"                              ",
"    ..                 ..     ",
"    ...               ...     ",
"  ....                 ....   ",
"  .....    XXXXXXo    .....   ",
"   . ... XXooooooooo ... .    ",
"      .XXoooooooooooo..       ",
"       Xoooooooooooooo        ",
"       XoOOOoooooOOOoo        ",
"      XoOO+OOoooOO+OOoo       ",
"      XoO+++OoooO+++Ooo       ",
"      o@OO+OOoooOO+OO@o       ",
"      oo@OOO@ooo@OOO@oo       ",
"      ooo@@@ooOoo@@@ooo       ",
"      oooooooOOOooooooo       ",
"      oooooooOOOooooooo       ",
"       oooooOO@OOooooo        ",
"       oooooO@@@Oooooo        ",
"      ..o@@ooooooo@@o..       ",
"   . ... ooooooooooo ... .    ",
"  .....  oO@O@O@O@Oo  .....   ",
"  ....   o@OOOOOOO@o   ....   ",
"    ...  oO@O@O@O@Oo  ...     ",
"    ..   ooooooooooo   ..     ",
"          ooooooooo           ",
"                              ",
"                              ",
"                              ",
"                              ",
"                              "};
