/* XPM */
static char * death1_xpm[] = {
"30 30 6 1",
" 	s None	c None",
".	c ivory",
"X	c red",
"o	c red2",
"O	c black",
"+	c red3",
"                              ",
"    ..                 ..     ",
"    ...               ...     ",
"  ....                 ....   ",
"  .....    XXXXXXo    .....   ",
"   . ... XXooooooooo ... .    ",
"      .XXoooooooooooo..       ",
"       Xoooooooooooooo        ",
"       XoOOOoooooOOOoo        ",
"      XoOOOOOoooOOOOOoo       ",
"      XoOOOOOoooOOOOOoo       ",
"      o+OOOOOoooOOOOO+o       ",
"      oo+OOO+ooo+OOO+oo       ",
"      ooo+++ooOoo+++ooo       ",
"      oooooooOOOooooooo       ",
"      oooooooOOOooooooo       ",
"       oooooOO+OOooooo        ",
"       oooooO+++Oooooo        ",
"      ..o++ooooooo++o..       ",
"   . ... ooooooooooo ... .    ",
"  .....  oO+O+O+O+Oo  .....   ",
"  ....   o+OOOOOOO+o   ....   ",
"    ...  oO+O+O+O+Oo  ...     ",
"    ..   ooooooooooo   ..     ",
"          ooooooooo           ",
"                              ",
"                              ",
"                              ",
"                              ",
"                              "};
