/* XPM */
static char * digit5_xpm[] = {
"30 40 2 1",
" 	c None",
".	c red",
"                              ",
"                              ",
"                              ",
"                              ",
"    .......................   ",
"   . .....................    ",
"   .. ...................     ",
"   ... .................      ",
"   .... ...............       ",
"   .....                      ",
"   .....                      ",
"   .....                      ",
"   .....                      ",
"   .....                      ",
"   .....                      ",
"   .....                      ",
"   .....                      ",
"   .....                      ",
"   .....                      ",
"   .... ...............       ",
"   ... .................      ",
"      ...................     ",
"       ................. ...  ",
"        ............... ....  ",
"                       .....  ",
"                       .....  ",
"                       .....  ",
"                       .....  ",
"                       .....  ",
"                       .....  ",
"                       .....  ",
"                       .....  ",
"                       .....  ",
"        ............... ....  ",
"       ................. ...  ",
"      ................... ..  ",
"     ..................... .  ",
"    .......................   ",
"                              ",
"                              "};
