/* XPM */
static char * digit2_xpm[] = {
"30 40 2 1",
" 	c None",
".	c red",
"                              ",
"                              ",
"                              ",
"                              ",
"    .......................   ",
"     ..................... .  ",
"      ................... ..  ",
"       ................. ...  ",
"        ............... ....  ",
"                       .....  ",
"                       .....  ",
"                       .....  ",
"                       .....  ",
"                       .....  ",
"                       .....  ",
"                       .....  ",
"                       .....  ",
"                       .....  ",
"                       .....  ",
"        ............... ....  ",
"       ................. ...  ",
"      ...................     ",
"   ... .................      ",
"   .... ...............       ",
"   .....                      ",
"   .....                      ",
"   .....                      ",
"   .....                      ",
"   .....                      ",
"   .....                      ",
"   .....                      ",
"   .....                      ",
"   .....                      ",
"   .... ...............       ",
"   ... .................      ",
"   .. ...................     ",
"   . .....................    ",
"    .......................   ",
"                              ",
"                              "};
