/* XPM */
static char * digit0_xpm[] = {
"30 40 2 1",
" 	c None",
".	c red",
"                              ",
"                              ",
"                              ",
"                              ",
"    .......................   ",
"   . ..................... .  ",
"   .. ................... ..  ",
"   ... ................. ...  ",
"   .... ............... ....  ",
"   .....               .....  ",
"   .....               .....  ",
"   .....               .....  ",
"   .....               .....  ",
"   .....               .....  ",
"   .....               .....  ",
"   .....               .....  ",
"   .....               .....  ",
"   .....               .....  ",
"   .....               .....  ",
"   ....                 ....  ",
"   ...                   ...  ",
"                              ",
"   ...                   ...  ",
"   ....                 ....  ",
"   .....               .....  ",
"   .....               .....  ",
"   .....               .....  ",
"   .....               .....  ",
"   .....               .....  ",
"   .....               .....  ",
"   .....               .....  ",
"   .....               .....  ",
"   .....               .....  ",
"   .... ............... ....  ",
"   ... ................. ...  ",
"   .. ................... ..  ",
"   . ..................... .  ",
"    .......................   ",
"                              ",
"                              "};
