/* XPM */
static char * digit4_xpm[] = {
"30 40 2 1",
" 	c None",
".	c red",
"                              ",
"                              ",
"                              ",
"                              ",
"                              ",
"   .                       .  ",
"   ..                     ..  ",
"   ...                   ...  ",
"   ....                 ....  ",
"   .....               .....  ",
"   .....               .....  ",
"   .....               .....  ",
"   .....               .....  ",
"   .....               .....  ",
"   .....               .....  ",
"   .....               .....  ",
"   .....               .....  ",
"   .....               .....  ",
"   .....               .....  ",
"   .... ............... ....  ",
"   ... ................. ...  ",
"      ...................     ",
"       ................. ...  ",
"        ............... ....  ",
"                       .....  ",
"                       .....  ",
"                       .....  ",
"                       .....  ",
"                       .....  ",
"                       .....  ",
"                       .....  ",
"                       .....  ",
"                       .....  ",
"                        ....  ",
"                         ...  ",
"                          ..  ",
"                           .  ",
"                              ",
"                              ",
"                              "};
