/* XPM */
static char * emptydigit_xpm[] = {
"32 30 2 1",
" 	c #B2B2C0C0DCDC",
".	c None",
"  ..  ..  ..  ..  ..  ..  ..  ..",
"  ..  ..  ..  ..  ..  ..  ..  ..",
"................................",
"................................",
"  ..  ..  ..  ..  ..  ..  ..  ..",
"  ..  ..  ..  ..  ..  ..  ..  ..",
"................................",
"................................",
"  ..  ..  ..  ..  ..  ..  ..  ..",
"  ..  ..  ..  ..  ..  ..  ..  ..",
"................................",
"................................",
"  ..  ..  ..  ..  ..  ..  ..  ..",
"  ..  ..  ..  ..  ..  ..  ..  ..",
"................................",
"................................",
"  ..  ..  ..  ..  ..  ..  ..  ..",
"  ..  ..  ..  ..  ..  ..  ..  ..",
"................................",
"................................",
"  ..  ..  ..  ..  ..  ..  ..  ..",
"  ..  ..  ..  ..  ..  ..  ..  ..",
"................................",
"................................",
"  ..  ..  ..  ..  ..  ..  ..  ..",
"  ..  ..  ..  ..  ..  ..  ..  ..",
"................................",
"................................",
"  ..  ..  ..  ..  ..  ..  ..  ..",
"  ..  ..  ..  ..  ..  ..  ..  .."};
