/* XPM */
static char * exblueblock1_xpm[] = {
"40 20 4 1",
" 	c None",
".	c #49499898FFFF",
"X	c blue",
"o	c mediumblue",
"    ......  ....  ....  ...  ....  ...  ",
"  .....   ....  ....  ...  ....  ...  . ",
"...XX  XXXX   XXXX  XXX  XXXX  XXX  X.o ",
"..   XXXX  XXXX   XXX  XXXX  XXX  XXX  o",
"  XXXXX  XXXX  XXXX  XXXX  XXX  XXX  Xoo",
"..XX   XXXX  XXXX  XXXX  XXX  XXX  XXX  ",
"..  XXXXX  XXXX  XXXX  XXX  XXX  XXX  oo",
"  XXXX   XXX   XXXX  XXX  XXX  XXX  XXoo",
"..XX  XXXX  XXXX   XXX  XXX  XXX  XXXX  ",
"..  XXXX  XXXX  XXXX  XXX  XXX  XXXX  oo",
"  XXXX  XXXX  XXXX  XXX  XXX  XXXX  XXoo",
"..XX  XXXX  XXXX  XXX  XXX  XXXX  XXXX  ",
"..  XXXX  XXXX  XXX  XXX  XXXX  XXXX  oo",
"  XXXX  XXXX  XXX  XXX  XXXX  XXXX  XXoo",
"..XX  XXXX  XXX  XXX  XXXX  XXXX  XXXX  ",
"..  XXXX  XXX  XXX  XXXX  XXX   XXXX  oo",
"  XXXX  XXX  XXX  XXXX  XXX  XXXXX  XXoo",
"..oX  XXX  XXX  XXXX  XXX  XXXX   XXXo  ",
" o  ooo  ooo  oooo  ooo  oooo  oooo   o ",
"  oooo ooo  oooo  ooo  oooo  oooo  ooo  "};
