/* XPM */
static char * exblueblock2_xpm[] = {
"40 20 4 1",
" 	c None",
".	c #49499898FFFF",
"X	c blue",
"o	c mediumblue",
"    ....    ..    ..    .    ..    ..   ",
"  ...     ..    ..    .    ..    ..   . ",
"..     XX     XX    X    XX    XX   X   ",
"     XX    XX     X    XX    XX   X    o",
"  XX     XX    XX    XX    XX   X    Xo ",
"..     XX    XX    XX    XX   X    XX   ",
"    XX     X     XX    XX   X    XX   oo",
"  XX     X     XX    XX   X    XX   XXo ",
"..    XX    XX     XX   X    XX   XXX   ",
"    XX    XX    XXX   X    XX   XXX   oo",
"  XX    XX    XXX   XX   XX   XXX   XX  ",
"..    XX    XXX   XX   XX   XXX   XX    ",
"    XX    XXX   XX   XX   XXX   XX    oo",
"  XX    XXX   XX   XX   XXX   XX    XX  ",
"..    XXX   XX   XX   XXX   XX    XX    ",
"    XXX   XX   XX   XXX   XX    XX    oo",
"  XXX   XX   XX   XXX   XX   XXX    XX  ",
"..o   XX   XX   XXX   XX   XXX    XX    ",
"    oo   oo   ooo   oo   ooo   ooo    o ",
"  ooo  oo   ooo   oo   ooo   ooo   oo   "};
