/* XPM */
static char * exblueblock3_xpm[] = {
"40 20 4 1",
" 	c None",
".	c #49499898FFFF",
"X	c blue",
"o	c mediumblue",
"    .  .           .    .     .         ",
"  .                        .          . ",
".                        XX         X   ",
"           X            X         X    o",
"  X      X     XX    X          X    X  ",
".            XX    XX         X         ",
"    X      X     XX                   o ",
"  X      X     XX                   X   ",
".     XX    XX                    X     ",
"     X    XX      X             X     o ",
"  XX     X      X             X     X   ",
"..     X      X             X     X     ",
"            X             X     X     o ",
"  X       X   X         X     X     X   ",
"..          X               X     X     ",
"      X   X               X     X      o",
"    X   X               X    XX      X  ",
"  o                   X    XX     X     ",
"    o               o    oo    o      o ",
"  oo   o    o     o    oo    oo    oo   "};
