/* XPM */
static char * exbombblock3_xpm[] = {
"30 30 5 1",
" 	s None	c None",
".	c red",
"X	c yellow",
"o	c black",
"O	c white",
"                              ",
"  ...    .    XXX    X        ",
"  ...        XXXXX      .     ",
"  ...       X...XXX  X ...    ",
"        .   .....XX.    .     ",
"       .XXXX.....XX..         ",
"        XXXX.....X....        ",
"    .   XX.XX...X.....  .   . ",
"        XXXXX.....XXX.     ...",
"   ...  XXXXX....XX.XX X    . ",
"  ..X..... .....XXXXXXX       ",
" ...X.....X.....XXXXXXXX      ",
" ........X.......XXX..XX      ",
" ...X....X.......XXXXXXX.  .  ",
"  ..X....X.......XXXXXX....   ",
"   .....XXX.....XXXXXX.....   ",
"       ..XXX...XXXXXX.......  ",
"    .   oXXXXXXXXX......X...  ",
"         XXXXXXXXX........XX. ",
" .        XXXXXXX..........X. ",
"...   O...  o.............X.. ",
" .    XXXXX  o....X...X.X.X.  ",
"  .  .XXX.X.  ....XXXXX.....  ",
" ... .XX.XX. o....XXXXX....   ",
"  .  .X.XXX................   ",
"      XXXX......  .......     ",
"       .........o  O...    .  ",
" .        ...... O   .      X ",
"...  .    ......    ...  .    ",
" .        .....      .        "};
