/* XPM */
static char * exbombblock1_xpm[] = {
"30 30 6 1",
" 	s None	c None",
".	c red",
"X	c yellow",
"o	c tan",
"O	c white",
"+	c black",
"                              ",
"                  .           ",
"           .  X .X            ",
"           X .X.              ",
"          .  X.X              ",
"             .o.   .          ",
"          . . o .             ",
"           X  o  X            ",
"              o               ",
"            OOOOO             ",
"            O+++O             ",
"           OO+++OO            ",
"         OO+++++++OO          ",
"        O+++++++++++O         ",
"       O+++O+++++++++O        ",
"       O++O+O++++++++O        ",
"      O++O+O++++++++++O       ",
"      O+++O+++++++++++O       ",
"      O+++++++++++++++O       ",
"      O+++++++++++++++O       ",
"      O+++++++++++++++O       ",
"      O+++++++++++++++O       ",
"      O+++++++++++++++O       ",
"       O+++++++++++++O        ",
"       O+++++++++++++O        ",
"        O+++++++++++O         ",
"         OO+++++++OO          ",
"           OOOOOOO            ",
"                              ",
"                              "};
