/* XPM */
static char * exbombblock2_xpm[] = {
"30 30 6 1",
" 	s None	c None",
".	c red",
"X	c yellow",
"o	c tan",
"O	c white",
"+	c black",
"                              ",
"                              ",
"         .    .               ",
"          .X.   X       .     ",
"         .XXX..  .            ",
"         ..X... X             ",
"     .   .........  .         ",
"         .... oX  XX    .     ",
"              o    .          ",
".     .    XOOOOO             ",
"          XXX+.+.XXX  .       ",
"           XO++.XXXXX...      ",
"         X.X.+++XX.XX .       ",
"      ...XXX....XXXXX         ",
"   .  ...XXX.....XXX+O .      ",
"      ...+O+O.....+++.      . ",
"      O+XXXO+..XXX++...       ",
"      OXXXXX++.X.X+++.O       ",
"      OXX.XX+++XXX.+X+.   .   ",
"      .XXXXX..+.....++.       ",
"      O.XXX.+++.....+...      ",
"      O+++++.++.....+X.       ",
"  .   O+++X+++XXX..+XXX       ",
"       .+XXX++XXX+.+XX        ",
"      ...XX+..XXX++++O  .     ",
"       .O++..X......O         ",
"         OO.XXX......         ",
"     .     ..X......   .      ",
"            ...               ",
"                              "};
