/* XPM */
static char * excounterblock1_xpm[] = {
"40 20 4 1",
" 	s None	c None",
".	c pink",
"X	c pink2",
"o	c pink3",
"  .......   .........     ....     ...  ",
" ........   .........     ....     .... ",
"...   XXXXXXXXX     XX   XXXXX     XXooo",
"..     XXXXXXXX     XXXXXXXXXX     XXXoo",
"..     XXXXXXXX     XXXXXXXXXXXXXXXX   o",
"..     XX   XXX     XXXXXXX   XXXXX     ",
"..X   XX     XX     XXXXXX     XXXX     ",
"..XXXXXX     XXXXXXXXXXXX       XXX     ",
"..XXXXXX     XXXXXXXXXXXX       XXXX   o",
"..XXXXXXX   XXXXXXXXXXXXX       XXXXXXoo",
" .XXXXXXXXXXXXXXXXXXXXXXXX     XXXXXXXoo",
"  XXXXXXXXXXXXX   XXXXXXXXX   XXXXXXXXoo",
" .XXXXXXXXXXXX     XXXXXXXXXXXXXXXXXXXoo",
"..XXX   XXXXX       XXXXXXXXXXXXXXXXXXoo",
"..XX     XXXX       XXXXXXXXXXXXXXXXXXoo",
"..XX     XXXX       XXXXXXXXXXXXXXXXXXoo",
"..XX     XXXXX     XXXXXXXXXXXX XXXXXXoo",
"..oXX   XXXXXXX   XXXXXXXXXXXX   XXXXooo",
" .ooooooooooooooooooooo ooooooo ooooooo ",
"  oooooooooooooooooooo   ooooooooooooo  "};
