/* XPM */
static char * excounterblock2_xpm[] = {
"40 20 4 1",
" 	s None	c None",
".	c pink",
"X	c pink2",
"o	c pink3",
"      ...        ....     ....       .  ",
"      ...        ....        .        . ",
".     XXXXXX        X                  o",
"..     XXXXX                           o",
"..     XXXXX                  XX       o",
"..     XX   XXX               XXX       ",
".     XX     X                 XXX      ",
".     XX        XXXX            XXX     ",
".     XX     X XXXXXX   X       XX     o",
".     XX     XXX   XXXXXX       XX   Xoo",
"      XX     XXX   XXX   X     XXX   Xoo",
"  XXXXXX     XX    XX     X      X   Xoo",
" .XXXXXX     X     XX     XXX         oo",
"..                  X     XX          oo",
"..       XX         XX   XXX           o",
"..       X          XXXXXXXX            ",
"..XX               XXXXX   XX           ",
"..oX    X         X   X     XX          ",
" .o   ooo       ooo   o     ooo oo      ",
"  oo ooooo     oooo         ooooooo     "};
