/* XPM */
static char * excounterblock3_xpm[] = {
"40 20 4 1",
" 	s None	c None",
".	c pink",
"X	c pink2",
"o	c pink3",
"      .          .                   .  ",
"      .          .                    . ",
".     X   XX                            ",
"..         X                            ",
"                              X        o",
"            X                           ",
"                                        ",
".                 X                     ",
".     X                                o",
".     XX                               o",
"                               XXX      ",
"  X          XX           X      X      ",
" .X          X            XXX           ",
".                                       ",
".        XX                            o",
"         X                              ",
"                   XX                   ",
"   X              X                     ",
" .                    o       o         ",
"  oo oo  o     oo            oo   o     "};
