/* XPM */
static char * exdeath2_xpm[] = {
"30 30 6 1",
" 	s None	c None",
".	c ivory",
"X	c red",
"o	c red2",
"O	c black",
"+	c red3",
"                              ",
"                              ",
"                              ",
"                              ",
"                              ",
"                              ",
"        ..          ..        ",
"      ...           ...       ",
"       ... Xoooooo ..         ",
"         .Xoooooooo.          ",
"          oOOoooOOoo          ",
"         XOOOOoOOOOo          ",
"         oOOOOoOOOO+          ",
"         o+OO+ooOO+o          ",
"         oooooOOoooo          ",
"         oooooOOoooo          ",
"          oooO+Ooooo          ",
"         .o+ooooo+o.          ",
"      .... o+OOO+X  ...       ",
"      ...  oOOOOO+  ...       ",
"        .  ooooooo  ..        ",
"            oooooo            ",
"                              ",
"                              ",
"                              ",
"                              ",
"                              ",
"                              ",
"                              ",
"                              "};
