/* XPM */
static char * exgreenblock3_xpm[] = {
"40 20 4 1",
" 	c None",
".	c #9292FFFFAAAA",
"X	c green",
"o	c aquamarine4",
"    .   .   .   .   .   .   .   .   .   ",
"    .   .   .   .   .   .   .   .   .   ",
".   X   X   X   X   X   X   X   X   X   ",
".   X   X   X   X   X   X   X   X   X   ",
".   X   X   X   X   X   X   X   X   X   ",
".   X   X   X   X   X   X   X   X   X   ",
".   X   X   X   X   X   X   X   X   X   ",
".   X   X   X   X   X   X   X   X   X   ",
".   X   X   X   X   X   X   X   X   X   ",
".   X   X   X   X   X   X   X   X   X   ",
".   X   X   X   X   X   X   X   X   X   ",
".   X   X   X   X   X   X   X   X   X   ",
".   X   X   X   X   X   X   X   X   X   ",
".   X   X   X   X   X   X   X   X   X   ",
".   X   X   X   X   X   X   X   X   X   ",
".   X   X   X   X   X   X   X   X   X   ",
".   X   X   X   X   X   X   X   X   X   ",
".   X   X   X   X   X   X   X   X   X   ",
"    o   o   o   o   o   o   o   o   o   ",
"    o   o   o   o   o   o   o   o   o   "};
