/* XPM */
static char * exgreenblock1_xpm[] = {
"40 20 4 1",
" 	c None",
".	c #9292FFFFAAAA",
"X	c green",
"o	c aquamarine4",
"  . ... ... ... ... ... ... ... ... ..  ",
" .. ... ... ... ... ... ... ... ... ... ",
"... XXX XXX XXX XXX XXX XXX XXX XXX Xoo ",
"..X XXX XXX XXX XXX XXX XXX XXX XXX XXo ",
"..X XXX XXX XXX XXX XXX XXX XXX XXX XXo ",
"..X XXX XXX XXX XXX XXX XXX XXX XXX XXo ",
"..X XXX XXX XXX XXX XXX XXX XXX XXX XXo ",
"..X XXX XXX XXX XXX XXX XXX XXX XXX XXo ",
"..X XXX XXX XXX XXX XXX XXX XXX XXX XXo ",
"..X XXX XXX XXX XXX XXX XXX XXX XXX XXo ",
"..X XXX XXX XXX XXX XXX XXX XXX XXX XXo ",
"..X XXX XXX XXX XXX XXX XXX XXX XXX XXo ",
"..X XXX XXX XXX XXX XXX XXX XXX XXX XXo ",
"..X XXX XXX XXX XXX XXX XXX XXX XXX XXo ",
"..X XXX XXX XXX XXX XXX XXX XXX XXX XXo ",
"..X XXX XXX XXX XXX XXX XXX XXX XXX XXo ",
"..X XXX XXX XXX XXX XXX XXX XXX XXX XXo ",
"..o XXX XXX XXX XXX XXX XXX XXX XXX Xoo ",
" oo ooo ooo ooo ooo ooo ooo ooo ooo ooo ",
"  o ooo ooo ooo ooo ooo ooo ooo ooo oo  "};
