/* XPM */
static char * exgreenblock2_xpm[] = {
"40 20 4 1",
" 	c None",
".	c #9292FFFFAAAA",
"X	c green",
"o	c aquamarine4",
"    ..  ..  ..  ..  ..  ..  ..  ..  ..  ",
" .  ..  ..  ..  ..  ..  ..  ..  ..  ..  ",
"..  XX  XX  XX  XX  XX  XX  XX  XX  Xo  ",
"..  XX  XX  XX  XX  XX  XX  XX  XX  XX  ",
"..  XX  XX  XX  XX  XX  XX  XX  XX  XX  ",
"..  XX  XX  XX  XX  XX  XX  XX  XX  XX  ",
"..  XX  XX  XX  XX  XX  XX  XX  XX  XX  ",
"..  XX  XX  XX  XX  XX  XX  XX  XX  XX  ",
"..  XX  XX  XX  XX  XX  XX  XX  XX  XX  ",
"..  XX  XX  XX  XX  XX  XX  XX  XX  XX  ",
"..  XX  XX  XX  XX  XX  XX  XX  XX  XX  ",
"..  XX  XX  XX  XX  XX  XX  XX  XX  XX  ",
"..  XX  XX  XX  XX  XX  XX  XX  XX  XX  ",
"..  XX  XX  XX  XX  XX  XX  XX  XX  XX  ",
"..  XX  XX  XX  XX  XX  XX  XX  XX  XX  ",
"..  XX  XX  XX  XX  XX  XX  XX  XX  XX  ",
"..  XX  XX  XX  XX  XX  XX  XX  XX  XX  ",
"..  XX  XX  XX  XX  XX  XX  XX  XX  Xo  ",
" o  oo  oo  oo  oo  oo  oo  oo  oo  oo  ",
"    oo  oo  oo  oo  oo  oo  oo  oo  oo  "};
