/* XPM */
static char * expurpleblock3_xpm[] = {
"40 20 4 1",
" 	c None",
".	c purple1",
"X	c purple4",
"o	c purple",
"  .                                  .  ",
" ..                                  .. ",
"...                                  .XX",
"..o                                  oXX",
"..o                                  oXX",
"..o                                  oXX",
"..o                                  oXX",
"..o                                  oXX",
"..o                                  oXX",
"..o                                  oXX",
"..o                                  oXX",
"..o                                  oXX",
"..o                                  oXX",
"..o                                  oXX",
"..o                                  oXX",
"..o                                  oXX",
"..o                                  oXX",
"..X                                  XXX",
" XX                                  XX ",
"  X                                  X  "};
