/* XPM */
static char * expurpleblock2_xpm[] = {
"40 20 4 1",
" 	c None",
".	c purple1",
"X	c purple",
"o	c purple4",
"  ......                       .......  ",
" .......                       ........ ",
"...XXXXX                       XXXXXX.oo",
"..XXXXXX                       XXXXXXXoo",
"..XXXXXX                       XXXXXXXoo",
"..XXXXXX                       XXXXXXXoo",
"..XXXXXX                       XXXXXXXoo",
"..XXXXXX                       XXXXXXXoo",
"..XXXXXX                       XXXXXXXoo",
"..XXXXXX                       XXXXXXXoo",
"..XXXXXX                       XXXXXXXoo",
"..XXXXXX                       XXXXXXXoo",
"..XXXXXX                       XXXXXXXoo",
"..XXXXXX                       XXXXXXXoo",
"..XXXXXX                       XXXXXXXoo",
"..XXXXXX                       XXXXXXXoo",
"..XXXXXX                       XXXXXXXoo",
"..oXXXXX                       XXXXXXooo",
" ooooooo                       oooooooo ",
"  oooooo                       ooooooo  "};
