/* XPM */
static char * expurpleblock1_xpm[] = {
"40 20 4 1",
" 	c None",
".	c purple1",
"X	c purple",
"o	c purple4",
"  .............        ...............  ",
" ..............        ................ ",
"...XXXXXXXXXXXX        XXXXXXXXXXXXXX.oo",
"..XXXXXXXXXXXXX        XXXXXXXXXXXXXXXoo",
"..XXXXXXXXXXXXX        XXXXXXXXXXXXXXXoo",
"..XXXXXXXXXXXXX        XXXXXXXXXXXXXXXoo",
"..XXXXXXXXXXXXX        XXXXXXXXXXXXXXXoo",
"..XXXXXXXXXXXXX        XXXXXXXXXXXXXXXoo",
"..XXXXXXXXXXXXX        XXXXXXXXXXXXXXXoo",
"..XXXXXXXXXXXXX        XXXXXXXXXXXXXXXoo",
"..XXXXXXXXXXXXX        XXXXXXXXXXXXXXXoo",
"..XXXXXXXXXXXXX        XXXXXXXXXXXXXXXoo",
"..XXXXXXXXXXXXX        XXXXXXXXXXXXXXXoo",
"..XXXXXXXXXXXXX        XXXXXXXXXXXXXXXoo",
"..XXXXXXXXXXXXX        XXXXXXXXXXXXXXXoo",
"..XXXXXXXXXXXXX        XXXXXXXXXXXXXXXoo",
"..XXXXXXXXXXXXX        XXXXXXXXXXXXXXXoo",
"..oXXXXXXXXXXXX        XXXXXXXXXXXXXXooo",
" oooooooooooooo        oooooooooooooooo ",
"  ooooooooooooo        ooooooooooooooo  "};
