/* XPM */
static char * exredblock1_xpm[] = {
"40 20 4 1",
" 	c None",
".	c red1",
"X	c red4",
"o	c red3",
"                                        ",
"                                        ",
"                                        ",
"    ................................    ",
"   ................................XX   ",
"   ..ooooooooooooooooooooooooooooooXX   ",
"   ..ooooooooooooooooooooooooooooooXX   ",
"   ..ooooooooooooooooooooooooooooooXX   ",
"   ..ooooooooooooooooooooooooooooooXX   ",
"   ..ooooooooooooooooooooooooooooooXX   ",
"   ..ooooooooooooooooooooooooooooooXX   ",
"   ..ooooooooooooooooooooooooooooooXX   ",
"   ..ooooooooooooooooooooooooooooooXX   ",
"   ..ooooooooooooooooooooooooooooooXX   ",
"   ..ooooooooooooooooooooooooooooooXX   ",
"   .XXXXXXXXXXXXXXXXXXXXXXXXXXXXXXXXX   ",
"    XXXXXXXXXXXXXXXXXXXXXXXXXXXXXXXX    ",
"                                        ",
"                                        ",
"                                        "};
