/* XPM */
static char * exredblock3_xpm[] = {
"40 20 4 1",
" 	c None",
".	c red1",
"X	c red3",
"o	c red4",
"                                        ",
"                                        ",
"                                        ",
"                                        ",
"                                        ",
"                                        ",
"                                        ",
"                                        ",
"                ........                ",
"               .XXXXXXXXo               ",
"               .XXXXXXXXo               ",
"                oooooooo                ",
"                                        ",
"                                        ",
"                                        ",
"                                        ",
"                                        ",
"                                        ",
"                                        ",
"                                        "};
