/* XPM */
static char * extanblock3_xpm[] = {
"40 20 4 1",
" 	c None",
".	c tan",
"X	c tan2",
"o	c tan4",
"  ....................................  ",
"                                        ",
"                                        ",
"                                        ",
"..XXXXXXXXXXXXXXXXXXXXXXXXXXXXXXXXXXXXoo",
"                                        ",
"                                        ",
"                                        ",
"..XXXXXXXXXXXXXXXXXXXXXXXXXXXXXXXXXXXXoo",
"                                        ",
"                                        ",
"                                        ",
"..XXXXXXXXXXXXXXXXXXXXXXXXXXXXXXXXXXXXoo",
"                                        ",
"                                        ",
"                                        ",
"..XXXXXXXXXXXXXXXXXXXXXXXXXXXXXXXXXXXXoo",
"                                        ",
"                                        ",
"                                        "};
