/* XPM */
static char * exx2bonus1_xpm[] = {
"27 27 2 1",
" 	s None	c None",
".	c gold",
"                           ",
"                           ",
"                           ",
"           .....           ",
"        ...........        ",
"       .............       ",
"      ...............      ",
"     .................     ",
"    ...................    ",
"    ...................    ",
"    ...................    ",
"   .....................   ",
"   .....................   ",
"   .....................   ",
"   .....................   ",
"   .....................   ",
"    ...................    ",
"    ...................    ",
"    ...................    ",
"     .................     ",
"      ...............      ",
"       .............       ",
"        ...........        ",
"           .....           ",
"                           ",
"                           ",
"                           "};
