/* XPM */
static char * exx2bonus2_xpm[] = {
"27 27 2 1",
" 	s None	c None",
".	c gold",
"                           ",
"                           ",
"                           ",
"                           ",
"                           ",
"                           ",
"             .             ",
"          .......          ",
"        ...........        ",
"        ...........        ",
"       .............       ",
"       .............       ",
"       .............       ",
"      ...............      ",
"       .............       ",
"       .............       ",
"       .............       ",
"        ...........        ",
"        ...........        ",
"          .......          ",
"             .             ",
"                           ",
"                           ",
"                           ",
"                           ",
"                           ",
"                           "};
