/* XPM */
static char * exyellowblock2_xpm[] = {
"40 20 4 1",
" 	c None",
".	c yellow",
"X	c yellow3",
"o	c yellow4",
"  .  .. ... .   .   . ..  . ..  ... .   ",
"  .    ..  . . ..  ..         ..      . ",
"..   X      XX   X    X X        X XXooo",
".    XX  X     X XXX        XX  X XX  o ",
" .X             X      XX X   XX XX X o ",
".  XX   XX      XX    X   XXXX   X X    ",
". X   XX   X X XX   X   X  X  X XX  X  o",
".  X    XXX   X  X  X X    X  XX X X Xo ",
"..X  X X X XX   XX XXX X    X X  XXXX  o",
" .     XX   XX   X  X   X  X      X    o",
"     XX XX        X  X   X   X XX X  X  ",
".. X  X  X  XX X XXX XX  XX X XX XX  Xo ",
".. XXX  X XX X X      X X X XX  X  X   o",
" .X     X X XX   X   XX X X   X     X   ",
"  XX X X   XX  X XX X  XXX X XX XXXXX   ",
"    X XX    XX X    X X  XX XX  X  XXX  ",
"..     XX XX      X   X X  X X XX    X  ",
".        XX  X XXX X  X          X X    ",
"   o o   ooo       oo  ooo    o   o   o ",
"  oo   ooo oo  ooo  o o o  o ooo  oo o  "};
