/* XPM */
static char * exyellowblock3_xpm[] = {
"40 20 4 1",
" 	c None",
".	c yellow",
"X	c yellow3",
"o	c yellow4",
"     .  .             .   . .   .       ",
"                .                       ",
".    X      X         X               o ",
"         X     X             X  X       ",
"                       X         X      ",
"    X    X                         X    ",
"  X    X   X X          X     X  X      ",
"   X          X     X X                 ",
"  X        X     X            X     X   ",
"                           X           o",
"                  X      X   X X  X     ",
".           X                    X    o ",
"    XX                X                o",
"             X   X            X         ",
"   X X                     X    X  X    ",
"       X              X     XX  X   X   ",
".                       X            X  ",
".               X                X X    ",
"                         o    o         ",
"  o              o  o      o       o o  "};
