/* XPM */
static char * exyellowblock1_xpm[] = {
"40 20 4 1",
" 	c None",
".	c yellow",
"X	c yellow3",
"o	c yellow4",
"  .  .. ..... ..... ..........  ......  ",
"  .................... . .... .....  .. ",
"...X XX XX XXXX XXX XXXXXXXXXXXXXX XXooo",
"..X XXXXXXXXXX X XXXXXX X   XXXXX XX  oo",
" .XX X X     XX X XX  XXXXXX  XX XX XXoo",
"..XXXXXXXXX  X  XXXXXXXX XXXXX   X XX oo",
"..X X XXX XX XXXXXXXXX XXXXXX XXXXXXXXoo",
". XXXX XXXXX  XXXX XXXXXXX XX XXXX X Xo ",
"..XXXX X X XX   XX XXX XXXXXXXXX XXXXXoo",
" .X X XXXXXXXXX  XXXX XXXXXX   X  X  Xoo",
" .XX XXXXX XX X   XXXXX  X X X XX XXXXoo",
"..XXXXX  X XXXXXXXXX XXXXXXXX XXXXXXXXoo",
".. XXXX X XXXXXXX   X XXX XXXX  XXXX X o",
"..XXX   X X XX   XXX XXXXXX XXX  X  XXoo",
" .XXXX XXXXXXXXXXXXXX  XXX XXXX XXXXXXoo",
"..XXX XXXX XXX XXXXXX X  XXXXXX XXXXXX o",
"..XX  XXX XXXXX X XX  XXX  X XXXX X  Xoo",
".  XX XXXXX  XXXXXXXXXXXX  XXX XXXXXXoo ",
"   ooooooooooooooo ooooooo oo ooooooooo ",
"  oooo ooo ooo oooooooo oooooooo ooo o  "};
