/* XPM */
static char * flag_xpm[] = {
"71 40 4 1",
" 	s None	c None",
".	c red",
"X	c white",
"o	c royal blue",
".XXXXooooooooX...XooooooooooXX.ooooooooooooooooooooooooooooooooooooooo ",
"X..XXXXooooooX...XooooooooXX..Xooooooooooooooooooooooooooooooooooooooo ",
"oXX..XXXXooooX...XooooooXX..XXXooooooooooooooooooooooooooooooooooooooo ",
"oooXX..XXXXooX...XooooXX..XXXXoooooooooooooooooooooooooooooooooooooooo ",
"oooooXX..XXXXX...XooXX..XXXXoooooooooooooooooooooooooooooooooooooooooo ",
"oooooooXX..XXX...XXX..XXXXoooooooooooooooooooooooooXoooooooooooooooooo ",
"oooooooooXX..X...X..XXXXooooooooooooooooooooooooooXXXooooooooooooooooo ",
"XXXXXXXXXXXXXX...XXXXXXXXXXXXXXooooooooooooooooooXXXXXoooooooooooooooo ",
"...............................oooooooooooooooooooXXXooooooooooooooooo ",
"...............................ooooooooooooooooooooXoooooooooooooooooo ",
"...............................ooooooooooooooooooooooooooooooooooooooo ",
"XXXXXXXXXXXXXX...XXXXXXXXXXXXXXooooooooooooooooooooooooooooooooooooooo ",
"ooooooooXXXX.X...X.XXooooooooooooooooooooooooooooooooooooooooooooooooo ",
"ooooooXXXX..XX...XX..XXooooooooooooooooooooooooooooooooooooooooooooooo ",
"ooooXXXX..XXoX...XXXX..XXooooooooooooooooooooooooooooooooooooooooooooo ",
"ooXXXX..XXoooX...XoXXXX..XXoooooooooooooooooooooooooooooooooXooooooooo ",
"XXXX..XXoooooX...XoooXXXX..XXoooooooooooooXooooooooooooooooXXXoooooooo ",
"XX..XXoooooooX...XoooooXXXX..XXooooooooooXXXooooooooooooooXXXXXooooooo ",
"..XXoooooooooX...XoooooooXXXX..oooooooooXXXXXooooooooooooooXXXoooooooo ",
"oooooooooooooooooooooooooooooooooooooooooXXXooooooooooooooooXooooooooo ",
"ooooooooooooooooooooooooooooooooooooooooooXooooooooooooooooooooooooooo ",
"oooooooooooooooooooooooooooooooooooooooooooooooooooooXoooooooooooooooo ",
"ooooooooooooooooooooooooooooooooooooooooooooooooooooXXXooooooooooooooo ",
"oooooooooooooooooooooooooooooooooooooooooooooooooooooXoooooooooooooooo ",
"oooooooooooooooooooooooooooooooooooooooooooooooooooooooooooooooooooooo ",
"oooooooooooooooXoooooooooooooooooooooooooooooooooooooooooooooooooooooo ",
"ooooooooooooXooXooXooooooooooooooooooooooooooooooooooooooooooooooooooo ",
"oooooooooooooXXXXXoooooooooooooooooooooooooooooooooooooooooooooooooooo ",
"oooooooooooooXXXXXoooooooooooooooooooooooooooooooooooooooooooooooooooo ",
"oooooooooooXXXXXXXXXoooooooooooooooooooooooooooooooooooooooooooooooooo ",
"oooooooooooooXXXXXoooooooooooooooooooooooooooooooooooooooooooooooooooo ",
"oooooooooooooXXXXXoooooooooooooooooooooooooooooooooooooooooooooooooooo ",
"ooooooooooooXooXooXooooooooooooooooooooooooooooooooXoooooooooooooooooo ",
"oooooooooooooooXooooooooooooooooooooooooooooooooooXXXooooooooooooooooo ",
"oooooooooooooooooooooooooooooooooooooooooooooooooXXXXXoooooooooooooooo ",
"ooooooooooooooooooooooooooooooooooooooooooooooooooXXXooooooooooooooooo ",
"oooooooooooooooooooooooooooooooooooooooooooooooooooXoooooooooooooooooo ",
"oooooooooooooooooooooooooooooooooooooooooooooooooooooooooooooooooooooo ",
"oooooooooooooooooooooooooooooooooooooooooooooooooooooooooooooooooooooo ",
"oooooooooooooooooooooooooooooooooooooooooooooooooooooooooooooooooooooo "};
