/* XPM */
static char * guide5_xpm[] = {
"29 12 3 1",
" 	s None	c None",
".	c yellow",
"X	c red",
"            .XXXX            ",
"         X...XXXXXXX         ",
"       XXX...XXXXXXXXX       ",
"     XXXXXX.     XXXXXXX     ",
"    XXXXX           XXXXX    ",
"   XXXX               XXXX   ",
"  XXXX                 XXXX  ",
" XXXX                   XXXX ",
" XXX                     XXX ",
"XXX                       XXX",
"XXX                       XXX",
"XX                         XX"};
