/* XPM */
static char * guide11_xpm[] = {
"29 12 3 1",
" 	s None	c None",
".	c red",
"X	c yellow",
"            .....            ",
"         ...........         ",
"       ...............       ",
"     .......     .......     ",
"    .....           .....    ",
"   ....               ....   ",
"  ....                 ....  ",
" ....                   .... ",
" ...                     ..X ",
"...                       XXX",
"...                       XXX",
"..                         XX"};
