/* XPM */
static char * guide9_xpm[] = {
"29 12 3 1",
" 	s None	c None",
".	c red",
"X	c yellow",
"            .....            ",
"         ...........         ",
"       ...............       ",
"     .......     .....XX     ",
"    .....           .XXXX    ",
"   ....               XXX.   ",
"  ....                 X...  ",
" ....                   .... ",
" ...                     ... ",
"...                       ...",
"...                       ...",
"..                         .."};
