/* XPM */
static char * guide7_xpm[] = {
"29 12 3 1",
" 	s None	c None",
".	c red",
"X	c yellow",
"            ....X            ",
"         .......XXX.         ",
"       .........XXX...       ",
"     .......     X......     ",
"    .....           .....    ",
"   ....               ....   ",
"  ....                 ....  ",
" ....                   .... ",
" ...                     ... ",
"...                       ...",
"...                       ...",
"..                         .."};
