/* XPM */
static char * highscores_xpm[] = {
/* width height ncolors chars_per_pixel */
"377 37 8 1",
/* colors */
" 	s None	c None",
".	c #E8E8E8",
"X	c #BFBFD2",
"o	c #A4A490",
"O	c #A47B90",
"+	c #5E5E5E",
"@	c #7B90A4",
"#	c #4D4D4D",
/* pixels */
"                                                                   ..X...                                                                                              ..X...X..X                             ..X...                                  ..X...X                                                                                                      ..X...X..X            ",
".X...X..X.XX         ..X...X..X.X    ..X...X..X.X               .X.XoO+oo..X.               .X...X..X.XX         ..X...X..X.X                                      X.X.@OOoO+ooX...                        .X.XoO+oo..X.                           .X.XoO+oo..X.                .X...X..X....X...X..X.X              .X...X..X.X.......X...X..X...X            X.X.@OOoO+ooX...          ",
"XoOoOo+o@OoO         XoXOoXOO+oOO    XXXoX++O+OOO            X..ooXO+XO+@oXoO..X            XoOoOo+o@OoO         XoXOoXOO+oOO                                    X.OooooXO+XO+@oXoOX.                   X..ooXO+XO+@oXoO..X                     X..ooXO+XO+@oXoO..X             XooXX+oX#@o@oX+o@OO@OOO..            XoX++O+OOoOXX+oOo@XOoXooXoOOoO          X.OooooXO+XO+@oXoOX.        ",
"XXo@+oO+OoXO         X@oXooXXoOoO    Xoo+OooOoXOO           .XooOX+oXOoooXO@X@O+X           XXo@+oO+OoXO         X@oXooXXoOoO                                  X.OOOooOX+oXOoooXO@X@OXo                .XooOX+oXOoooXO@X@O+X                   .XooOX+oXOoooXO@X@O+XX           XXooOXXooOoooO+O@XOoooXoX.X          X+OooOoXOoXOo@#O@XOOOXXo+XoXXO        X.OOOooOX+oXOoooXO@X@OXo      ",
"XXOOXOoXoo@O         oo#OOoXO+o@O    XOooX+oOOXoO         X.X#@o@oX+o@OO@OOOoOOOO.          XXOOXOoXoo@O         oo#OOoXO+o@O                                 XX+oX#@o@oX+o@OO@OOOoOOOOX             X.X#@o@oX+o@OO@OOOoOOOO.                X.X#@o@oX+o@OO@OOOoOOOOXX          XoOOoOXoXXoXoO@oXOXoXoo@oXOXX        XoX+oOOXoX@XXOXOo#XXOOo@OOOOX+       XX+oX#@o@oX+o@OO@OOOoOOOOX     ",
"XoXooOoOo+oO         XOOO@XOOoXoO    XoOOoO@o@X@O        XXXooOoooO+O@XOoooXoXOXo@O         XoXooOoOo+oO         XOOO@XOOoXoO                                ooOXXooOoooO+O@XOoooXoXOXo@o           XXXooOoooO+O@XOoooXoXOXo@O              XXXooOoooO+O@XOoooXoXOXo@oX         XoOoX+OOXOOOXOOXXO+XoXOOOooooX       XOoO@o@X@OXOooOOXXXoXOXXXXo@XO      ooOXXooOoooO+O@XOoooXoXOXo@o    ",
"X@oO+Xo@oO+O         XoOo@o+oXoOO    XoXOOXXXXoXO       XoOXoXXoXoO@oXOXoXoo@oXOO@X@        X@oO+Xo@oO+O         XoOo@o+oXoOO                               OOOoOXoXXoXoO@oXOXoXoo@oXOO@X@         XoOXoXXoXoO@oXOXoXoo@oXOO@X@            XoOXoXXoXoO@oXOXoXoo@oXOO@X@X        XoXX#X+o+XOO+Xo@X+oO+OOoXOOo+oX      XOOXXXXoXXoXoXOXXXOOOXOXXooOoO     OOOoOXoXXoXoO@oXOXoXoo@oXOO@X@   ",
"XOOXOXOXXXX+         oOX@oOoXOOO+    XOoXXoXXX@o+      XoX+OOXOOOXOOXXO+XoXOOOoooO@Oo       XOOXOXOXXXX+         oOX@oOoXOOO+                               oOoX+OOXOOOXOOXXO+XoXOOOoooO@OO       XoX+OOXOOOXOOXXO@XoXOOOoooO@Oo          XoX+OOXOOOXOOXXo@XoXOOOoooO@Ooo       XO+X#OXoX+XOXoXXOXO+XoXXOooOXXo      XXXoXXX@oOXX@XXXXoOoOo@XoX+OX+     oOoX+OOXOOOXOOXXO+XoXOOOoooO@OO  ",
"oO+XXOOoXXXO         XOOo+XoXXoOO    oOOo+OXoXoXO     oXX#X+o+XOO+XoX###O+OOoXOOo+@OO@      oO+XXOOoXXXO         XOOo+XoXXoOO                              OoXX#X+o+XOO+XoXX+oO+OOoXOOo+@OO      oXX#X+o+XOO+XoX###O@OOoXOOo+@OO@        oXX#X+o+XOO+Xo@###@@OOoXOOo+@OO@o      oooO@XOoXXOoOXX+@OOoXXOo@oXoX@XO     oo+OXoXoXXoOXoXXX+XOoo+OO@OOOO    OoXX#X+o+XOO+XoXX+oO+OOoXOOo+@OO  ",
"XOXOXooOXoOO         ooXoOo+X+oOO    XOXOXXXOXXoO     X+X#OXoX+XOXo#+   +#oXXOooOXXX+X@     XOXOXooOXoOO         ooXoOo+X+oOO                              OO+X#OXoX+XOXO+#+###++XXOooOXXX@+     X+X#OXoX+XOXo#+   +#oXXOooOXXX+X@       X+X#OXoX+XOXo#+   +#oXXOooOXXX+Xo      XoOXOOXooOX+##+##+#Oo@+oXoOoOoXo     XOXXXOXXoXX+########+######+##    OO+X#OXoX+XOXO+#+###++XXOooOXXX@+ ",
"XoOoOXOoO@+O         oXXXoX@OXOoO    XXooXoXOoX+O    oXoO@XOoXXOoO+       +Oo@oXoX@X+X@     XoOoOXOoO@+O         oXXXoX@OXOoO                              oooO@XOoXX+O+         Oo@oXoX@X+O    oXoO@XOoXXOoO+       +Oo@oXoX@X+X@      oXoO@XOoXXOoO+       OOo@oXoX@X+X@o     XOXoXOXoOOo+        oOOOoX+XOO@o     XoXoXOoX+Xo+                      oooO@XOoXX+O+         Oo@oXoX@X+O ",
"oo+XX+XoXX+O         XXOOOXOOoX+O    oO@OXXX@oX@O    ooOXOOXooOXX+         OoXoOoOoXo#O@    oo+XX+XoXX+O         XXOOOXOOoX+O                              +oOXOOXooOXO          +##+##+###+    ooOXOOXooOXX+         OoXoOoOoXo#O@     ooOXOOXooOXX+         OoXoOoOoXo#O@     oOOXOXXOXXX+        #OXOXO+XO@XO     oOXXX@oX@XX+                      +oOXOOXooOXO          +##+##+###+ ",
"XXXXXXXoOXO.......X..X@OOOXoXOOoO    X+OOooXXXXOO    oOXoXOXoOOo+           OoX+XOO@XOo@    XXXXXXXoOXO.......X..X@OOOXoXOOoO                              OOXoXOXoOOoOo                        oOXoXOXoOOo+           OoX+XOO@XOo@     oOXoXOXoOOo+           OoX+XOO@XOo@o    XXoXOXoOOoOO         oooooOXXXO+     XOooXXXXOXX+                      OOXoXOXoOOoOo                     ",
"oXXXXXXXoXOXXoXOOXOOOX@XooXXOOOo+    ooXXooXXoXX+   oXOOXOXXOXXX+           +####+###+##    oXXXXXXXoXOXXoXOOXOOOX@XooXXOOOo+                              +OOXOXXOXXXXooX...X...X             oXOOXOXXOXXX+           O##+######+#    oXOOXOXXOXXXO           @OOX@O@OOOXoO    oOOOXXoXXXO+         XXoOOoXoOOO     oXooXXoXXXOOX.X..X...X...X.       +OOXOXXOXXXXooX...X...X           ",
"XXoXoXX+OXXXXXoOX#OoXoXoooOO+OoXO    XXXXX@oXOOXO   @XXoXOXoOOoO+                           XXoXoXX+OXXXXXoOX#OoXoXoooOO+OoXO                               OoXOXoOOoOOoOOoXOXO#Xo..XX         @XXoXOXoOOoO+                           @XXoXOXoOOoO+           OXOOOX@XooXX@o   XXOOOOoXoOX+        oXXOOXXoO@o+     XXX@oXOOXXoOOXOXOOOXoOO+OO+        OoXOXoOOoOOoOOoXOXO#Xo..XX       ",
"oOOo+O+OooXXoXX+ooOoXXXooooXOOOXO    oXoXXXOOXOXO   ooOOOXXoXXXO                            oOOo+O+OooXXoXX+ooOoXXXooooXOOOXO                               +OOXXoXXXOoO+OOXoXXooXoOOoXX       ooOOOXXoXXXO                            ooOOOXXoXXXO             @OoXoXoooOO+O   o+XXoX+XoOXO...X..XXoOooOXOOXO+      oXXXOOXOXXOo+XXoOoXOOoX+XOO        +OOXXoXXXOoO+OOXoXXooXoOOoXX     ",
"ooXOXXoOXOXOXoXOOXoOXoOooOXOO@+o+    o+XOXoXOOOX+   @OXOOOOoXoO+                            ooXOXXoOXOXOXoXOOXoOXoOooOXOO@+o+                                +OOOoXoOXOXoXo@XX+XXXOOXXoO@      @OXOOOOoXoO+                            @OXOOOOoXoO+             oOoXXXooooXOO   oXoXXOXXOXOoOoXOOX++XXoOo@+XOX+      oOXoXOOOXOXOXOoXo+OoXXOXXO+         +OOOoXoOXOXoXo@XX+XXXOOXXoO@    ",
"XXXXXOo@XXo@@XOXXOOXXXX@oOXO+ooOO    XXooXXOXOOoO   @++XXoX+XoOO         .X..X.X.......X    XXXXXOo@XXo@@XOXXOOXXXX@oOXO+ooOO                                 +oX+XoOXXXXOOoXX+oOooOXOOXOo     @++XXoX+XoOO                            @++XXoX+XoOO             @oOXoOooOXOO+   XXOoooXOOOXXXXX@XOXoooXXoXoXo#       XoXXOXOOoXOXOXOXOXX++OoXoo+          +oX+XoOXXXXOOoXX+oOooOXOOXOo   ",
"oXOXoXOoOooOoOXOXOOoooOXoXOOOOo@+    ooOOX@oXXXX+   o+XoXXOXXOXO         XX++OoXooOXOoXO    oXOXoXOoOooOoOXOXOOoooOXoXOOOOo@+                                  +OXXOXOoOoXOOX++XXoOo@+XOXXo    o+XoXXOXXOXO                            o+XoXXOXXOXO             OOXXXX@oOXO+O   oOXXOXOXOOXXOo+OOXoXOooO@oOX#        oOX@oXXXXXXXOXXXXoOOX+Xoo+O           +OXXOXOoOoXOOX++XXoOo@+XOXXo  ",
"oXXOOXXoXOXXX#XO@O@XOOOXOooOXXo@+    oXoXXOoOooO+   @OXOoooXOOO@         oOOX+Xoo+OOXoX+    oXXOOXXoXOXXX#XO@O@XOOOXOooOXXo@+                                    +OOOXoXXX@XOXoooXXoXoXoOOO@   @OXOoooXOOO@                            @OXOoooXOOO@             oOoooOXoXOOOO   oooXXOXXXXO++OoX@oXX+XXXXO##         oXXOoOooOXoOXXXOX@OO+XoO@X+             +OOOXoXXX@XOXoooXXoXoXoOOO@ ",
"X+oXo+OXoXo+##+####+#+OXo@XXXOoOO    XXXXXX#OXXXO   @oOXXOXOXOOO         @OO+XoO@XOo+XOO    X+oXo+OXoXo+##+####+#+OXo@XXXOoOO                                     #++oXOo+OOXoXOooO@oOXXXXOo   @oOXXOXOXOOO                            @oOXXOXOXOOO             O@XOOOXOooOX+   XXXOXOoXXXOOXX@XXoOoXoXoOOO#         XXXX#OXXXOXoOXXoOXO@@@Oo+O+              #++oXOo+OOXoXOooO@oOXXXXOo ",
"@X+oXXXoXoo+         oooOXOXOOXO+    @+XXXoXo#Xo+   o+ooXXOXXXX@         XO@@@Oo+Ooo+OXO    @X+oXXXoXoo+         oooOXOXOOXO+                                        ++######+#+XXXXOO+ooXXOo  o+ooXXOXXXX@                            o+ooXXOXXXX@             oXXOXOXo@XXXO   @XXX+oXXoXXXOOOXOOOOXXXXXoOo         @XXoXo#XoXX+#+###+########+                 ++######+#+XXXXOO+ooXXOo",
"oOoOOXOOoOOO         oXoXO+XXoO++    oXoOXoOOX#X+    @XXOXOoXXXO@        @OoO+oO+O@OOOO+    oOoOOXOOoOOO         oXoXO+XXoO++                                                    #oOOOXOOXXOO   @XXOXOoXXXO@                            @XXOXOoXXXO@           o+XooXooOXOX+    ooXoX@oOOXoXOOoOXoXoOOoXXoXOO        oOXoOOX#XOX+                                            #oOOOXOOXXOO",
"@OX+XO+XXXX+         @X+XOOO@oXO+    @+oXXoOXoXO+    OXXX+oXXoXXo        +###ooXooXXO@OO    @OX+XO+XXXX+         @X+XOOO@oXO+                                                     OXoOOXoOXXo   OXXX+oXXoXXo           ....X.......O    OXXX+oXXoXXo           XOOOOoXoXO+XO    @+O+@oXXOX++##+##+XooXoO+X@OOo       @XXoOXoXOXX+                                             OXoOOXoOXXo",
"XXX+XoOoXXOO         XXOXOXo@XooO    XOXOXXXoXOOO    @oXoX@oOOXoX           XXoXOOO#XXO+    XXX+XoOoXXOO         XXOXOXo@XooO                             X..X.X...X...X           XoXOOO#XXO   @oXoX@oOOXoX           XXoXOOO#XXOX+    @oXoX@oOOXoX           XXoXOOO#XXOX+    XoOoXo+ooXX+     ##o+XOOOooOXO       XOXXXoXOOOo+                     X..X.X...X...X           XoXOOO#XXO",
"oXOXoOoO@XX+         oXooXoOX@Oo+    oOXOXOXXoOO+     OO+@oXXOX++o         XO+X@OO+OOoO+    oXOXoOoO@XX+         oXooXoOX@Oo+                             oX+O+@oXXOX++o          X+X@OO+OOoO    OO+@oXXOX++o         XO+X@OO+OOoOo+     OO+@oXXOX++o         XO+X@OO+OOoOo+    ooOoOXXXooo+      +OOO+++oO+@@o      oOXOXXoOOoO+                     oX+O+@oXXOX++o          X+X@OO+OOoO",
"@OoOXXoXXoX+         @XOoOOoOOoO+    @oXoXXo+oOX+     @OoXo+ooXXXXX       XOOOooOoXo@@+O    @OoOXXoXXoX+         @XOoOOoOOoO+                             XOoOoXo+ooXXXXX        XOOooOXO+XXO    @OoXo+ooXXXXX       XOOOooOXO+XXX+      @OoXo+ooXXXXX       XOOOooOXO+XXX+     @oXOooXXX+OO       +@OOXoo+oX@o      @oXXo+oOXXO+                     XOoOoXo+ooXXXXX        XOOooOXO+XXO",
"@OOXXXOXXOO+         @@OOXoooXOo+    @oOXXX@XoOO+      OoOXXXoooOXX..   X.O+++oOXXX+OXO+    @OOXXXOXXOO+         @@OOXoooXOo+                             oXoOoOXXXoooOXX.X.X..X.+++oO+@@oXo+     OoOXXXoooOXX..   X.O+++oO+@@oXoO+       OoOXXXoooOXX..   X.O+++oO+@@oXoO+     @+X@XXOXXXO+       +OXoOOOX#OOo      @XXX@XoOOXOO.X....X.X..X...X.O   oXoOoOXXXoooOXX.X.X..X.+++oO+@@oXo+",
"@XXX+OoXX@OO         @Ooo@OoOOoo+    @oXoOOoXXOo+      OOooXXX+OOOoXX...X@OOXoo+OoOO+OO+    @XXX+OoXX@OO         @Ooo@OoOOoo+                              OoXOooXXX+OOOoXXXoXX@OOXoo+oX@OOO      OOooXXX+OOOoXX...X@OOXoo+oX@OOO+        OOooXXX+OOOoXX...X@OOXoo+oX@OOO+      @OXoooXOXXX+        Oo@OXOOoOOXo     @oOOoXXOooOOOooX+XOo#XXXOOX#o+    OoXOooXXX+OOOoXXXoXX@OOXoo+oX@OOO ",
"oXXXOOOOXoX+         oooO+XoXoOXO    ooXOOXOoXOOO       OXXOXXXOXOXoXOXOoOXoOOOXOoXo@@++    oXXXOOOOXoX+         oooO+XoXoOXO                              o+X@XXOXXXOXOXoXOXOoOXoOOOX#OOoO+       OXXOXXXOXOXoXOXOoOXoOOOX#OOoO#          OXXOXXXOXOXoXOXOoOXoOOOX#OOoO#       oXXXXOOXoooO        O#OXOXoo+oOX     oOOXOoXOOo+oOoOOO+OOooXOoXOOoO    o+X@XXOXXXOXOXoXOXOoOXoOOOX#OOoO+ ",
"@OOoOoXXOOO+         @oO+O@X+o#X+    @+OOOOXOo+X+        OoXOXXXO+Xo++OX+Oo@OXOOXXX+OXO+    @OOoOoXXOOO+         @oO+O@X+o#X+                               OXoooXOXXXO+Xo++OX+Oo@OXOOoOOXO         OoXOXXXO+Xo++OX+Oo@OXOOoOOX+            OoXOXXXO+Xo++OX+Oo@OXOOoOOX+        @OOOOOXoOoo+        @OX@XoXXoOXo     @OOOXOo+XOXOoOoXo+o@@o+Ooo+OO+     OXoooXOXXXO+Xo++OX+Oo@OXOOoOOXO  ",
"@Oo+XXXOXoo+         @oOoOooooOX+    @OOX+XXXXXO+         +OXoooooXOOooOoX#OXOXoOoOO+OOO    @Oo+XXXOXoo+         @oOoOooooOX+                                OXXOOXoooooXOOooOoX#OXOXoo+o+           +OXoooooXOOooOoX#OXOXoo+o+              +OXoooooXOOooOoX#OXOXoo+o+         @oX++oOXoOX+        OXo@O+OOooOoX    @X+XXXXXO@X@OoOO#+oXOXO@@+oO++      OXXOOXoooooXOOooOoX#OXOXoo+o+   ",
"@OXXOOXOXOoO         @o+oooXoooX+    @XoXX+oOoOO+          +oOooXooXoOXoOOOX@XoXOXX#OOO+    @OXXOOXOXOoO         @o+oooXoooX+                                 OOOXoOooXooXoOXoOOOX@XoXXoO             +oOooXooXoOXoOOOX@XoXX#+                +oOooXooXoOXoOOOX@XoXX#+          @ooOOXoo+@++         @ooOXooOXXXX    @XX+oOoOOoOOo@OoooOoooO+oOo+o+       OOOXoOooXooXoOXoOOOX@XoXXoO    ",
"@OX+XoXOOoo+         @OOOoOo@OXO+    @OoXXoOXXoO+           ++OXoXXXXXOo@+Xo@O+++@OXXoo+    @OX+XoXOOoo+         @OOOoOo@OXO+                                  ++OXoOXoXXXXXOo@+Xo@O+OO+               ++OXoXXXXXOo@+Xo@O+O+                   ++OXoXXXXXOo@+Xo@O+O+            @ooXOOoOoXo#         @OOooOoOXOXo    @XXoOXXoOXXOOXOoOooOOooOoOO++O        ++OXoOXoXXXXXOo@+Xo@O+OO+     ",
"@oOXOoOoOOX+         @+ooOOXOOOO+    @OOXXOOXOoX+             ++oOoOXOooOOooo++ +OO++OO+    @oOXOoOoOOX+         @+ooOOXOOOO+                                    +++@+oOoOXOooOOoooOX+#                  ++oOoOXOooOOooo++#                      ++oOoOXOooOOooo++#             @@OOXoO+oOO+          @XoOooooOooX   @XXOOXOoXO@+OXOOOoooOOO@OXo@++          +++@+oOoOXOooOOoooOX+#      ",
"+###+###+##+         +###+###+##+    +###+###+##+               ##+#XX#O@####   +###+##+    +###+###+##+         +###+###+##+                                       +#OOO@XX#O@o++#+#                      ##+#XX#O@####                           ##+#XXoO@####                +##+#+#####+          +##+###+###+   +####+########+######+#######+             +#OOO@XX#O@o++#+#        ",
"                                                                   +#####+                                                                                            ##+###+###                               #####+                                 +#####+                                                                                                     ##+###+###             "};
