/* XPM */
static char * hyperspace_xpm[] = {
"31 31 11 1",
" 	s None	c None",
".	c white",
"X	c red3",
"o	c gray26",
"O	c red2",
"+	c gray40",
"@	c red",
"#	c gray50",
"$	c #8B8B9999B5B5",
"%	c gray80",
"&	c yellow",
"             .....             ",
"             .XXX.             ",
"            o.XXX.o            ",
"         oooo.XXX.oooo         ",
"        ooooo.OOO.ooooo        ",
"      oooooo+.OOO.+oooooo      ",
"     ooooo+...OOO...+ooooo     ",
"     ooo+++.@@@O@@@.+++ooo     ",
"    ooo++++#.@@@@@.#++++ooo    ",
"   oooo+++###.@@@.###+++oooo   ",
"   ooo+++####$.@.$####+++ooo   ",
"   ooo..###$$$$.$$$$###..ooo   ",
"  ooo+.@.##$$$%%%$$$##.@.+ooo  ",
".......@@.$$$%%%%%$$$.@@.......",
".XXXOOO@@@.$%%%&%%%$.@@@OOOXXX.",
".XXXOOOO@@@.%%&&&%%.@@@OOOOXXX.",
".XXXOOO@@@.$%%%&%%%$.@@@OOOXXX.",
".......@@.$$$%%%%%$$$.@@.......",
"  ooo+.@.##$$$%%%$$$##.@.+ooo  ",
"   ooo..###$$$$.$$$$###..ooo   ",
"   ooo+++####$.@.$####+++ooo   ",
"   oooo+++###.@@@.###+++oooo   ",
"    ooo++++#.@@@@@.#++++ooo    ",
"     ooo+++.@@@O@@@.+++ooo     ",
"     ooooo+...OOO...+ooooo     ",
"      oooooo+.OOO.+oooooo      ",
"        ooooo.OOO.ooooo        ",
"         oooo.XXX.oooo         ",
"            o.XXX.o            ",
"             .XXX.             ",
"             .....             "};
