/* XPM */
static char * icon_xpm[] = {
"50 50 8 1",
" 	c black",
".	c red",
"X	c blue",
"o	c green",
"O	c yellow",
"+	c tan",
"@	c purple",
"#	c white",
"                                                  ",
"                                                  ",
"                                                  ",
"                                                  ",
"      .......   XXXXXXXX   oooooooo   OOOOOOOO    ",
"      .......   XXXXXXXX   oooooooo   OOOOOOOO    ",
"      .......   XXXXXXXX   oooooooo   OOOOOOOO    ",
"      .......   XXXXXXXX   oooooooo   OOOOOOOO    ",
"                                                  ",
"                                                  ",
"                                                  ",
"      XXXXXXX   ++++++++   ........   oooooooo    ",
"      XXXXXXX   ++++++++   ........   oooooooo    ",
"      XXXXXXX   ++++++++   ........   oooooooo    ",
"      XXXXXXX   ++++++++   ........   oooooooo    ",
"                                                  ",
"                                                  ",
"                                                  ",
"      OOOOOOO   oooooooo   XXXXXXXX   OOOOOOOO    ",
"      OOOOOOO   oooooooo   XXXXXXXX   OOOOOOOO    ",
"      OOOOOOO   oooooooo   XXXXXXXX   OOOOOOOO    ",
"      OOOOOOO   oooooooo   XXXXXXXX   OOOOOOOO    ",
"                                                  ",
"                                                  ",
"                                                  ",
"      @@@@@@@     .   .               ++++++++    ",
"      @@@@@@@   .  . . .              ++++++++    ",
"      @@@@@@@     .   .               ++++++++    ",
"      @@@@@@@    . . . .     ###      ++++++++    ",
"                            #...#                 ",
"                           #.....#                ",
"                           #.....#                ",
"      XXXXXXX              #.....#    @@@@@@@@    ",
"      XXXXXXX               #...#     @@@@@@@@    ",
"      XXXXXXX                ###      @@@@@@@@    ",
"      XXXXXXX                         @@@@@@@@    ",
"                                                  ",
"                                                  ",
"                                                  ",
"                                                  ",
"                                                  ",
"                                                  ",
"                                                  ",
"                  OOOOOOOOOOOOOO                  ",
"                 OOOOOOOOOOOOOOOO                 ",
"                  OOOOOOOOOOOOOO                  ",
"                                                  ",
"                                                  ",
"                                                  ",
"                                                  "};
