/* XPM */
static char * justin_xpm[] = {
"285 44 16 1",
" 	s None	c None",
".	c #F0F0F0F0F0F0",
"X	c #E0E0E0E0F0F0",
"o	c #D0D0D0D0F0F0",
"O	c #C0C0C0C0F0F0",
"+	c #B0B0B0B0F0F0",
"@	c #A0A0A0A0F0F0",
"#	c #90909090F0F0",
"$	c #80808080F0F0",
"%	c #60607070F0F0",
"&	c #50506060F0F0",
"*	c #40405050F0F0",
"=	c #30304040F0F0",
"-	c #20202020F0F0",
";	c #10101010F0F0",
":	c #00000000F0F0",
"                                                                                                                                   ...........                                                                                                                                               ",
"                                     ...                          ...                                                          XXXXXXXXXXXXXXXXX                      .....................                                ...                          ....                                 ",
"                                    X.X.XX                      XXX.X.X                .XXX                                 XXXXXXXXXXXXXXXXXXXXX                  .X.X.XXX.X.X.XXX.X.X.XXX.                              X.X.X.                       .X.X.X.X.                   .X.       ",
"                                   XXXXXXXX                    XXXXXXXXX              XXXXXXX                            XXXXXXXXXXXXXXXXXXXXXXXXX             XXXXXXXXXXXXXXXXXXXXXXXXXXXXXX                            XXXXXXXX                      XXXXXXXXXX                 XXXXX      ",
"                                   XoXoXoXo                   oXoXoXoXoX              oXoXoXoX                        oooooooooooooooooooooooooooo           XoXoXoXoXoXoXoXoXoXoXoXoXoXoXoXoX                          oXoXoXoXoX                     XoXoXoXoXo                XoXoXoX     ",
"                                  ooooooooo                   oooooooooo             ooooooooo                      ooooooooooooooo    ooooooooooo           oooooooooooooooooooooooooooooooooo                         ooooooooo                        ooooooooo              ooooooooo    ",
"                                  ooooooooo                  oooooooooo              ooooooooo                     oOoOoOoOoOoO        oOoOoOoOoO            oooooooooooooooooooooooooooooooooo                        oooooooooo                        ooooooooo              oooooooooo   ",
"                                 OOOOOOOOOO                 OOOOOOOOOO              OOOOOOOOOO                    OOOOOOOOOOO         OOOOOOOOOO              OOOOOOOOOOOOOOOOOOOOOOOO                                OOOOOOOOOO                        oOoOoOoOoO             OoOoOoOoOo    ",
"                                 OOOOOOOOOO                OOOOOOOOOO               OOOOOOOOOO                   O+O+O+O+O+O         O+O+O+O+O+                       OOOOOOOOOOOOO                                   OOOOOOOOO                         OOOOOOOOOOO            OOOOOOOOOO    ",
"                                O+OOO+OOO+                 OO+OOO+OOO              OO+OOO+OOO                    ++++++++++         ++++++++++                         OO+OOO+OOO+                                   +OOO+OOO+O                        OOOOOOOOOOOO           OOOOOOOOOO     ",
"                                ++++++++++                ++++++++++               ++++++++++                   ++++++++++          ++++++++                           ++++++++++                                   ++++++++++                        +O+++O+++O+++          ++O+++O+++      ",
"                               ++++++++++                +++++++++++              ++++++++++                    +@+@+@+@+                                              +++++++++                                    +++++++++                         +++++++++++++          ++++++++++      ",
"                               +@+@+@+@+@               @+@+@+@+@+@               @+@+@+@+@+                    @@@@@@@@                                              @+@+@+@+@                                    +@+@+@+@+@                        +@+@+@+@+@+@+@+        @+@+@+@+@+       ",
"                              @@@@@@@@@@@               @@@@@@@@@@               @@@@@@@@@@                     @@@@@@@@                                              @@@@@@@@@                                    @@@@@@@@@                        @@@@@@@@@@@@@@@@        @@@@@@@@@        ",
"                              #@#@#@#@#@               @#@#@#@#@#@               @#@#@#@#@#                     ###@###@                                             @#@#@#@#@                                    #@#@#@#@#                         @@@@@@@@@@@@@@@@       @@@@@@@@@@        ",
"                             ##########               ###########               ##########                      #########                                           #########                                    ##########                        #@#@###@#@#@###@#       #@#@###@#         ",
"                            ###########               ##########               ###########                      $#$#$#$#$#$                                         ########                                     #########                         #################      #########          ",
"                            #$$$#$$$#$               $$$#$$$#$$$              $$#$$$#$$$#                        $$$$$$$$$$$$                                      $#$$$#$$$                                    #$$$#$$$#                         ###################     #########          ",
"                           $$$$$$$$$$                $$$$$$$$$$               $$$$$$$$$$                         $$$$$$$$$$$$$$                                   $$$$$$$$$                                    $$$$$$$$$$                        $$#$$$#$$$#$$$#$$$#$    $$#$$$#$$           ",
"                           $$$$$$$$$$               $$$$$$$$$$               $$$$$$$$$$$                           %%%%%%%%%%%%%                                  $$$$$$$$                                    $$$$$$$$$$                         $$$$$$$$$  $$$$$$$$$    $$$$$$$$            ",
"                          %%%%%%%%%%                %%%%%%%%%%              %%%%%%%%%%%                             %%%%%%%%%%%%%                                %%%%%%%%%                                    %%%%%%%%%                         %$%$%$%$%   %$%$%$%$%   %$%$%$%$%            ",
"                         %%%%%%%%%%%               %%%%%%%%%%              %%%%%%%%%%%                                %%%%%%%%%%%%                              %%%%%%%%%                                    %%%%%%%%%%                         %%%%%%%%     %%%%%%%%%%%%%%%%%%%             ",
"                         %%%%%%%%%%                %%%%%%%%%%              %%%%%%%%%%%                                  %%%%%%&%%%%                             %%%%%%%%%                                    %%%%%%%%%                         %%%%%%%%%     %%%%%%%%%%%%%%%%%%%             ",
"                        %&%&%&%&%&                %&%&%&%&%&              %&%&%&%&%&%                                     &&&&&&&&&&                           &%&%&%&%&                                    %&%&%&%&%&                        %%%%%%%%%      %%%%%%%%%%%%%%%%%%              ",
"                       &&&&&&&&&&&                &&&&&&&&&&              &&&&&&&&&&                                       &&&&&&&&&                          &&&&&&&&&&                                   &&&&&&&&&&                         &%&%&%&%&      %&%&%&%&%&%&%&%&%               ",
"    &&&&&&&&           &&&&&&&&&&                 &&&&&&&&&              &&&&&&&&&&                                         &*&&&*&&                          &&&&&&&&&                                    &&&&&&&&&&                        &&&&&&&&&        &&&&&&&&&&&&&&&&               ",
"   &***&***&          *&***&***&                 **&***&***             ***&***&**                                          ********                         **&***&**                                    *&***&***&                         &&&&&&&&&        &&&&&&&&&&&&&&&                ",
"  **********         ***********                 **********            ***********                                          ********                         *********                                    **********                        **&***&**         &***&***&***&**                ",
" *=*=*=*=*=*        =*=*=*=*=*=                  *=*=*=*=*            =*=*=*=*=*=                                           =*=*=*=*                        =*=*=*=*=                                    *=*=*=*=*=                        **********         **************                 ",
" ==========        ===========                   =========           ===========                                           ========                        ==========                                   ===========                        *********          **************                 ",
"==========        ===========                    =========          ===========                                           =========                        =========                                    ==========                        =*===*===*           *===*===*===                  ",
"=========        ===========                     =========         ===========                         ====              =========                        ==========                                   ==========                         =========            ============                  ",
"=========      ============                      =========        ===========                         ======           ==========                         =========                                    ==========                        ==========            ===========                   ",
"=-===-===     ===-===-===-                       -===-===-      =-===-===-==                         ---=---=      -=---=---=---                         -===-===-=                                   ===-===-==                         =========             ===========                   ",
"-------------------------                         ------------------------                          ---------------------------                          ---------                                    ----------                        ==========             ==========                    ",
"------------------------                          -----------------------                           -------------------------                           ----------                                   ----------                         ---------              ----------                    ",
" -;-;-;-;-;-;-;-;-;-;-                             -;-;-;-;-;-;-;-;-;-;                              -;;;-;;;-;;;-;;;-;;;-;                             ;-;-;-;-;                                    -;-;-;-;-;                         ---------              ----------                    ",
"  ;;;;;;;;;;;;;;;;;;;                               ;;;;;;;;;;;;;;;;;                                 ;;;;;;;;;;;;;;;;;;;                               ;;;;;;;;;                                    ;;;;;;;;;                          --------               ---------                     ",
"    :;:;:;:;:;:;:;:                                  ;:;:;:;:;:;:;:                                     :;:;:;:;:;:;:;                                  :;:;:;:                                        ;:;:;:;                           ;;-;;;;               ;;;;-;;;;                     ",
"      ::::::::::                                       ::::::::                                            :::::::                                      :::::                                           :::::                              ;;;;;               ;;;;;;;;;                     ",
"                                                                                                                                                                                                                                                                 ;:;:;:                      ",
"                                                                                                                                                                                                                                                                   ::::                      ",
"                                                                                                                                                                                                                                                                                             ",
"                                                                                                                                                                                                                                                                                             "};
