/* XPM */
static char * kibell_xpm[] = {
"260 40 16 1",
" 	s None	c None",
".	c #F0F0F0F0F0F0",
"X	c #E0E0E0E0F0F0",
"o	c #D0D0D0D0F0F0",
"O	c #C0C0C0C0F0F0",
"+	c #B0B0B0B0F0F0",
"@	c #A0A0A0A0F0F0",
"#	c #90909090F0F0",
"$	c #80808080F0F0",
"%	c #60607070F0F0",
"&	c #50506060F0F0",
"*	c #40405050F0F0",
"=	c #30304040F0F0",
"-	c #20202020F0F0",
";	c #10101010F0F0",
":	c #00000000F0F0",
"                       ...                      ..                              ...                                   ............                                        ............                                ...                              ...          ",
"                      XXXXXXX                 XXXXX                            XXXXXX                          XXXXXXXXXXXXXXXXXXXXXXX                            XXXXXXXXXXXXXXXXXXXXXXX                            XXXXXX                           XXXXXX        ",
"                     XXXXXXXXX               XXXXXXX                          XXXXXXXX                    XXXXXXXXXXXXXXXXXXXXXXXXXXXXXX                       XXXXXXXXXXXXXXXXXXXXXXXXXXX                          XXXXXXXX                         XXXXXXXX       ",
"                    XXXXXXXXXX              XXXXXXXX                         XXoXXXoXXX                  XXoXXXoXXXoXXXoXXXoXXXoXXXoXXXoX                     XoXXXoXXXoXXXoXXXoXXXoXXXoXXX                        oXXXoXXXo                        XXXoXXXoX       ",
"                    ooooooooo             oooooooooo                         ooooooooo                   ooooooooooooooooooooooooooooooooo                    ooooooooooooooooooooooooooooo                       oooooooooo                       oooooooooo       ",
"                   oooooooooo            oooooooooo                         oooooooooo                   oooooooooooooooooooooooooooooooooo                    oooooooooooooo                                     oooooooooo                       oooooooooo       ",
"                  OoOoOoOoOo            OoOoOoOoOo                         oOoOoOoOoO                           OoOoOoOoOo        OoOoOoOoO                      oOoOoOoOoOo                                     oOoOoOoOoO                       OoOoOoOoOo        ",
"                  OOOOOOOOOO          OOOOOOOOOOO                          OOOOOOOOO                           OOOOOOOOO           OOOOOOOO                      OOOOOOOOOO                                     OOOOOOOOOO                       OOOOOOOOOO         ",
"                 O+O+O+O+O+          O+O+O+O+O+O                          +O+O+O+O+O                           O+O+O+O+            O+O+O+O+                     +O+O+O+O+O                                      +O+O+O+O+O                       O+O+O+O+O+         ",
"                 ++++++++++         +++++++++++                          ++++++++++                           +++++++++           +++++++++                     +++++++++                                      ++++++++++                       ++++++++++          ",
"                ++++++++++        ++++++++++++                           +++++++++                           +++++++++           ++++++++++                    +++++++++                                      ++++++++++                       ++++++++++           ",
"               @+@+@+@+@+@       @+@+@+@+@+@                            @@@@@@@@@@                           @@@@@@@@@          @@@@@@@@@@                    @@@@@@@@@                                      @@@@@@@@@@@                      @@@@@@@@@@@           ",
"               @@@@@@@@@@      @@@@@@@@@@@@                             @@@@@@@@@                           @@@@@@@@@          @@@@@@@@@@@                   @@@@@@@@@@                                      @@@@@@@@@@                       @@@@@@@@@@            ",
"              @@@@@@@@@@@    @@@@@@@@@@@@@                             @@#@@@#@@                           @@#@@@#@@@        #@@@#@@@#@@@                   @#@@@#@@@#                                      @#@@@#@@@#                       #@@@#@@@#@             ",
"             ##@###@###@#  @###@###@###@                              ##########                           #########       #############                   ###########                                     ##########                       ##########              ",
"             ##########################                               #########                           ##########     #############                    ############                                     ##########                       ##########              ",
"            $#$#$#$#$#$#$#$#$#$#$#$#$                                #$#$#$#$#                            $#$#$#$#$#$#$#$#$#$#$#$#$#$                     $#$#$#$#$#$#$#$#$#$#$#                          $#$#$#$#$#                       #$#$#$#$#$               ",
"            $$$$$$$$$$$$$$$$$$$$$$$                                 $$$$$$$$$$                           $$$$$$$$$$$$$$$$$$$$$$$$$$                      $$$$$$$$$$$$$$$$$$$$$$$$                        $$$$$$$$$$                       $$$$$$$$$$                ",
"           $$$$$$$$$$$$$$$$$$$$$$                                  $%$%$%$%$%                           %$%$%$%$%$%$%$%$%$%$%$%$%$                      %$%$%$%$%$%$%$%$%$%$%$%$%                       %$%$%$%$%$%                      $%$%$%$%$%$                ",
"          %%%%%%%%%%%%%%%%%%%%%                                    %%%%%%%%%                            %%%%%%%%%%%%%%%%%%%%%%%                         %%%%%%%%%%%%%%%%%%%%%%%%%                       %%%%%%%%%%                       %%%%%%%%%%                 ",
"         %%%%%%%%%%%%%%%%%%%%%                                    %%%%%%%%%%                           %%%%%%%%%%%%%%%%%%%%%%%%%%                      %%%%%%%%%%%%%%%%%%%%%%%%                        %%%%%%%%%%                       %%%%%%%%%%                  ",
"         %%%%%%%%%%%%%%%%%%%%%                                    %%%%%%%%%                           %%%%%%%%%%%%%%%%%%%%%%%%%%%%                    %%%%%%%%%%%%%                                    %%%%%%%%%%                       %%%%%%%%%%                  ",
"        %%&%%%%%%%    %%%%&%%%                                   %&%&%&%&%&                           &%&%&%&%&%&%       %&%&%&%&%&                   &%&%&%&%&%&                                     &%&%&%&%&%                       %&%&%&%&%&                   ",
"       &&&&&&&&&&&    &&&&&&&&&                                 &&&&&&&&&&                           &&&&&&&&&&&&         &&&&&&&&&                  &&&&&&&&&&&                                     &&&&&&&&&&                       &&&&&&&&&&                    ",
"       &&&&&&&&&&     &&&&&&&&&                                 &&&&&&&&&&                          &&&&&&&&&&&&          &&&&&&&&&                  &&&&&&&&&&                                      &&&&&&&&&&                       &&&&&&&&&&                    ",
"      &&&*&&&*&&&      &&*&&&*&&                               **********                           ***********           *********                 ***********                                     **********                       **********                     ",
"     ***********       *********                               **********                          ***********           **********                 **********                                      **********                       **********                     ",
"     **********        *********                              *=*=*=*=*=                          *=*=*=*=*=*           *=*=*=*=*=                 =*=*=*=*=*=                                     =*=*=*=*=*                       *=*=*=*=*=                      ",
"    =*=*=*=*=*=         =*=*=*=*=                            ===========                         ===========           ===========                ===========                                      ==========                       ==========                      ",
"   ===========          =========                            ==========                          ==========           ===========                 ===========                                     ==========                       ==========                       ",
"   ===========          ==========                          ==========                          ==========           ===========                  ==========                                      =========                        =========                        ",
"  ===========            =========                          ==========                         ===========         ============                  ===========                                     ==========             ===       ==========             ===        ",
" ===========             ==========                        =-=-=-=-=-                         -=-=-=-=-=-=       =-=-=-=-=-=-                    =-=-=-=-=-=          -=-=-=-=                   =-=-=-=-=-       -=-=-=-=-=      -=-=-=-=-=       =-=-=-=-=-       ",
" ---=---=---              --=---=--                        ----------                         ------------------------------                     -----------------------------                   ---------------------------      ---------------------------       ",
"-----------               ----------                      ----;-----                         -;-------;-------;-------;----                      -----;-------;-------;-------                    ----;-------;-------;----        ---;-------;-------;-----        ",
"----------                 ----------                     ;;;;;;;;;;                         ;;;;;;;;;;;;;;;;;;;;;;;;;;;;                         ;;;;;;;;;;;;;;;;;;;;;;;;;;;                     ;;;;;;;;;;;;;;;;;;;;;;;;         ;;;;;;;;;;;;;;;;;;;;;;;;         ",
";-;;;;;;;                  ;;;;;;-;;;;                    ;;;;;;;;;                          ;;;;;;;;;;;;;;;;;;;;;;;;;;                           ;;;;;;;;;;;;;;;;;;;;;;;;;                        ;;;;;;;;;;;;;;;;;;;;;            ;;;;;;;;;;;;;;;;;;;;;           ",
" ;;;;;;;;                   ;;;;;;;;;;;                     ;:;;;:;                           ;;;:;;     :;;;:;;;:;;;                              ;;:;;;:;;;:;;;:;;;:                               :;;;:;;;:;;;:;;                  ;;;:;;;:;;;:;;;               ",
"                             ;:;:;:;:;:                      :::::                              :::        :::::::                                    :::::::::                                         :::::::::                        :::::::::                  ",
"                              :::::::::                                                                                                                                                                                                                             "};
