/* XPM */
static char * killer_xpm[] = {
/* width height ncolors chars_per_pixel */
"20 19 3 1",
/* colors */
" 	s None	c None",
".	c yellow",
"X	c red",
/* pixels */
"      ........      ",
"    ..        ..    ",
"  ..  XXXXXXXX  ..  ",
"  . XXXXXXXXXXXX .  ",
" . XXXXXXXXXXXXXX . ",
" . XXXXXXXXXXXXXX . ",
". XXXXXXXXXXXXXXXX .",
". XXXXXXXXXXXXXXXX .",
". XXXXXXXXXXXXXXXX .",
". XXXXXXXXXXXXXXXX .",
". XXXXXXXXXXXXXXXX .",
". XXXXXXXXXXXXXXXX .",
". XXXXXXXXXXXXXXXX .",
" . XXXXXXXXXXXXXX . ",
" . XXXXXXXXXXXXXX . ",
"  . XXXXXXXXXXXX .  ",
"  ..  XXXXXXXX  ..  ",
"    ..        ..    ",
"      ........      "};
