/* XPM */
static char * leftarrow_xpm[] = {
"35 19 4 1",
" 	s None	c None",
".	c red",
"X	c red2",
"o	c red3",
"         .                         ",
"        ..                         ",
"       ...                         ",
"      ....                         ",
"     .....X.XXX XXXXX XXXo Xoo oo o",
"    .....X.XXXX XXXXX XXoX ooo oo o",
"   .......X.XXX XXXXX XXXo Xoo oo o",
"  .......X.XXXX XXXXX XXoX ooo oo o",
" .........X.XXX XXXXX XXXo Xoo oo o",
".........X.XXXX XXXXX XXoX ooo oo o",
" .........X.XXX XXXXX XXXo Xoo oo o",
"  .......X.XXXX XXXXX XXoX ooo oo o",
"   .......X.XXX XXXXX XXXo Xoo oo o",
"    .....X.XXXX XXXXX XXoX ooo oo o",
"     .....X.XXX XXXXX XXXo Xoo oo o",
"      ....                         ",
"       ...                         ",
"        ..                         ",
"         .                         "};
