/* XPM */
static char *life_xpm[] = {
/* width height ncolors chars_per_pixel */
"25 24 11 1",
/* colors */
" 	s None	c None",
".	c #1A0084",
"X	c #840000",
"o	c #3000A9",
"O	c #A91700",
"+	c #2C00DC",
"@	c #CC2C00",
"#	c #3D00F2",
"$	c #E83E00",
"%	c #F85F00",
"&	c #4400FE",
/* pixels */
"       .........XX       ",
"       .........XX       ",
"    ...oooooOOOO.....    ",
"   .ooo+++@@+++oooo...   ",
" ..o+++##$##++++++ooo... ",
" ..o+++##$##++++++ooo... ",
" ..o++#%%&#####+++ooo.XX ",
" ..o++#%%&#####+++ooo.XX ",
"Xoo+##&%%&&&####+++oooXX.",
"Xoo+##&&&%&&####+++ooO...",
".OO+###%%&$$####++@ooO...",
".OO+###%%&$$####++@ooO...",
".OO+++$#####$$$@@@+OOO...",
".OO+++$#####$$$@@@+OOO...",
".oo@+++$$###++++++ooooXX.",
"...@++$@@+++++++++ooo.XX.",
" ..o@@o++@+++++oooooo... ",
" ..o@@o++@+++++oooooo... ",
" ...ooooooOOooooooo..... ",
" ...ooooooOOooooooo..... ",
"   ....oooOOoooo......   ",
"    .....X...........    ",
"       ..X........       ",
"       ..X........       "};
