/* XPM */
static char * machinegun_xpm[] = {
"35 15 6 1",
" 	s None	c None",
".	c #222222222222",
"X	c #777777777777",
"o	c gray40",
"O	c #B2B2C0C0DCDC",
"+	c tan",
"  ...            ...........       ",
" ................XXXXXXXXXXX..     ",
" ..............................    ",
" ...............................   ",
" ...............................   ",
"       XXXXXXXXXXXXXXXXXX.......   ",
"        ooooooooooooooXXX.......   ",
"         oooooooooooooXXX.......   ",
"          XXOXOXX       ++++++++   ",
"          XXOXOXX        ++++++++  ",
"         XXOXXOX         ++++++++  ",
"        XXOXXOXX          ++++++++ ",
"       XXOXXOXX            +++++++ ",
"        OXXOXX             ++++++++",
"          OXX               +++++++"};
