/* XPM */
static char * mouse_xpm[] = {
"35 57 4 1",
" 	s None	c None",
".	c ivory",
"X	c black",
"o	c #B2B2C0C0DCDC",
"                   ..              ",
"                   ..              ",
"                  ..               ",
"                  ..               ",
"                 ..                ",
"                 ..                ",
"                 ..                ",
"                 ..                ",
"                 ..                ",
"                 ..                ",
"                 ..                ",
"               ......              ",
"               ......              ",
"               XXXXXX              ",
"   ........X............X.......   ",
" ..........X............X......... ",
" ..........X............X......... ",
"...........X............X..........",
"...........X............X..........",
"...........X............X..........",
"...........X............X..........",
"...........X............X..........",
"...........X............X..........",
"...........X............X..........",
"...........X............X..........",
"...........X............X..........",
"...........X............X..........",
"XXXXXXXXXXXXXXXXXXXXXXXXXXXXXXXXXXX",
"...................................",
"...................................",
"...................................",
"...................................",
"...................................",
"...................................",
"...................................",
"...................................",
"...................................",
"...................................",
"...................................",
"...................................",
"...................................",
"...................................",
"...................................",
"...................................",
"...................................",
"...................................",
"...................................",
"...................................",
"...................................",
"...................................",
"...................................",
"........................ooooooo....",
"........................ooooooo....",
"........................ooooooo....",
" .......................ooooooo... ",
" ................................. ",
"   .............................   "};
