/* XPM */
static char * multiballblock_xpm[] = {
"40 20 15 1",
" 	s None	c None",
".	c red",
"X	c #3000A9",
"o	c #A91700",
"O	c #1A0084",
"+	c red4",
"@	c red3",
"#	c yellow",
"$	c #2C00DC",
"%	c #3D00F2",
"&	c #CC2C00",
"*	c #4400FE",
"=	c #E83E00",
"-	c #F85F00",
";	c #840000",
"  ....................................  ",
" ...............XXXXXXoO..............+ ",
"...@@@@@@@##@@XX$$$$$$oXXO@@##@@@@@@@.++",
"..@@@@#@@#@@@OXX$$$$$$oXXOO@@@#@@#@@@@++",
"..@@@#@@#@@@XX$$%%%&&&$$XXOO@@@#@@#@@@++",
"..@@@#@@#@@@XX$%**=%%%$$XXOO@@@#@@#@@@++",
"..@@#@@#@@@X$$%**-*%%%%$$XXXO@@@#@@#@@++",
"..@@#@@#@@@o$$%*-*-%%%%$$XXXO@@@#@@#@@++",
"..@@#@@#@@@X&&%=**%===%$$oooO@@@#@@#@@++",
"..@@#@@#@@@X&&%=**%===%$$oooO@@@#@@#@@++",
"..@@#@@#@@@X$$&%%%%%%%&$&XXX;@@@#@@#@@++",
"..@@#@@#@@@XXX&$%%%$$$&&XXXXO@@@#@@#@@++",
"..@@#@@#@@@Ooo$$$$$&&&$$XXOOO@@@#@@#@@++",
"..@@@#@@#@@@XXXX$$$$$$oXXXOO@@@#@@#@@@++",
"..@@@#@@#@@@OOXXXXXXXXoXXOOO@@@#@@#@@@++",
"..@@@@#@@#@@@OOOXXXXXXX;;OO@@@#@@#@@@@++",
"..@@@@@@@@##@@OOXXXXXXX;;O@@##@@@@@@@@++",
"..+@@@@@@@@@@@@@OOOOOOOO@@@@@@@@@@@@@+++",
" ++++++++++++++++++++++++++++++++++++++ ",
"  ++++++++++++++++++++++++++++++++++++  "};
