/* XPM */
static char * paddleshrink_xpm[] = {
"40 15 9 1",
" 	s None	c None",
".	c white",
"X	c red",
"o	c blue",
"O	c grey30",
"+	c gray40",
"@	c #B7B7B7B7B7B7",
"#	c gray80",
"$	c #F4F4F4F4F4F4",
"                                        ",
"          .    XXXXXXXXXXXXXXXXXXXXXX   ",
"        ...   XXXXXXXXXXXXXXXXXXXXXXXX  ",
"      ..oo.  XXXOOOOOOOOOOOOOOOOOOOOXXX ",
"     .oooo.  XXOO++++++++++++++++++OOXX ",
"   ..ooooo.  XXO@@@@@@@@@@@@@@@@@@@@OXX ",
" ..ooooooo.  XXO####################OXX ",
".ooooooooo.  XXO$$$$$$$$$$$$$$$$$$$$OXX ",
" ..ooooooo.  XXO####################OXX ",
"   ..ooooo.  XXO@@@@@@@@@@@@@@@@@@@@OXX ",
"     .oooo.  XXOO++++++++++++++++++OOXX ",
"      ..oo.  XXXOOOOOOOOOOOOOOOOOOOOXXX ",
"        ...   XXXXXXXXXXXXXXXXXXXXXXXX  ",
"          .    XXXXXXXXXXXXXXXXXXXXXX   ",
"                                        "};
