/* XPM */
static char * paddleexpand_xpm[] = {
"40 15 9 1",
" 	s None	c None",
".	c red",
"X	c white",
"o	c grey30",
"O	c blue",
"+	c gray40",
"@	c #B7B7B7B7B7B7",
"#	c gray80",
"$	c #F4F4F4F4F4F4",
"                                        ",
"   ......................    X          ",
"  ........................   XXX        ",
" ...oooooooooooooooooooo...  XOOXX      ",
" ..oo++++++++++++++++++oo..  XOOOOX     ",
" ..o@@@@@@@@@@@@@@@@@@@@o..  XOOOOOXX   ",
" ..o####################o..  XOOOOOOOXX ",
" ..o$$$$$$$$$$$$$$$$$$$$o..  XOOOOOOOOOX",
" ..o####################o..  XOOOOOOOXX ",
" ..o@@@@@@@@@@@@@@@@@@@@o..  XOOOOOXX   ",
" ..oo++++++++++++++++++oo..  XOOOOX     ",
" ...oooooooooooooooooooo...  XOOXX      ",
"  ........................   XXX        ",
"   ......................    X          ",
"                                        "};
