/* XPM */
static char * paddlehuge_xpm[] = {
"70 15 7 1",
" 	s None	c None",
".	c red",
"X	c grey30",
"o	c gray40",
"O	c #B7B7B7B7B7B7",
"+	c gray80",
"@	c #F4F4F4F4F4F4",
"                                                                      ",
"   ................................................................   ",
"  ..................................................................  ",
" ...XXXXXXXXXXXXXXXXXXXXXXXXXXXXXXXXXXXXXXXXXXXXXXXXXXXXXXXXXXXXXX... ",
" ..XXooooooooooooooooooooooooooooooooooooooooooooooooooooooooooooXX.. ",
" ..XOOOOOOOOOOOOOOOOOOOOOOOOOOOOOOOOOOOOOOOOOOOOOOOOOOOOOOOOOOOOOOX.. ",
" ..X++++++++++++++++++++++++++++++++++++++++++++++++++++++++++++++X.. ",
" ..X@@@@@@@@@@@@@@@@@@@@@@@@@@@@@@@@@@@@@@@@@@@@@@@@@@@@@@@@@@@@@@X.. ",
" ..X++++++++++++++++++++++++++++++++++++++++++++++++++++++++++++++X.. ",
" ..XOOOOOOOOOOOOOOOOOOOOOOOOOOOOOOOOOOOOOOOOOOOOOOOOOOOOOOOOOOOOOOX.. ",
" ..XXooooooooooooooooooooooooooooooooooooooooooooooooooooooooooooXX.. ",
" ...XXXXXXXXXXXXXXXXXXXXXXXXXXXXXXXXXXXXXXXXXXXXXXXXXXXXXXXXXXXXXX... ",
"  ..................................................................  ",
"   ................................................................   ",
"                                                                      "};
