/* XPM */
static char * paddlesmall_xpm[] = {
"40 15 7 1",
" 	s None	c None",
".	c red",
"X	c grey30",
"o	c gray40",
"O	c #B7B7B7B7B7B7",
"+	c gray80",
"@	c #F4F4F4F4F4F4",
"                                        ",
"   ..................................   ",
"  ....................................  ",
" ...XXXXXXXXXXXXXXXXXXXXXXXXXXXXXXXX... ",
" ..XXooooooooooooooooooooooooooooooXX.. ",
" ..XOOOOOOOOOOOOOOOOOOOOOOOOOOOOOOOOX.. ",
" ..X++++++++++++++++++++++++++++++++X.. ",
" ..X@@@@@@@@@@@@@@@@@@@@@@@@@@@@@@@@X.. ",
" ..X++++++++++++++++++++++++++++++++X.. ",
" ..XOOOOOOOOOOOOOOOOOOOOOOOOOOOOOOOOX.. ",
" ..XXooooooooooooooooooooooooooooooXX.. ",
" ...XXXXXXXXXXXXXXXXXXXXXXXXXXXXXXXX... ",
"  ....................................  ",
"   ..................................   ",
"                                        "};
