/* XPM */
static char * presents_xpm[] = {
"410 44 16 1",
" 	s None	c None",
".	c #F0F0F0F0F0F0",
"X	c #E0E0E0E0F0F0",
"o	c #D0D0D0D0F0F0",
"O	c #C0C0C0C0F0F0",
"+	c #B0B0B0B0F0F0",
"@	c #A0A0A0A0F0F0",
"#	c #90909090F0F0",
"$	c #80808080F0F0",
"%	c #60607070F0F0",
"&	c #50506060F0F0",
"*	c #40405050F0F0",
"=	c #30304040F0F0",
"-	c #20202020F0F0",
";	c #10101010F0F0",
":	c #00000000F0F0",
"                                                                                                                                                                                          ...........                                                                                                                                                                                              ...........            ",
"                             ........                                       ..............                                          ............                                      XXXXXXXXXXXXXXXXX                                 ............                           ....                                                  .....................                                     XXXXXXXXXXXXXXXXX          ",
"                    X.X.X.X.X.X.X.X.X.X.X                              .X.X.X.X.X.X.X.X.X.X.X.                              X.X.X.X.X.X.X.X.X.X.X.X                                XXXXXXXXXXXXXXXXXXXXX                        X.X.X.X.X.X.X.X.X.X.X.X                       X.X.X.X.X                   X.X                     X.X.X.X.X.X.X.X.X.X.X.X.X                                 XXXXXXXXXXXXXXXXXXXXX         ",
"                 XXXXXXXXXXXXXXXXXXXXXXXXXX                         XXXXXXXXXXXXXXXXXXXXXXXXXXXX                         XXXXXXXXXXXXXXXXXXXXXXXXXXX                            XoXXXoXXXoXXXoXXXoXXXoXXX                    XXXXXXXXXXXXXXXXXXXXXXXXXXX                      XXXXXXXXXX                 XXXXX                XXXXXXXXXXXXXXXXXXXXXXXXXXXXXX                             oXXXoXXXoXXXoXXXoXXXoXXXo        ",
"                oXoXoXoXoXoXoXoXoXoXoXoXoXoXo                       XXoXXXoXXXoXXXoXXXoXXXoXXXoXX                       oXoXoXoXoXoXoXoXoXoXoXoXoXoXo                        oooooooooooooooooooooooooooo                   oXoXoXoXoXoXoXoXoXoXoXoXoXoXo                     oXoXoXoXoX                oXoXoXo             oXoXoXoXoXoXoXoXoXoXoXoXoXoXoXoXo                         oooooooooooooooooooooooooooo        ",
"                oooooooooooooooooooooooooooooo                      oooooooooooooooooooooooooooooo                      ooooooooooooooooooooooooooooo                      ooooooooooooooo    ooooooooooo                   ooooooooooooooooooooooooooooo                       ooooooooo              ooooooooo            oooooooooooooooooooooooooooooooooo                      ooooooooooooooo    ooooooooooo        ",
"                    ooooooooooooooooooooooooooo                       ooooooooooooooo     ooooooooo                      oooooooooooooo                                   OoOoOoOoOoOo        OoOoOoOoOo                     oooooooooooooo                                     ooooooooo              oooooooooo           oooooooooooooooooooooooooooooooooo                     oOoOoOoOoOoO        oOoOoOoOoO         ",
"                   OOOOOOOOOOOO     OOOOOOOOOOO                       oooOoooOoooO          oOoooOoo                       OOOOOOOOOOO                                   OOOOOOOOOOO         OOOOOOOOOO                        OOOOOOOOOOO                                     OoOoOoOOOo             OOoOoOoOOO             OOOOOOOOOOOOOOOOOOOOOOOO                             OOOOOOOOOOO         OOOOOOOOOO          ",
"                  OOOOOOOOOO          OOOOOOOOOO                       OOOOOOOOOO            OOOOOOO                       OOOOOOOOOO                                   OO+OOO+OOO+         OO+OOO+OOO                         OOOOOOOOOO                                      OOOOOOOOOOO            OOOOOOOOOO                     OOOOOOOOOOOOO                               O+OOO+OOO+O         O+OOO+OOO+           ",
"                 OOOOOO+OOO            +OOOOOOO+                       OOOOOOOOO             OOOOOOOO                     OOOOO+OOOO                                    ++++++++++         ++++++++++                         O+OOOOOOO+                                      OOOOOOOOOOOO           OOOOOOOOOO                       O+OOOOOOO+O                                ++++++++++         ++++++++++            ",
"                 +++++++++             +++++++++                      +O+O+O+O+              O+O+O+O+                     +++++++++                                    ++++++++++          ++++++++                           +++++++++                                      O+O+O+O+O+O+O          +O+O+O+O+O                        ++++++++++                                ++++++++++          ++++++++              ",
"                ++++++++++            ++++++++++                      +++++++++             ++++++++                     +++++++++                                     @+@+@+@+@                                             +++++++++                                       +++++++++++++          ++++++++++                        +++++++++                                 +@+@+@+@+                                 ",
"               +@+@+@+@+@            +@+@+@+@+@                      +@+++@+++             +++@+++@+                    @+@+@+@+@                                      @@@@@@@@                                             @+@+@+@+@                                       @+@+@+@+@+@+@+@        +@+@+@+@+@                        +@+@+@+@+                                  @@@@@@@@                                  ",
"              @@@@@@@@@@            @@@@@@@@@@@                     @@@@@@@@@            @@@@@@@@@@                    @@@@@@@@@@                                      @@@@@@@@                                            @@@@@@@@@@                                      @@@@@@@@@@@@@@@@        @@@@@@@@@                         @@@@@@@@@                                  @@@@@@@@                                  ",
"              #@#@#@#@#@          #@#@#@#@#@#@                      @@@@@@@@@          @@@@@@@@@@@                    #@#@#@#@#@                                       @#@###@#                                           #@#@#@#@#@                                       @@@@@@@@@@@@@@@@       @@@@@@@@@@                        #@#@#@#@#                                   #@###@#@                                  ",
"             ##########          ############                      @@#@@@#@@         #@@@#@@@#@@@                    ###########                                       #########                                         ###########                                      ##@###@###@###@##       ##@###@##                        #########                                    #########                                 ",
"            ###########        #############                      ##########       #############                    ############                                       #$#$#$#$#$#                                      ############                                      #################      #########                         ########                                     $#$#$#$#$#$                               ",
"           $$$$$$$$$$$       $$$$$$$$$$$$$$                      ##############################                     $$$$$$$$$$$$$$$$$$$$$$                              $$$$$$$$$$$$                                    $$$$$$$$$$$$$$$$$$$$$$                           ###################     #########                        $$$$$$$$$                                      $$$$$$$$$$$$                             ",
"           $$$$$$$$$$      $$$$$$$$$$$$$$$                       #$#$#$#$#$#$#$#$#$#$#$#$#$#$                      $$$$$$$$$$$$$$$$$$$$$$$$                             $$$$$$$$$$$$$$                                 $$$$$$$$$$$$$$$$$$$$$$$$                         $#$#$#$$$#$#$#$$$#$#    $#$#$#$$$                        $$$$$$$$$                                       $$$$$$$$$$$$$$                           ",
"          $$$%$$$%$$$    %$$$%$$$%$$$%$$$                       $$$$$$$$$$$$$$$$$$$$$$$$$$$                       $$$%$$$%$$$%$$$%$$$%$$$%$                               %%%%%%$%%%%%%                               $$$%$$$%$$$%$$$%$$$%$$$%$                         $$$$$$$$$  $$$$$$$$$    $$$$$$$$                         %$$$%$$$                                          %%%%%$%%%%%%%                          ",
"         %%%%%%%%%%%%%%%%%%%%%%%%%%%%%%                        $$$$$$$$$$$$$$$$$$$$$$$$$$                         %%%%%%%%%%%%%%%%%%%%%%%%%                                %%%%%%%%%%%%%                              %%%%%%%%%%%%%%%%%%%%%%%%%                        $%$%$%$%$   $%$%$%$%$   $%$%$%$%$                        %%%%%%%%%                                           %%%%%%%%%%%%%                         ",
"         %%%%%%%%%%%%%%%%%%%%%%%%%%%%                          %%%%%%%%%%%%%%%%%%%%%%%                           %%%%%%%%%%%%%%%%%%%%%%%%                                    %%%%%%%%%%%%                            %%%%%%%%%%%%%%%%%%%%%%%%                          %%%%%%%%     %%%%%%%%%%%%%%%%%%%                        %%%%%%%%%                                              %%%%%%%%%%%%                        ",
"        %%%%%%%%%%%%%%%%%%%%%%%%%%%                           %%%%%%%%%%%%%%%%%%%%%                             %%%%%%%%%%%%%                                                  %%%%%%%%%%%                          %%%%%%%%%%%%%                                     %%%%%%%%%     %%%%%%%%%%%%%%%%%%%                        %%%%%%%%%                                                %%%%%%%%%%%                       ",
"        %&%%%&%&%&%%%&%&%&%%%&%&%                            %%%%%%%%%%%%%%%%%%%%%                              %&%%%&%&%&%                                                      &&&&&&&&&&                         %&%&%&%%%&%                                      %%%%%%%%%      %%%%%%%%%%%%%%%%%%                        %&%&%%%&%                                                   &&&&&&&&&&                      ",
"       &&&&&&&&&&  &&&&&&&&&&&&                             %%%%%%%%%%%   %%%%%%%%                             &&&&&&&&&&&                                                        &&&&&&&&&                        &&&&&&&&&&&                                       %&%&%&%&%      &%&%&%&%&%&%&%&%&                        &&&&&&&&&&                                                    &&&&&&&&&                      ",
"      &&&&&&&&&&&   &&&&&&&&                                &&&&&&&&&&    &&&&&&&&&                            &&&&&&&&&&                                                          &&&&*&&&                        &&&&&&&&&&                                       &&&&&&&&&        &&&&&&&&&&&&&&&&                        &&&&&&&&&                                                      &&&*&&&&                      ",
"      ***&*&*&**                                           &&&&&&&&&&      &&&&&&&&                           ***&*&*&***                                                          ********                       *&*&***&*&*                                       &&&&&&&&&        &&&&&&&&&&&&&&&                        *&***&*&*                                                       ********                      ",
"     ***********                                          &&&&&&&&&&&      &&&&&&&&&                          **********                                                           ********                       **********                                       *&***&***         ***&***&***&***                        *********                                                       ********                      ",
"    =*=*=*=*=*=                                           *&***&***&       &***&***&                         *=*=*=*=*=*                                                           *=*=*=*=                      *=*=*=*=*=*                                      **********         **************                        *=*=*=*=*                                                        =*=*=*=*                      ",
"    ==========                                           ***********        ********                        ===========                                                           ========                      ===========                                       *********          **************                       ==========                                                       ========                       ",
"   ===========                                          =*=*=*=*=*=         =*=*=*=*=                       ===========                                                          =========                      ===========                                      ====*=====           =======*====                        =========                                                       =========                       ",
"   ==========                                           ==========          =========                       ==========                                        ====              =========                       ==========                                       =========            ============                       ==========                                    ====              =========                        ",
"  ===========                                          ===========           =========                     ===========                                       ======           ==========                       ===========                                      ==========            ===========                        =========                                    ======           ==========                         ",
" ==-=-=-===-                                           ==========            =========                     -=-=-===-=-          ===-=-=-                    =-=-=-=-      =-=-=-=-=-=-=                        -===-=-=-==          =-=-===-                    =========             ===========                       ===-=-=-==                                   -=-=-=-=      -=-=-=-=-=-=-                          ",
" ----------                                           ===========             =========                    -----------------------------                   ---------------------------                         -----------------------------                   ==========             ==========                        ---------                                   ---------------------------                           ",
"-----------                                           ==========              =========                    -----------------------------                   -------------------------                           -----------------------------                   -=---=---              --=---=---                       ----------                                   -------------------------                             ",
";;;-;;;-;;                                            -=---=---                =---=---=                    ;;;-;;;-;;;-;;;-;;;-;;;-;;;                     ;;;-;;;-;;;-;;;-;;;-;;                              ;;;-;;;-;;;-;;;-;;;-;;;-;;;                    ---------              ----------                       -;;;-;;;-                                     ;;-;;;-;;;-;;;-;;;-;;;                               ",
";;;;;;;;;;                                             --------                ----------                   ;;;;;;;;;;;;;;;;;;;;;;;;;                        ;;;;;;;;;;;;;;;;;;;                                ;;;;;;;;;;;;;;;;;;;;;;;;;                      --------               ---------                        ;;;;;;;;;                                      ;;;;;;;;;;;;;;;;;;;                                 ",
" ;:;:;:;:                                               ;-;-;-                  ;-;-;-;-;-                   ;:;:;:;:;:;:;:;:;:;                               ;:;:;:;:;:;:;:                                    ;:;:;:;:;:;:;:;:;:;                            ;;;;;;;               ;;;;;;;;;                        ;:;:;:;                                          :;:;:;:;:;:;:;                                    ",
"   ::::                                                  ;;;;                   ;;;;;;;;;;;                     :::::::::                                         :::::::                                           :::::::::                                     ;;;;;               ;;;;;;;;;                        :::::                                               :::::::                                        ",
"                                                                                 ;;;;;;;;;;;                                                                                                                                                                                            :;:;:;                                                                                                                            ",
"                                                                                  ;:;:;:;:;:                                                                                                                                                                                              ::::                                                                                                                            ",
"                                                                                   :::::::                                                                                                                                                                                                                                                                                                                                ",
"                                                                                                                                                                                                                                                                                                                                                                                                                          "};
