/* XPM */
static char * redblock_xpm[] = {
"40 20 4 1",
" 	c None",
".	c red1",
"X	c red4",
"o	c red3",
"  ....................................  ",
" .....................................X ",
"...oooooooooooooooooooooooooooooooooo.XX",
"..ooooooooooooooooooooooooooooooooooooXX",
"..ooooooooooooooooooooooooooooooooooooXX",
"..ooooooooooooooooooooooooooooooooooooXX",
"..ooooooooooooooooooooooooooooooooooooXX",
"..ooooooooooooooooooooooooooooooooooooXX",
"..ooooooooooooooooooooooooooooooooooooXX",
"..ooooooooooooooooooooooooooooooooooooXX",
"..ooooooooooooooooooooooooooooooooooooXX",
"..ooooooooooooooooooooooooooooooooooooXX",
"..ooooooooooooooooooooooooooooooooooooXX",
"..ooooooooooooooooooooooooooooooooooooXX",
"..ooooooooooooooooooooooooooooooooooooXX",
"..ooooooooooooooooooooooooooooooooooooXX",
"..ooooooooooooooooooooooooooooooooooooXX",
"..XooooooooooooooooooooooooooooooooooXXX",
" XXXXXXXXXXXXXXXXXXXXXXXXXXXXXXXXXXXXXX ",
"  XXXXXXXXXXXXXXXXXXXXXXXXXXXXXXXXXXXX  "};
