/* XPM */
static char * reverse_xpm[] = {
"33 16 5 1",
" 	s None	c None",
".	c white",
"X	c red2",
"o	c red3",
"O	c red1",
"   ................        .     ",
"  .XXXXXXoXoooooooo.      .O.    ",
"  .XXXXXXXoXooooooo.     .OOO.   ",
"  .XXXXXXoXoooooooo.    .OOOOO.  ",
"  .XXXXXXXoXooooooo.   .OOOOOOO. ",
"  .XOXOXXoXoooooooo.  .OOOOOOOOO.",
"  .OXOXO...........    ..OOOOO.. ",
"  .XOXOX.               .OOOOO.  ",
"  .OOOOO.               .XOXOX.  ",
" ..OOOOO..    ...........OXOXO.  ",
".OOOOOOOOO.  .ooooooooXoXXOXOX.  ",
" .OOOOOOO.   .oooooooXoXXXXXXX.  ",
"  .OOOOO.    .ooooooooXoXXXXXX.  ",
"   .OOO.     .oooooooXoXXXXXXX.  ",
"    .O.      .ooooooooXoXXXXXX.  ",
"     .        ................   "};
