/* XPM */
static char * roamerU_xpm[] = {
"25 27 5 1",
" 	s None	c None",
".	c yellow",
"X	c red",
"o	c black",
"O	c #C4C4D7D7FFFF",
"         .  .   .        ",
"    .  .. . . . .        ",
"   . .... .X.X..... .    ",
"   . ..........X.X. .    ",
"   . .X.X..XX.XX..X.     ",
" . .X..XXXXXXXX.X..X...  ",
" ....XXXXXXXXXXXXX...X   ",
". .XXXXXXXXXXXXXXX.X.X...",
" .X.XXXXXXXXXXXXXXXX.... ",
" .XXXXXooXXXXXXooXXXX... ",
".XXXXooXXXXXXXXXXooXXXXX.",
" XXooXXXXXXXXXXXXXXooXX. ",
"XooXXoooXXXXXXXXoooXXooXX",
"XXXXoooooXXXXXXoooooXXXXX",
"XXXOOoooOOXXXXOOoooOOXXXX",
"XXXOOOOOOOXXXXOOOOOOOXXXX",
"XXXOOOOOOOXXXXOOOOOOOXXXX",
" XXXOOOOOXXXXXXOOOOOXXXX ",
" XXXXOOOXXXXXXXXOOOXXXXX ",
" XXXXXXXXXXXXXXXXXXXXXXX ",
"  XXXXXXXXXXXXXXXXXXXXX  ",
"   XXXooXXXXXXXXooXXXX   ",
"   XXXXooXXXXXoooXXXXX   ",
"    XXXXXooooooXXXXXX    ",
"      XXXXXXXXXXXXX      ",
"       XXXXXXXXXXX       ",
"          XXXXX          "};
