/* XPM */
static char * star2_xpm[] = {
"20 20 2 1",
" 	s None	c None",
".	c white",
"                    ",
"                    ",
"                    ",
"                    ",
"                    ",
"                    ",
"                    ",
"         .          ",
"         .          ",
"        ...         ",
"      .......       ",
"        ...         ",
"         .          ",
"         .          ",
"                    ",
"                    ",
"                    ",
"                    ",
"                    ",
"                    "};
