/* XPM */
static char * star7_xpm[] = {
"20 20 3 1",
" 	s None	c None",
".	c white",
"X	c ivory",
"                    ",
"                    ",
" .               .  ",
"  .             .   ",
"   .     .     .    ",
"    ..   .   ..     ",
"    ...........     ",
"     .........      ",
"     .........      ",
"     .........      ",
"   .............    ",
"     .........      ",
"     .........      ",
"     .........      ",
"    ...........     ",
"    ..   X   ..     ",
"   .     .     .    ",
"  .             .   ",
" .               .  ",
"                    "};
