/* XPM */
static char * star4_xpm[] = {
"20 20 2 1",
" 	s None	c None",
".	c white",
"                    ",
"                    ",
"                    ",
"         .          ",
"         .          ",
"         .          ",
"        ...         ",
"        ...         ",
"       .....        ",
"     .........      ",
"  ...............   ",
"     .........      ",
"       .....        ",
"        ...         ",
"        ...         ",
"         .          ",
"         .          ",
"         .          ",
"                    ",
"                    "};
