/* XPM */
static char * star5_xpm[] = {
"20 20 2 1",
" 	s None	c None",
".	c white",
"                    ",
"         .          ",
"         .          ",
"         .          ",
"         .          ",
"        ...         ",
"     .  ...  .      ",
"      . ... .       ",
"       .....        ",
"    ...........     ",
"................... ",
"    ...........     ",
"       .....        ",
"      . ... .       ",
"     .  ...  .      ",
"        ...         ",
"         .          ",
"         .          ",
"         .          ",
"         .          "};
