/* XPM */
static char * stickyblock_xpm[] = {
"32 32 15 1",
" 	s None	c None",
".	c white",
"X	c #3000A9",
"o	c #A91700",
"O	c #1A0084",
"+	c #2C00DC",
"@	c #3D00F2",
"#	c #CC2C00",
"$	c #4400FE",
"%	c #E83E00",
"&	c #F85F00",
"*	c #840000",
"=	c #4040A0A0C0C0",
"-	c steelblue",
";	c red",
"                                ",
"            ........            ",
"          ..XXXXXXoO..          ",
"  .     ..XX++++++oXXO..  . .   ",
" .  ..  .OXX++++++oXXOO.  .  .  ",
" .  .  .XX++@@@###++XXOO.  . .  ",
" . .   .XX+@$$%@@@++XXOO.  .    ",
"   .  .X++@$$&$@@@@++XXXO.      ",
"   .  .o++@$&$&@@@@++XXXO.      ",
"      .X##@%$$@%%%@++oooO.      ",
"      .X##@%$$@%%%@++oooO.      ",
"      .X++#@@@@@@@#+#XXX*.      ",
"      .XXX#+@@@+++##XXXXO.      ",
"      .Ooo+++++###++XXOOO.      ",
"       .XXXX++++++oXXXOO.  .    ",
"       .OOXXXXXXXXoXXOOO.  .    ",
"        .OOOXXXXXXX**OO.   . .  ",
"   .    ..OOXXXXXXX**O..   . .  ",
"    .    =..OOOOOOOO..=   .  .  ",
" .  .    ===........===   . .   ",
"  .  .    ============      .   ",
"   .       ==-==-=-==           ",
"           ==-==-=-==           ",
"          ===-==-=-===          ",
"         ===--==-==-===         ",
"       ====--===-===--===       ",
"      ===================       ",
" .............................. ",
".;;;;;;;;;;;;;;;;;;;;;;;;;;;;;;.",
".;;;;;;;;;;;;;;;;;;;;;;;;;;;;;;.",
".;;;;;;;;;;;;;;;;;;;;;;;;;;;;;;.",
" .............................. "};
