/* XPM */
static char * tink_xpm[] = {
"10 5 2 1",
" 	s None	c None",
".	c yellow",
" ........ ",
" .. .  .  ",
"  . .. .  ",
" . .. . . ",
".   . .  ."};
