/* XPM */
static char * titleX_xpm[] = {
/* width height ncolors chars_per_pixel */
"71 74 8 1",
/* colors */
" 	s None	c None",
".	c #A06000",
"X	c #903F10",
"o	c #F0D040",
"O	c #D09E20",
"+	c #F0C030",
"@	c #C07F10",
"#	c #802F00",
/* pixels */
"                                                                       ",
"                                                                       ",
"..XXXXXXXXXXXXXXXXXXXXXXXXXXXXXXXXXXXX.....XXXXXXXXXXXXXXXXXXXXXXXXXXX ",
"oooOOOOOOOOOOOOOOOOOOOOOOOOOOOOOOOOOOO+ooo+OOOOOOOOOOOOOOOOOOOOOOOOOOO.",
"ooo+OOOOOOOOOOOOOOOOOOOOOOOOOOOOOOOOO+OOOooO+OOOOOOOOOOOOOOOOOOOOOOOO@ ",
"oooo+OOOOOOOOOOOOOOOOOOOOOOOOOOOOOOO+oO.Oooo+OOOOOOOOOOOOOOOOOOOOOOO@.#",
"oooo++OOOOOOOOOOOOOOOOOOOOOOOOOOOOO+OO@.OooooOOOOOOOOOOOOOOOOOOOOOO@.. ",
"oooooo+OOOOOOOOOOOOOOOOOOOOOOOOOOO+oO...Oooooo+OOOOOOOOOOOOOOOOOOO@...#",
"ooooooO...........OOO.............@O@...OoooooO..................@.... ",
"oooooo@###########@o@#############X.....Oooooo@#################X......",
"ooooO@XX####X@@@@.Oo@##X###########X#...OoooO@XX######X@@.@@XX##X#.... ",
"oooo@#######@ooooo++@XXX############....Oooo@########XOooooo@######...#",
"ooO@XX##X@@@Oooo+++oO@.XXXXXX#########..OoO@XX####XXXX@o++ooO@@@XXX#..#",
"oo@#####@oooo+++++ooooO.....XX#######XX.Oo@######X#.XX@++++ooooo@##XX. ",
"..X # # @ooo+++o+++oooOO@...XXX#XXX## # X.  X###XX..@@Oo++ooooO.X  # # ",
"        .oo++++oo+ooooooO....XXXX.XX#       #XX..XX.O+++oooooo.        ",
"         @Oooooo++ooooooOX.@...X.@.X#     # XX..XX.OO+++ooooO.         ",
"          .oooooo++oooo+@.@@@@@..@@.#     #.@.XXXX@oo+++oooo.          ",
"          XO+oooOOOO+ooo+O@@@..@@@..X#   ##....#@@Oo+OOO+oO.           ",
"          X@OoooO@@@OoooooO@..@@@@@@..# #.......OoooO@@@Oo.            ",
"           X@O+oO@@@OOOO+o+OO.@@@@@@@.@.......@OOooOOOOO@.             ",
"            X@OoO@@@@@@@OoooO@@@@@@@@@OoO...@@OoooO@Oooo.              ",
"             X@OO@@@OOO@OOOOOOOOOOOOO@OoO.@OOOOOOO@@OOO.               ",
"              X@@@@@OoO@@@@@+oooooooO@OoOOOoooOO...@@@X                ",
"               #..@@@O@@@@@.@Ooooo+OO.OoO@Oo+O@.@.@@XX                 ",
"                #..@@.@@@@..@@OoooO@..OoO@OoO....@..#                  ",
"                #...@.@@@.@...Oooo+O@.@OOOOO@.X..@##                   ",
"                #....@@@......OoooooO.@@+oO...#XX.#                    ",
"                 ##..........@@OOoo+O..@@O@.X.X.##                     ",
"                  #.XXXXX....@..O+++@.@@....XX..#                      ",
"                   ##.XX.X.X.@.X@@OoOOOO@..XXXX#                       ",
"                    #....XXXX..XX.O+ooooO.XXXX                         ",
"                    #X...X.X.XXX..O+ooO@@X.X.@X                        ",
"                     XX.....XXXXX.Oooo@XXXXX@o.                        ",
"                     ##..X.X.XXXX.@oooO@@@@@O+@.                       ",
"                      #.XXXXXXXXXX@oooo++++++o+o.                      ",
"                       ##X.@@@@@@@@@@@O+++++++++O.                     ",
"                        #X@o++++oo@#XX@+++++o++++o.                    ",
"                        X@O+++++O@.#XXOoo+o++++o++O.                   ",
"                        .oo++o++@XX#X.Ooooooo+++++oo@                  ",
"                      #.Ooo+++O@.XX#X.@@Oooo+++o+o+o.                  ",
"                      .oooo+++@XX@X#X.XX@oooo++oooo+X                  ",
"                    #.Ooo+o+O@.XXXXX.XX..@+ooo+O+oooO.                 ",
"                    .oooo+++@XXXXX..XX..XX@oooO@Oooooo@                ",
"                  #.OO+oo+oo@XXXXXX@..X..X@@OOOOOO+o+O.X               ",
"                  .oO@OoooooO.XXXX.@......XX.@Oo+@OoO@@@X              ",
"                 X@OOOooooOO@...XXX@........@O+OOOoo+OO@@.             ",
"                #@@@OoooooO....@.#X.......@@OoO@OoooooO@Oo@            ",
"               #.@@@OO+o+O@...@.X .....@...@OO@@Oo+OOOO@Oo@X           ",
"              #@O@@@@@OoO@...@..X #@@..@..@@..@@OoO@@@@@OoO@X          ",
"             X.@@@@.@@@O@@@.@..#   #.OO@@.@@@O@@OOO@@@@@OOO..X         ",
"            #..@@@...O...@@@..X     .oO@@@@@OoO@@@@@@@@@@@...@X        ",
"           #....@.@.OO@.@@@@.       .OO@OOO@OOO@OO@@@@@@@@...@#        ",
"          #O@@@....@OoOO@@@@X       X@@@OoO@@@@@OoO..@@@@@@...#        ",
"         #.@.@....@@OOO@@@XX         X.@OOOOO@@@OO@.@....@.@..##       ",
"        #@O@.......@@@@@@@X           X@@@OoO@@@@@@X..XXX..@....#      ",
"       X........@OOOO@@@XX             #@O+o+OOOOOOO.X.X...@....##     ",
"      #...XXX...OoooO@@@#               .oooooo+oo++@XXXX.......#X#    ",
"    #....#....@OOO+oO@X#                 .Ooooo++o++O@@X..X.X.X..XX.   ",
"    .oO.XXX...OoO@OoO@#                   .ooo++++++ooO...XXXX..XXOo@  ",
"XX..OoOO.XX.@OOo+Ooo+O@.X.          #..XXX@+Oo++o+o+ooOO@X.XXX.OO@OoO.X",
"OO+oooooOXXX@ooooooooo+OOO.         .o+OOOOOOOOooooo++oo@XXXXX@oooooooo",
"OOO+Oo+oO@.X@ooooo++OoOOO@X         .oo+OOOOOOO++Oooo+oo@XXX.@+o++OoO+O",
"OOOOOOOooo@X@ooooo+OOOOO@.          .ooo+OOOOOOOOO+ooo++@XXX@ooo+OOOOOO",
"+OOOOOO+++O@Ooo+O+OOOO@@..#         .ooooOOOOOOOOOO++OooO@@@O+O+OOOOOOO",
"oooOOOOOOOOoooOOOOOOOO@...X         .ooooooOOOOOOOOOOO+ooooo+OOOOOOOOO+",
"ooOX......@@@@@..@..@@....          .oooooO...........@@@@@@..........@",
"oo@XX###############X.....#         .ooooo@###################X##X####X",
"@@X#################XX....#         .oooO@XX##########################X",
"######################X...#         .ooo@##############################",
"#######################XX.#         .oO@XX#############################",
"########################X.#         .o@#X##############################",
" # # # # # # # # # # # # #           @      #  # # # # # # # # # # # # ",
"                                                                       "};
