/* XPM */
static char * titleI_xpm[] = {
/* width height ncolors chars_per_pixel */
"41 74 8 1",
/* colors */
" 	s None	c None",
".	c #802F00",
"X	c #A06000",
"o	c #903F10",
"O	c #F0D040",
"+	c #D09E20",
"@	c #F0C030",
"#	c #C07F10",
/* pixels */
"                                         ",
"                                         ",
".Xoooooooooooooooooooooooooooooooooooooo ",
"XOO+++++++++++++++++++++++++++++++++++++X",
"XOO@+++++++++++++++++++++++++++++++++++# ",
"XOOO@+++++++++++++++++++++++++++++++++#X.",
"XOOOO++++++++++++++++++++++++++++++++#XX ",
"XOOOOO@+++++++++++++++++++++++++++++#XXX.",
"XOOOOO+XXXXXXXXXXX++@@+#XXXXXXXXXX##XXXX ",
"XOOOOO#...........#OOO+Xo.o.......oXXXXXX",
"XOOO+#oo....o#####+OOO#oXoo.o.......XXXX ",
"XOOO#.......#OOOOOO@OO#ooXXX.o....o..XXX.",
"XO+#oo..o###+OOOOO@@OO#ooX.X.....o..o.XX.",
"XO#.o...#OOOOOO@@@@@OO#oooooXXXXX......X ",
" #     . #+OOO@@@@@@OO#ooooooXXXo  . . . ",
"          oO@@@@@@@@OO#ooooooooX.        ",
"          XO@@@O@@@@OO#ooooooooX.        ",
"          X@@@@@@@O+OO#ooooXXooo         ",
"          X@OO@@@@O@OO#ooooXoooX.        ",
"          X@@OO@@+OOOO#ooooXXoXX.        ",
"          XO@O@O+O@@OO+ooooXoXoX.        ",
"          XOO@@@@@@@@O+XooooXXXX.        ",
"          XO@OOO@@O@OO+XXooooXXX.        ",
"          X@@OOOOOOOOO+XXXXoXXXX.        ",
"          XOOOOOOOOOOO+XXXXoXXXX.        ",
"          XOOOOOOOOOOO+XXXXXXXXX.        ",
"          XOOOOOOOOOOO+XXXXXXXXX.        ",
"          XOOOOOOOOOOO+XXXXXXXXX.        ",
"          XO@+@OOO@+@O+XX#XXX#XX.        ",
"          XO+#+OOO+#+O+XX#XX##XX.        ",
"          XO@+OO@+++OO+X###XXX#X.        ",
"          XOOOOO+#+OOO+XX#XXXXX#.        ",
"          o+++++++OOOO+X#X#X#X##.        ",
"          o#####+OOOOO+##XX#####.        ",
"          o#####++OOOO+##X#X#X##.        ",
"          .#######+OOO+###XXXXX#.        ",
"          o++#####++@O+####X#X##.        ",
"          XO+#######+O+#########.        ",
"          o@+#######+O+#####+++#.        ",
"          .#########+O@#####+O+#.        ",
"          .##X##XX##+O+#####++++X        ",
"          .#XXX##XX#+O+#######+OX        ",
"          .+#X##XXX#+OO++##++#+OX        ",
"          .#####XXXX+OOO+#+O+#+OX        ",
"          .##XX#XXX#+OOO@+OO@+OOX        ",
"          .#XXXXXX##+OOOOOOOOOOOX        ",
"          .#XXXXXXX#+OOOOO@+@OOOX        ",
"          .XXXXXXXXX+OOOOO+#+OOOX        ",
"          .XXXXXXXXX+OOOOO@+OOOOX        ",
"          .XXXXXXXXX+OOOOOOOOOOOX        ",
"           oX.XXXXXX+OOOOOOOO@@OX        ",
"          .ooo.XXXXX+OOOOOOO@@@@X        ",
"          .oX.XXXXXo+OOOO@OOO@@OX        ",
"          .XXXXXXXoo#OOOO@OO@@@OX        ",
"          .oX.XoXXoX#OOO@@@O@O@OX        ",
"           ooooooooX+OOOO@@@OO@@X        ",
"          .ooooooooX#OO@O@@@@O@@X        ",
"           ooooooooo#OO@@OO@@@@@X        ",
"          .ooooooooo#OO@@O@@@@@OX        ",
"          .ooooooooo#O@@@@@@@@@OX        ",
".XooooooooX###Xooooo#OO@@@@@@O@O+ooooooo ",
"XOO+++++++OOOO#ooooo#OO@@@@@OOOO++++++++X",
"XOO@+++++++@+O+###Xo#O@@@O@O@@+@+++++++# ",
"XOOO@++++++++++OOO#o#OO@OOO@@+++++++++#X.",
"XOOOO++++++++++O+O+#@O@+@@+@++++++++###X ",
"XOOOOO@+++++++++++@OOO@+++++++++++++#XXX.",
"XOOOOO+XXXXXXXXXXX####XXXX#XXXXXXXX##XXX ",
"XOOOOO#.................o.........oXXXXX.",
"XOOO+#oo..........................oo.XXX.",
"XOOO#...............................oXXX ",
"XO+#oo..............................oooX.",
"XO#.o.................................oX.",
" #      .  . . . . . . . . . . . . . . . ",
"                                         "};
