/* XPM */
static char * titleO_xpm[] = {
/* width height ncolors chars_per_pixel */
"83 74 9 1",
/* colors */
" 	s None	c None",
".	c #A06000",
"X	c #F0D040",
"o	c #F0C030",
"O	c #D09E20",
"+	c #802F00",
"@	c #903F10",
"#	c #C07F10",
"$	c black",
/* pixels */
"                                .XoOOOOOOOOOOOOOoX.                                ",
"                                .XOOOOOOOOOOOOOOoX.                                ",
"                        +.@@@@@@OOoOOOOOOOOOOOOOOo#@@@@@..                         ",
"                        .XXOOOOOOOOOOOOOOOOOOOOOOOOOOOOOoX#                        ",
"                    +@@@OOOOOOOOOOOOOOOOOOOOOOOOOOOOOOOOOX#@@@                     ",
"                    @OOOOOOOOOOOOOOOOOOOOOOOOOOOOOOOOOOOOOOOOO.                    ",
"                +@@@#OOOOOOOOOOOOoOo#.........OoOoOOOOOOOOOOOO#@@@                 ",
"                @OOOOOOOOOOOOOOOoXXX#+++++@+++#XXXoOOXOOOOOOOOOOOO.                ",
"            +.@@#OOOOOOOOOOOOo#..###@@++++++++@###..OXoOOOOOOOOOOO#@..             ",
"            .XXOOOOOOXOOOOOOoX#+@+++++++++++++++++++#XXoOOOOOOOOOOOOoX#            ",
"          +@OXoOoOOOXooOO#...#@@++++++++++++++++++++@######OOOOOOOOoOo#.           ",
"          @OOXooooXooooo#.@+@+@+++++++++++++++++++++++++@.#OOXOOOXXOoOOX.          ",
"        +@#OooooooooOOOO.+@++++++++++++ + + ++++++++++++@@.#OooOOOoooOXX#@         ",
"        @OooooooooooOO#.++@+++++++++++       ++++++++++++@@.OoOOOOOXooooOO.        ",
"      +.#OooooooooooO#..+@++++++++$+ +       + ++++++@+++@@@##OOOOOoXooooo#@       ",
"      .XXoooooooooooO.+@+++++++++++              ++++@@++++@..OooOoooOoXooOO.      ",
"      @oooooooooooO##+.@@++++++++                +++@@+++@@++@.OOOoooooooooO.      ",
"      .Xoooooooooo#..@@@@@@@@@@@                  ++@@@@@@++++@.OoooooooXoXo.      ",
"    +.OoooooooooooO+@@@@@@@@@@+ +                  ++@@@@@@+@+@@#ooooXoooXooO@     ",
"    .ooooooooooooo#@@@@@@@@@@@+                      @@@@@@@@@++#XXXXXoooXXooX#    ",
"    .ooXoooooooXO#@@@@@@@@@@+                       + @@@@@.@@@+.#OXXooXooooXO.    ",
"    .oooooooooXX#@@@@@@@@@@@+                         +..@@.@@@@@@#oooXXooXXXX.    ",
"  +.OooooooXoOXX#@@@@@@@@@@@+                         +.@@...@@@@@#XoXXXXoooooO@   ",
"  .oooooooXXoXXX#@@@@@@@@@..+                         +.+@..@@@@@@#XXXXXXXooXXXX#  ",
"  .XXoXooooXoXO#.@@@@@.@@@++                           ++@@.@.@@@@#OOXXXXXoooXXo@  ",
"  .XXXXoooOXXX#@@#.......@                              +@@@@.@@@@@.OXXXXXoooXoX.  ",
"  .XXXXooXXXoXO@@@.....@.@+                              .@@@.@.@.@@OXXXXXXoXXXX.  ",
"  .XXXXXXXXXXXO..@@....@@.+                             +.@@@@.....@#XXXXXXXXXoX.  ",
"+.OXXXoOoXXXXXO.@......@..+                             +..@.@.....@OXXXXXXXXXXXO. ",
".XXXXXO#OXXXXXO...........+                             +.......###.OXXXXXXXXXXXXX#",
"@OXXoOO#OXoOOO#......#..++                               ++.........#OOOOOOOoXXXXX.",
"@#OXO###OXO#...##@..##..+                                 +O...........#####OXXXXX.",
"+#OXO###OOOOO@.##.....#.+                                 +#.....#.#..#OO###OXoOoX.",
"+#OXO#####OXO.##.......#+                                 +#....####..OXO###OXO#OX.",
"+OOOO#####OOO.###.#...##+                                 +###.#.####.#OOOO#OOOooX.",
"+####################..#+                                 +#############oXO###OXXX.",
"+###########OOO###OO####+                                 +#############OOO###OOOO@",
"+###########OXO###OXO###+                                 +#######################@",
"+###########OXO#OOOOO###+                                 +#OO######OOO##########.@",
"+O.#########OXO#OXO#####+                                 +#OXO#####OXO#########..+",
"+###....####OOOOXXoOOOOO.                                 +#OOOo##OOOOO######.###.+",
"+###.....#####OXXXXXXXXX.                                 +###OXO#OXo#######..####+",
"+#.##..#.#.##OXXXXXXXXoO@                                 @OOooXO#OOOOO######..#.#+",
"+..#..##....OXXXXXXXXXO#@                                 .XXXXXO###OXO########...+",
"+.###.#.##.#OXXXXXXXXXoO#.                              +.OOXXXXoOOOXXO.#.#.##....+",
"+#####...###OXXXXXXXXXXXXX#                             .XO#OXXXXXXXXXO......##...+",
" +...#.####.OXXoXXXXXoXXXX.                             .XXOoXXXXXXXXXO......#..++ ",
"  +...####..OXXoXXXXXooXXX.                             .XXXXXXXXXXXXXO.........+  ",
"  +.........#OOooXXXooooXX.                             .XXXXXXXXXXXO##.........+  ",
"  +.....@@@...OooXXXXoooXX.                             .ooXXXXXXXXX#@@.........+  ",
"  +..+.......@#XXXXoXooooXO.                          +.OooXXXXXXooXO@.........@+  ",
"  +.+@......@@#XXXXooXXooXXX.                         .ooooooooXXooXO.........@@   ",
"   @+@@@.@...@#OOXoooXoooXoX.                         .oooXOXoooXoO#.@.@.@.@..@+   ",
"     @@@@@@.@@@.OoooooooooXX.                         .ooooXooXoXXO@@@@@@@@@@.+    ",
"    +@@.@....@@@#OoooooooooXO@                      +.OooXOoooooOO#@@@@@@.@.@@+    ",
"    +@@.....@@@@.#OoooooooooXX.                     .oooooXoXooXO#...@@@@....@     ",
"     ++.@.@.@@@@@.OooooOoOooOo#.                  +.OooXoooooooX#..@@@@@@.@.++     ",
"      +..@@@@@@@@@#XXooOOOOoOOoX.                 .XXoooooooooXoO@@@@@@@@@@@       ",
"      ++@@@@@@@@@@.#OooOoOoooOOOO.              +.OXoXOXOOooooO#.@@@@@@@@@@++      ",
"       @@@@@@@@@@@@@#XXoooooOOOOOX.             .XXoooXooOOooX#@@@@@@@@@@@++       ",
"      + @@@@@@@+@@@@.#OXoOoOOOOooo#@@@      +.@@OOoOOOOOOOoXO#.@@@@+@@@@@@+ +      ",
"        +@@@@@+++@@@@+#XoOOOOOOooXOOOO.     .XXOOOOOOOOOOOoX#@@@@@++@@@@@@+        ",
"         ++@@@@+@@@@@+.#OoOOOOOOoOOOOO#@@@@@OOOOOOOOOOOOOXO#@@@+@++++@+++          ",
"           @@@@@@@@@@@@@#XoOOOOOOOOOOOOOOOOOOOOOOOOOOOOOoX.@@++++++++++++          ",
"           ++@++++@+@@@@@##.#oOOOOOOOOOOOOOOOOOOOOOOOoO.##@@+++++++++++            ",
"             @@+++++@@++++++#XoOOOOOOOOOOOOOOOOOOOOOoX#@++@@@@++++++++             ",
"            + +@+++++@++++++.##.OooOOOOOOOOOOOOoOo#..#@@+++++++++++++ +            ",
"              +@++++++++++++@@@@#XXXoOOOOOOOOOoXXX#+@+@++++++++++@@+               ",
"               + ++++++++++++@+@@###...........###@@++++++++++++++ +               ",
"                   +++++++++++++++++@+++++++++++++++++++++++++++                   ",
"                   + + ++++++++++++++++++++++++++++++++++++ + +                    ",
"                         +++++++++++++++++++++++++++++++++                         ",
"                         + + + +++++++++++++++++++  +   +                          ",
"                                 @+++++++++++++++++                                "};
