/* XPM */
static char * titleN_xpm[] = {
/* width height ncolors chars_per_pixel */
"85 74 8 1",
/* colors */
" 	s None	c None",
".	c #802F00",
"X	c #A06000",
"o	c #903F10",
"O	c #F0D040",
"+	c #D09E20",
"@	c #F0C030",
"#	c #C07F10",
/* pixels */
"                                                                                     ",
".Xoooooooooooooooooooooooooo                          .Xoooooooooooooooooooooooooooo ",
"XOO+++++++++++++++++++++++++X                         XOO+++++++++++++++++++++++++++X",
"XOO@+++++++++++++++++++++@@@+X                        XOO@+++++++++++++++++++++++++# ",
"XOOO@+++++++++++++++++++@OOOOO#                       XOOO@+++++++++++++++++++++++#X.",
"XOOOO++++++++++++++@@@@@@OOOOO+X                      XOOOO++++++++++++++++++++++#XX ",
"XOOOOO@+++++++++++@OOOOOOOOOOOOO#                     XOOOOO@+++++++++++++++++++#XXX.",
"XOOOOO+XXXXXXXXX++OOOOOOOOOOOOOO+X                    XOOOOO+XXXXXXX##+@#XXXXX##XXXX ",
"XOOOOO#.........#OOOOOOOOOOOOOOOOO#                   XOOOOO#.......oX+O#.....oXXXXXX",
"XOOO+#oo....o###+O+#+OOOOOOOOOOOOO+X                  XOOO+#oo...oo..X#O+#Xoo...XXXX ",
"XOOO#.......#OOOOO#.#OOOOOOOOOOOOOOO#                 XOOO#......ooXXo#OOO+Xo....XXX.",
"XO+#oo..o###+OOOOO#.o#+OOOOOOOOOOOOO+X                XO+#oo....ooX.oo#@@O++X..oo.XX.",
"XO#.o...#OOOOOO@OO#...#OOOOOOOOOOOOOOO#               XO#.o....XXXXooo#@@@OO+XX....X ",
" #     . #+OOO@@@O#...o#+OOOOOOOOOOOOO+X               #     . .X.oooo#@@OOO# . . .. ",
"          XOO@@O@O#...o.#OOOOOOOOOOOOOOO#                        Xoooo#@@+OOX        ",
"          XO@@@@OO#.....o#+OOOOOOOOOOOOO+X                      .oooXo#O@@@OX        ",
"          X@@O@@OO#o......#OOOOOOOOOOOOOOO#                     .ooXXX+@@@@Oo        ",
"          X@@O@OOO#oo.....o#+OOOOOOOOOOOOO+X                     XoXXX#@@@@@X        ",
"          X@OOOOOO+Xo.....o.#OOOOOOOOOOOOOOO#                   oXooXX+@@@@@X        ",
"          X@OOOOOO+Xo.......o#+OOOOOOOOO@+@O+X                  ..XoXo#@@@@OX        ",
"          X@@OOOOO+o.o.ooo..o.#OOOOOOOOO+#+OOO#                 .ooXXo#@@@@OX        ",
"          XOOOOOOO+Xo.oooo....o#+O@+@OOO@+++@O#o                 XXXXo#O@@@OX        ",
"          XOOOOOOO+X.o.ooo...oo.#O+#+OOOOO+#+O+#o               .XXXXX+O@@OOX        ",
"          XOOOOOOO+Xoo...o......o#++OOOO@+++OO@++X              .XXXXX+@OO@OX        ",
"          XOOOO@OO+X.o..........o.#OOOOO+#+OOOOOOO#             .XXXXX#@OOOOX        ",
"          XOOOOOO@+XXooo..........X#++@O+#+OOOOOOO+X            .XXX#X+@@OOOX        ",
"          XOOOOOOO+XXXXo......ooooooX#+O+#+OOOOOOOOO#           .XX###+@OOOOX        ",
"          XOOOOOOO+oXXo......o.ooooooX+O@+OO@+@O@+++#X          .XX###+O@OOOX        ",
"          XOOOOOOO+XXXo.....oo...ooooo#OOOOO+#+O+###+O#         .XX###+OOOOOX        ",
"          XO@+@OOO+XXXo ....ooooooooooX#++@O@++++++#+++X        .X####+OOOOOX        ",
"          XO+#+OOO+oXX. .oooooooooooooo.o#+OOO+#+O+###+O#       .#####+OOOOOX        ",
"          o+++OOOO+XXX.  ..ooooooooooooooX+O@++#+++#++++#X      .#####+O@+@OX        ",
"          o#+OOOOO+XXX     ooooooooooooooo#O+#######+O+#+O#     .#####+O+#+OX        ",
"          o#++OOOO+XX#o   . ooooooooooooooX#####++++++++@+#o    .####+@++#+OX        ",
"          .###+OOO+###.     .ooooooooooXXoooX###+OOO@#+O+###o   .###+O+###+OX        ",
"          .###++@O+###.      ..oooooooXXoXoooX#+@++++#+O+###Xo  .#++OO+###+OX        ",
"          .#####+O+###.        ooooooooXXXoooo#O+#####+O+#####o .#+OOO+###+OX        ",
"          .#####+O+#++o        ..oooooXXXoooooX#####++@++++###Xo#+++OO+###++o        ",
"          .+####+O+#+OX         .XoooooXooooooooX###+O+#@O+#####+O+#+O+#####o        ",
"          .XXX#X+O@#+OX          .oooXXXXoooooooX###+O+#+O@++++#+OO+OO+#####o        ",
"          .XXXXX+O+#+OX           .ooXXXoooooXXooXX#+O@#+OOOOO+#+OOOOO+#####.        ",
"          .XXXXX+O@+++X            ..XXoXoXoXXoooXX##++#++@O@++#+OOOOO+#####.        ",
"          .XXXXX+OOO@#o             .XooXXXXXXooXXXX######+O+###+@OOOO+#####.        ",
"          .XXXXo+O@+##o              ..ooXXXXXooooXXX#####+++###+O@OOO+#####.        ",
"          .#XXXX+O+###o               .ooXXXXXXooooXXo##########+OOOOO+XX###.        ",
"          .#XXXX+O@+++o                ..XXXXXXooXXXXXX#########++@O@O+X###X.        ",
"          .XXXXX+OOOOOX                 .XXXXXXXXXXXXXXo##########+@OO+###XX.        ",
"          .XXXXX+OOOOOX                  .oXXXXXXXXXXXXXX#########+@@@+#X##X.        ",
"          .XXXXo+OOOOOX                   .XXXXXXXXXXXXXXo########+@@@#X##XX.        ",
"           X.X.X+OO@OOX                    ..XXXXXXXXXX#XXXX######+@@@+X###X.        ",
"          .ooooo#OO@@OX                     .XXXXXXXXX##XXXX######+@@@+###XX.        ",
"           ooooo+O@OOOX                      ..XXXX#XXXX#XXXXX####++@@+X#XXX.        ",
"          .ooooX+OOOOOX                       o##X##XXXXXXXXXX######+@#XXXXX.        ",
"          ..oXXX+OOOOOX                        .XoX##XXXX#X#X#X#####+@+XXXXX.        ",
"          .XXXXX+OOO@Oo                         .XX####XX#####XXX###+@#XXXXX.        ",
"          .oooXo+O@@@OX                          .X####X#####X#X####+O+oXXXX.        ",
"           oXooo#OO@@@o                           .#########XXX#####+O#ooXXX.        ",
"          o+oooo#OO@@OX                            .X####X####X####X+O+oXXXX.        ",
"          XO+ooo#OO@@@X                             .###XX####XXX#XX+O+XXXXX.        ",
"  .XooooXX+O+#Xo#OO@@@+XooooooXX                     .X##X#####X###X++#XXoXo.        ",
"  XOO+++OOOOOO#o+OO@@OOOO++++++OX                     o###############XXXooo         ",
"  XOO@+++@+@@O+#+OOOOOO++++++@++o                      .X##############Xoooo.        ",
"  XOOO@+++++@OOOOOOOOO++++++@O+X                        .#############XXoooo         ",
"  XOOOO++++++@OOOOOOO@+++++@++#X.                        .X#########++#Xoooo.        ",
"  XOOOOOO++++++OOOOO@+++++@O+XXX                          o#########+O#ooooo.        ",
"  XOOOOO+XXXXX######XXXXXX#+#XXX.                          .X#######+O#ooooo         ",
"  XOOOOO#...............o.oXXXXX                            .#######+O#ooooo.        ",
"  XOOO+#oo..................XXXX.                            .X###++@O+ooooo.        ",
"  XOOO#......................XXXo                             o###+OOO+Xoooo         ",
"  XO+#oo....................o.XX                               .X#+O+#XoXooo.        ",
"  XO#.o.......................oX.                               .#+O#...oXXo.        ",
"   #      .  .  . . . . . . . ..                                 oX#oo...ooo.        ",
"                                                                   oo.....oX.        ",
"                                                                                     "};
