/* XPM */
static char * titleB_xpm[] = {
/* width height ncolors chars_per_pixel */
"73 74 8 1",
/* colors */
" 	s None	c None",
".	c #802F00",
"X	c #A06000",
"o	c #903F10",
"O	c #F0D040",
"+	c #D09E20",
"@	c #F0C030",
"#	c #C07F10",
/* pixels */
"                                                                         ",
"                                                                         ",
".XooooooooooooooooooooooooooooooooooooooooooooooXXXXXX                   ",
"XOO+++++++++++++++++++++++++++++++++++++++++++++@OOOOO#                  ",
"XOO@+++++@+++++++++++++++++++++++++++++++++++++++@@+OO#ooo               ",
"XOOO@++++O+++++++++++++++++++++++++++++++++++++++++++O++++X              ",
"XOOOO+@+@++++++++@+++@+@+++++++@+++@+++++++++@+++++++O++@++oXX           ",
"XOOOOOO@+++++++++O+++O@@+++++++O+++O+++++++++O+++++++O@++O@OOOX          ",
"XOOOOO+#X#XXXXX#+OO@+#X##XXXX#X##X##XXXXXXX#X#+@+@+++++@@@@@+++X         ",
"XOOOOO#....o.o..#OOO#.....o.o.......oo.o.o....#OOO@+++@@@@@@+++OX        ",
"XOOO+#oo..o#####+OOO#.o.......................o####X++@+@@@@@@OO+X       ",
"XOOO#.....#OOOOOO@OO#ooo.......o.......oo..o..o.oo..#O@++O@OOOOOOOX      ",
"XO+#ooo###+OOOOO@@OO#oooo.ooo..oo.........ooo.oooo..o+++OO@@O@OO@O+X     ",
"XO#.o.#OOOOOO@@@@@OO#ooXoooXo.oXoo.......ooXo.oX.oo.oo#OOOO+OOOOOOOO#    ",
" #    oX+OOO@@@@OOOO#oXoXoXXo.... . . . .oXXoo.XXooo.oX#+OOO@OOO@OOO#o   ",
"        XOO@@@@@OOOO+XoooXXXoo          .XXXXXXXXXXooooo+OOOOO@OOOOO+#o  ",
"        XO@@OOOOOOOO+XXX#XXXXX.          ....oX#XXXoooooX#+O@+@@+++++#o  ",
"        X@@@OOOOOOOO+XX####XXX.             .oX##XXXXXXXXo+O+#+O+#####o  ",
"        X@@@OOOOOOOO+XX####X#X.              .oXXX#XXX#XXo+O@+++##++++o  ",
"        X@OOOOOOO+@O+XX#######.               .XX####XX##X+OOO+XXX+OOOX  ",
"        XO@OOOOOO@OO+X#####X##.                .X####X###X+O@+##XX#+++o  ",
"        XOO@OOOOOOOO+#####XX##.                 .#########+O+######o##o  ",
"        XOO@OOOOO@@O@++++##X#+X                 .#####+++#+O+XX#XXX#X#.  ",
"        XOOOO+O+@@@OOOOO+###+OX                 .#####+O+#+O#ooXooX#XX   ",
"        XO@OO@@O@@OOOO@++#++@OX               .X+++++++++@@O+oXXXoXXXXo  ",
"        X@@@@@@OOOOOOO+###+OOOX               XOOOOOO@+#+OOO+XXXXXoooX.  ",
"        XO@OO@O@@O@OOO@+++++OOX              o#OOOOO@@@+OO+#XoXXoXoooo.  ",
"        XOOOO+@@@@@OOO@@OO@#+OX             .#+OOO@O@OOOOO#ooooXXooooo   ",
"        XOOOOO@O@@OOOOO@@O@+@@X          .oo#+@@@+@@OO@@+#Xoo.oooooo..   ",
"        XOOOOOOOOOOOOO@@O@OOO@X         .#+++O@O@++O@O@@#.....oooo..     ",
"        o+@O@+@OOOOOOO@@OOOOO@#oooXXoooo##++@@O@@+@+O@+#oo...o.oooo..    ",
"        o#+O+#+OOOOO@@@@@OOOOO@++++O@++++++O@@@@@@+++@#.oo...oo..o..     ",
"        o#++++++@OOOO@@OOO@@+@+++++++++++++@++O@@O@@+#X..o...o...o. .    ",
"        .###+O+#+OOO@@@OOO@++++++++++++++++++++@@+OO#oooo.........       ",
"        o++#+OO+@+@OOO@@@++++++++++++++++++++O@@+###oo........... .      ",
"        XO+#+OOO+#+OO@@+++++++++++++++++++++@OOO#...o...........         ",
"        o+++++++++OO+#XXXX#X#XXXXXXXXXXXXXXXX###ooo#XXXXXXXX##X#.        ",
"        .X+O++##@OOO#......o..........ooo...o.....#O@++++++++@@+o        ",
"        .X+++####+@O#.o...ooo.o........oo.........o#XX+@+++++@++#oXX     ",
"        .#######XX+O#oooo..oooooo......ooo.......ooo..#O@+++++@@++@O#    ",
"        .##X#####X+O#oooo.oooo.o.oo....oo.o.ooo.oo....X#+@+++@+O+++@#X   ",
"        .#XXX#####+O+ooooooXo...oXo...oo...ooXXoooooo.oo#O@++@@@@+++@O#  ",
"        .#XX######+O#ooooXoXoo. .. . . . ...oX..o.oo...oX#+@@@O@@++++@o  ",
"        .XXXX#####+O#ooXXXooXX.            o.oo...ooo..ooo#OO@@@@@++++o  ",
"        .XXXX##X#X+O+oXXXoXXoo.            . ...ooooooooooX#+@@O@@O@+@+X ",
"        .XXXX#XXXX+O+XXXoooXXo                 oXXXXXXXXXooo#@@OO@@OO@@O#",
"         oXXXXX#XX+O+XXXXXXXXXo               . o#XoXXX#XooX#OOOOOOO@OOOX",
"        .o.XooX##X+O+XXX###X##.                 o#XooX##X#XX+OOOOOOOO@@@o",
"        .ooXoooXoX#O+X#X#XX#X#.                  .oXX#X##XXX+OOO@+@@@@O@X",
"         ooooooooo#O+###XX####.                   o########X+OOO+#+@OO@Oo",
"        .ooooooooo+O@++##X####.                   .#+++#++##+O@++#++++@OX",
"        .XooooooXX+OOO+#######.                   .#+O+#+O+#+O+#######+OX",
"        ..XooooXoo+O@++++++#++o                   .#+++++@++@O+#######++o",
"         XoooooXXo#O+#+OOO+#+OX                   .###+O+#+OOO+o########o",
"        .ooooXoXoX#O+#+OO+++OOX                 .X++++OO+#++@O+XX######X.",
"        .XooXXoooX+O+#@O+#@OOOX                 X@OOOOOO+###+O+X######XX.",
"        ..XoXoXoXo+OO+@O+#+OOOX               .X+OOOOO@O@+++++#XX##X#X#o.",
"         XoXXooXXo#OOOO@+#+OOOX               XOOOOO@O@@@@OO@##XX##XXXXX.",
"        o+XoXoXooX#OOOO@@+@OOOX           .Xoo+OOOOO@@@@@@OO+#XoX#XXXX.. ",
"        XO+ooXooXX+OOOOOOOO@OOX           XOO++O+O+@@@O@@OOO+#XooXXXXX.  ",
".XooooXX+O+#XoXooo+OO@OOO@@@@+#ooooooooooo+++++O@+@+++++@O@+##XoXoXoXX.  ",
"XOO++++O@OOO+ooooo#OO@OO@@@@++++++++++++++++++@@++++++++@O+XXXXXoooooX.  ",
"XOO@+++@@@OO+###Xo#O@@@O@+@+@++++++++++++++++++++++++++@+#XooXooXooo..   ",
"XOOO@++++O@@OOOO#o#OO@@@@+++++++++++++++++++++++++++++O@#oooooooXXXo.    ",
"XOOOO+++++++@OOO+#@O@+@++++++++++++++++++++++++++#+##X##Xoooooo.oo.      ",
"XOOOOOO+++++@@@@OOOO@+++++++++++++++++++++++++++####Xoooo..ooo...o.      ",
"XOOOOO+XX#X#X########X#X#XXXXXXXXXXXXXXXXXXXXXXXXXoXoooo..oooo.o.        ",
"XOOOOO#oooooooooo.oooooo..........ooooooo.....ooooo.oooooooo...o.        ",
"XOOO+#Xoooo..ooo...oooooo...........ooooo.......o....oo.oooo...          ",
"XOOO#..ooo.....oo....ooo...............o.............o..oo....           ",
"XO+#oo.........o....o.oo.............................o... . . .          ",
"XO+oo...................................................                 ",
" # o   . . . . . . . . . . . . . . . . . . . . . . . . .                 ",
"                                                                         "};
