/* XPM */
static char * titleG_xpm[] = {
/* width height ncolors chars_per_pixel */
"88 74 8 1",
/* colors */
" 	s None	c None",
".	c #A06000",
"X	c #F0D040",
"o	c #F0C030",
"O	c #D09E20",
"+	c #802F00",
"@	c #903F10",
"#	c #C07F10",
/* pixels */
"                                  .XXXoooOOOOOOOOOOOOOoX.                               ",
"                                  .XXXooOOOOOOOOOOOOOOoX.                               ",
"                          +....@@@OOoOoOOOOOOOOOOOOOOOOo#@@@..      +.@@@@@@@@@@        ",
"                          .XXXoOOOOOOOOOOOOOOOOOOOOOOOOOOOOOoX#     .XXOOOOOOOOO.       ",
"                      +@@@OOXOOOOOOOOOOOOOOOOOOOOOOOOOOOOOOOOX#@@@  .XXoOOOOOOO#        ",
"                      @OOOOOOOOOOOOOOOOOOOOOOOOOOOOOOOOOOOOOOOOOOO. .XXXoOOOOO#.+       ",
"                  +@@@#OOOOOOOOOOOOoOo#...............OOoOOOOOOOOO#@OXXXXOOOO#..        ",
"                  @OOOOOOOOOOOOOOOoXXX#+++++@++@++@+++#XXXXOOOOOOOOOoXXXXXoO#...+       ",
"              +.@@#OOOOOOOOoOOOo#..###@@++++++++++++++@###..OOoOOOOOOooXXXO#....        ",
"              .XOOOOOOOOOXooOOoX#+++++++++++++++++++++++++++#XXXoOOOOOOXXXO......       ",
"            +@#XoOOOOOOOOXOOO..#@@++++++++++++++++++++++++++@O##..#OOOXXXXO.....        ",
"            @OOooXOOOOOOOooO.@++@+++++++++++++++++++++++++++@@++@+#XOOOXXXO.....+       ",
"          +@#oooOOoOOOOOXoO.@++++++++++++++ + + + + +++++@++++++++@#OoooXXO.....+       ",
"          @OOoooOOOXXoXoXX#@@++++@+++++@++           ++++@@+++++++++#XOOOXO.....        ",
"        +.#oooooOOooooXXO#@@+++++++++++ + +          + + +++++++++++@#OXXXO.....+       ",
"        .XooooooOOOoXooo#+@++@+++++++@+                    +@@+++@++@+#XXXO.....        ",
"      +.OOXooooooOXoooOO@@++@@+++++ +                      + +++@@@+++@#OXO.....+       ",
"      .ooXoooooooooooX#@@++@@@++++                             @@@@@++@@#XO.....+       ",
"      .XoooooooooXoXOO.@@+@@@@@++ +                            ++@@@@+@@.#......        ",
"      .XXooooooooXXX#@@@@@@@@@@@+                               +@@@@@@@@@@.....+       ",
"    +.OXXXoooooooXO#.@@@@@@@@@+                                  ++@@@@@@@@.....+       ",
"    .oooXXooXXXooXO@@@@@@@@@@@+                                   +....@@@@.....        ",
"    .oooXoXoXoXoXX#@@@@@@@@@+                                     +@@@@@@@......+       ",
"    .oXXXooXoooXXXO....@@@@@+                                      @@@@@........+       ",
"  +.OooXXXXXXXoXOO#...@@@@@@                                       +@.@..#.@@...+       ",
"  .XXoXXXXXXXXXXO.....@@...@+                                       +....#@+@...+       ",
"  .XXoXXXXXXXXXX#@......@.++                                        +.....@+@@@.        ",
"  .XXXXXXXXXXXXXO@@.......+                                         +..#.+++++@.+       ",
"  .XXXXXXXXXXXOO.@........+                                          +@.@++++++@+       ",
"  .XXXXXXXXXXXO...........+                                            +++++++++        ",
" @OXoOoXXXXXXXO...........+                                            + + + + +        ",
"+#OXO#OXXXXXXXO##.........+                                                             ",
"@oOOOOOOOOOOoXO#........++                                                              ",
".XO#OXO##O##OXO##....##.+                                                               ",
"@OO#OOO####OXXO#..#.###.+                                                               ",
"@#########OXXXO#########+                                                               ",
"+#########OOoXO#########+                                                               ",
"+###########OXO#########+                                                               ",
"+##.######.#OXO#OOO#####+                       +.@@@@@@@@@@@@@@@@@@@@@@@@@@@@@@@@@@@@..",
"+#...#####..OXO#OXO#####+                       .XXOOOOOOOOOOOOOOOOOOOOOOOOOOOOOOOOOOOoX",
"+#####..###.OXoOXXoOO#OO@                       .XXoOOOOOOOOOOOOOOOOOOOOOOOOOOOOOOOOOoOO",
"+######..#..OXXXXXXXO#OX.                       .XXXoOOOOOOOOOOOOOOOOOOOOOOOOOOOOOOOoXO.",
"+#..##.####.OXXXXXXXoOoXO.                      .XXXXOOOOOOOOOOOOOOOOOOOOOOOOOOOOOOoOO#.",
"+....#####..OXXXXXXXXXXXXX#                     .XXXXXoOOOOOOOOOOOOOOOOOOOOOOOOOOOoXO...",
" ++...#.#.#.#OoXXXXXXXXXXX.                     .XXXXXO...........OOooO##.........#O#...",
"  +........###OXXXXXXXXXXX.                     .XXXXX#+++++++++++#XXXO#@++@++++++@.....",
"  +........#.#OXXoXXXXoXoX.                     .XXXO#@@++++++@###OOoXO...@@+@+++++@+...",
"  +...........OXooXXXXXooo.                     .XXX#+++++++++#XXXO#OXO.###O.+++++++....",
"  +...........OXooXXXXXoooO@                    .XO#@@++++@###OXXXO#OXO..###.@@.@+++++..",
"  +...........OXoooXXXXXooXX.                   .X#+@+++++#XXXXoXXO#OXO..#######@++++++.",
"   ++..@@.....#OOXXXXoXooooX.                    #      @#OXXXXoXXOOOXO.########++ + + +",
"    +.++@@@.....OXXXXooooooX.                           #XXXXXXXXXO#OXO#########@       ",
"    +...@.......OXoXoooooooXO@                          @.OOoXoOOOO#OXoO##OOO#OO@       ",
"    +...........OXooooooooooXX#                           @#OXO#####OXXXO#OXO#OX.       ",
"     ++.+..@...@.#oooOoooooooo#.                          @OoXoOOOO#OXXooOoXoOoX.       ",
"       @...@@.@@@@#XoOOooooooXoX.                         .XXXXXXXO#OXoooooXXXXX.       ",
"      +@@.@@@.@@@@.#OooooooOOOoXO.                      @.OXXXXXXXoOXXXoooooXXXX.       ",
"       @...@@@@@@@@@#XXoooOOOOOooX.                     .XXXXoXXooXXXXooooooXXoo.       ",
"      + @@@@@@@@@@@@.#OXoOoOOooooX#.@@                  .XXoXooXooXXXXoooooooXoo.       ",
"        +@@@@@@@@@@@@@#XoOOOooooooXXOO.                 .oooooooXooooXXooooooooo.       ",
"         +++@@@@@@@@@@.#OoOOOooOOOOOoO#@@@           +@@#OOoOOooooooO###OOoooooo.       ",
"           ++@@@@@@@@@@+#XoOOoOOOOOOOOOOOO.         +#OOOOOOOOOXOooo#++@.#Oooooo.       ",
"           ++@@@@@@@@+++.##.OXoOOOOOOOOOOO#@@@@@@@@@##OOOOOOOOOoXoO#@@@@@.##OOoo.       ",
"            ++@@@@@@@+++@@++#XoOOOOOOOOOOOOOOOOOOOOOOOOOOOOOOOOOOX#+@@@@@+@..#OX.       ",
"             +++++++++++@+++.#OoOoOOOOOOOOOOOOOOOOOOOOOOOOOOOOOoO#@@++@+++@@..#O@       ",
"               +++++++@@++++@@#XXXoOOOOOOOOOOOOOOOOOOOOOOOOOOOoX#@@++++++++@++@.+       ",
"               + ++++++@+++@+@@####.#oOXOOOOOOOOOOOOOOOoOoO....#.+++++++++++@+++        ",
"                  ++++++++@@++@+@@++#XXXOOOOOOOOOOOOOOoXXX#@@++++++++++++++++@          ",
"                   + +++++++@++++@++@O###..............###@@+++++++++++++++ ++          ",
"                       +++++++++++++++++++++++++++++++++++@+++++++++++++++              ",
"                       + + ++++++++++++++++++++++++++++++++++++++++ + + + +             ",
"                             @++++++++++++++++++++++++++++++++++++                      ",
"                             + + + ++++++++++++++++++++++++  +  + +                     ",
"                                     +++++++++++++++++++++                              "};
