/* XPM */
static char * titleSmall_xpm[] = {
/* width height ncolors chars_per_pixel */
"237 37 8 1",
/* colors */
" 	s None	c None",
".	c #D09E20",
"X	c #F0D040",
"o	c #F0C030",
"O	c #A06000",
"+	c #802F00",
"@	c #903F10",
"#	c #C07F10",
/* pixels */
"                                                                                                .XXXXXXX.                                                                                                         ..oXXXXXXX.                ",
".XXXXXXXXXXXXXXXXXX..XXXXXXXXXXXXXX      .XXXXXXXXXXXXXXXXXXXXXXX...                        .XXXXXXXXXXXXXXX.               .XXXXXXXXXXXXXXXXXXX    .XXXXXXXXXXXXX             .XXXXXXXXXXXXXX                ..XXXXXXXXXXXXXXX.   .XXXXX    ",
"..XXXXXXXXXXXXXXXX.O..XXXXXXXXXXXXO      ..XXoXXXXXXXXXXXXXXXXXXXXXoXX                    XXXXXXXXXXXXXXXXXXXXX             ..XXXXXXXXXXXXXXXXXO    ..XXXXXXXXXX...            ..XXXXXXXXXXXXO              XXXXXXXXXXXXXXXXXXXXXX ..XXXO    ",
"...XXXXXXXXXXXXXX.OO...XXXXXXXXXXOO      ...oXXXXoXooXXXoXoXXXXoXXXoXooo                XXXXXXXX..+++++..XoXXXXXX           ...XXXXXXXXXXXXXXXOO    ...XXXXXX.......           ...XXXXXXXXXXOO            XXXXXXXX..++++++++..XXXXX...XOO    ",
"...++++++.+++++++OOO...+++++++++OOO      ...+++++..+++++++++++++..XXoooXo             .XXXoXXX.+++++++++++.oXXXXXX.         ...++++++..O+++++OOO    ...+++++.........          ...++++O.+++OOO          oXXXXooX.++++++++++++++..XXX..OOO    ",
"..++++..oo@@++++++OO..++++@.o.+++OO      ..+++...o.@@+++@+++@+@++@+.Xoo..o           XooooooO+++++++++++++++OXoXooXo        ..++++...o.@OO++++OO    ..++++...+........         ..+++@O@o.O++OO         XooXXXoX++++++++++++++++@++oX..OOO    ",
".+++..ooo..OOO@++++O.+++@O@oo...++O      .++...ooo.@O@O+O@+++@O+O@+@..o....         XoooooXO+++++++   ++++++@OoXXoooX       .+++...ooo.@@@OO+++O    .+++...o.++........        .+++OO@@oo.O++O        XooXooo.@++@++@+     ++@+++++.X.OOO    ",
"    .oo.o...OO@@O@    @O@Ooo...              .ooo..O@OO@     OOOOO@@@...o..#       oooooooO@+++++       ++@++@OoXooooX           ooooo.@@@@O             .oo.+++........            @@@oo.           ooooXoo.++@+++@          +@+@++..OOO    ",
"     ...o..oO##O#O   OO@@.oo..               oo....O##OO       @#OOOO@.#.###       ooooooO@@@@@@         @@@@++Ooooooo           ooooo.@@O@@             ooo.@+++........           @OOooo          ooooooo.@+@@++              @@@+@.OOO    ",
"     #..##...#O###O OOOO..##.                o...o.O####        O##O#O..OO..      ooooooo@@@@@@           @@@@@+...o.oo          o.oo..@@O@O             o...O++++........          O@Oooo          .oooo..@@@@@@                @@@@@OOO    ",
"      #.####..#####.OO#..#..                 .o....###O#         #####.###O#      ooooo.@@@@@@             O@O@@@oo.o.o          .oooo.O@@OO             o...O+@@++.....#..         @O@oo.         oo.o.o.@@@@@@                  OO@@OOO    ",
"       ###.###....#.#..#O##                  ..ooo...##.         ###.#.@O@#O     oooo.o.@@@@@O             O@O@@@....o.o         o.....OO@OO             ....O+@@+@+.#...#.#        OOO.o.         o.o.o..OO@@@                   @@@OOOO    ",
"        O#O##O#..#O.#.OO#O                   ooo....##..        ...o#..OOO@O     ..ooo.@OOOO@               @@O@@O...o.o         ......OOOOO             ..o.O@++++++...#....       OOOo..        .o.....OOO@O@                    OO#+OO    ",
"        OO##OOO...O#.OO@O                    ..ooo..o.#.       #o.o...@@O@@@     ......O@OO@O               O@@OO@......         ......OOOOO             ....OO@+++@@@#.#.....      O##o..        .......@OOOO                     O#+++O    ",
"         O@@OO#OooO#OO@O                     .......o..o     #Xo.Xo.o+++@@+     ...#...OOOOOO               OOOO#O.......        .#..#.O#O#O             ....OO+++@+@@@...#.##.     O##...        ......OOOOOO                      +++++    ",
"          OO@@O@Oo..O@@                      #.#...oo...XXoXXXooooXo+@+@+@+     #.##.#O#OO#O                 #OOOOO###...        ...#..O#OO#             .#..OO @@@@@@@+#..#.##.    ###...       #.#....#OOOOO                               ",
"          @OOO@@O..@@@o                      ##.#..o..XXXXXXXXXXoo.@@+++++      #.###.O#OOO#                 #OO##O.##.#.        ###...#O###             #...OO  @@@@@@@@.####.#.   ###.#.       .#.###.#OO#O                                ",
"           O@@@@@..ooooo                     .#..#..XXXXXXXXXXX..++++++++       ##########O#                 #######.##..        ####..##OO#             ##..##   @@@@@O@@##..#.##  ##.##.       #####..#####                                ",
"            @ooo.+@oooooo                    O.##..+++@+++++@+++++.XXXXoX       ######.##.##                 ############        .####.#####             ###.##    @@@@OO@@.###.### #..##.       ######.#####                                ",
"            .ooo@+O...ooo.                   ####O.@@+@@@+++@@+++@++.XXXoX.     ######.#.###                 #.###.#####O        #####.###.#             ###.#.     O@@O@@@@##.#.###.#.###       #O###O.#.###            .XXXXXXXXXXXXXXXXXX.",
"           ..oo@O+O@..o..o                   #O###.@@@O++O++@+@O@@@+@.XooXX.    ##OO###.....                 ##.#.####O##        #O#O#.####.             OOO.#.      @OO@@O@O#.#...#...###       ###O#O....#.            ..XXXXXXXXXXXXXXXX.O",
"          ..oo@@@O@O@..#...                  OO###.@OO@O      +@++@+@@.oooXX    O#O#OO.....#                 ...##.####OO        ###OO..#.#.             OOO..#       O@OOO@OO###.##o..###       OO###O.......           ...XXXXXXXXXXXXXX.OO",
"         .#...O@@#OOO@#.#.##                 OO#OO.OO@O@        @OOOO@@o.o.o.   ###O##.......               .#.....OOO#OO        #OOO#......             #OO.##        @OOO@@OO#####...O##        OOOO##......           ...++++++..#+++++OOO",
"        ##...OO#+OOOO#.#...#.                @O@#O.OO#O#         #@O#OO....oo    OO##O.o..o..               .......OOOOO         OOOOO...#..             OOO...         OOOOOOOO#####o.##O        OOOOOO.o..oo           ..+++++..#.O##++++OO",
"       ####.#O#O #O#O#O#.###.#               @@@@@.##O##          ####O..#o.o    OOO@OOo..oo.               o.....@OOOOO         OOOOO......             OOO...          OOOOOOOO####ooO#O        OOOOOO.o...oo          .++++..o.#.O####+++O",
"      O##O#O##O   .###.######O#              O@@@O..####          #.#.#.####.    O@OOO@..o.o.o             oooo.o.OOOOO@         @@OOO....oo             @@@.o.           OOOOO#OO###oo##O         O@@OOO..ooo.              .....#.#####    ",
"     ##OO#.###    ##.###.O###OO              @@@O@.#..#.          ##.#..O####     @@@O@Oooooo.             ooooo.@@@@@O          OOOO@..o.o.             @@O...            #O#OOOOO###oOOO         OOOOOO.oooooo              #.###.o#.#.    ",
"    ##OOO####      ##.###OO@O#OO             O@O@O.#.#..         o...##.O###O     @OOO@@#oooooo           oooooo#O@@OO@          @@@@O..oo.o             OOO..o             O##O###O##oOOO          @O@O@@.Xooooo             ....#.oo...    ",
"   OO@OO..##        o..o.o@@OOOO@            @O@O@..o#..        ...ooo.#O#OOO      O@@@@@.oXXoXo         .ooooo.@@@@@@           @@@@@.o.ooo             @@@.oo              #####O###.@OO          @O@@@@@.ooXXoo           ..o.o..ooo.o    ",
"  .O@OO.#.#          ..ooo.OO@@O@.           .@O@O....o.      .Xooooo..#@OOO       @@@@@@@.oooXXo       .oooXo.@@@@@@+           @@@@@.oooo.             .@@.oo               ##O##O#O.OOO           @@@@@@@.XXooooX         oooooo.ooooo    ",
"X...@@.....XX     .XXXX...o.@@@....XX.   .XXo..@@@.o.ooXXXXXXXXXoXXXX.OOO@@O        @@@+@@+.XXXooXX   .XXXXXX.@@@+@@@       .XXXX..@@@.ooo..XXXX     .XX...@.o..XXXo           ########O@@            +@@@@@+.XoXXXXXX     #XXXXooo+@#ooo    ",
"XXX..@...XXXO     ..XXXXX..o@@..XXXX.O   ..XXoo..@.ooXXXXXXXXXXXXXXX.@@@@O@          @@@@@@@.XXXXXXXXXXXXXXX.+++++++        ..XXXXX..@.o..XXXXXO     ..XXX.....XXX.O            #######O@@             @@@@++@+.XXXXXXXXXXXXXXXXX.+@@+O#.    ",
".XXXX..XXXXOO     ...XXXXXX...XXXXX.OO   ...XXXoo..XXXXXXXXXXXXXX##@@+@@+@            @+++@+++.XXXXXXXXXXX.@+@@++++         ...XXXXXX..XXXXXXXOO     ...XXX...XXX.OO             #####.@@@              ++++@++@..XXXXXXXXXXXXXX.@++++@+O    ",
".+++++++++OOO     ...++++++++++++++OOO   ...@@@@@+@@@+++++@@@+++@@+@@@@+@              @++++++@@..XXXXX..+++++++@+          ...++++++++++++++OOO     ...+++++++++OOO              ####.@@@                @+++@++@+..XXXXXXX..@++++++++@     ",
"+++++++++++OO     ..++++++++++++++++OO   ..+@@++@++@@+++++++@++++++@+@++                 +++++++++++++++++++++++            ..++++++++++++++++OO     ..+++++++++++OO               ##..O@@                  ++++++++++++++++++++++++++       ",
"++++++++++++O     .++++++++++++++++++O   .@++++++++++++++++++++++++++                       +++++++++++++++++               .++++++++++++++++++O     .+++++++++++++O                #.++O@                     +++++++++++++++++++           ",
"                                                                                                +++++++++                                                                            ++++O                         +++++++++++               "};
