/* XPM */
static char * unlimitammo_xpm[] = {
"40 20 10 1",
" 	s None	c None",
".	c #898989898989",
"X	c gray30",
"o	c #6F6F6F6F6F6F",
"O	c black",
"+	c #AAAAC6C6DDDD",
"@	c yellow",
"#	c steelblue",
"$	c gray65",
"%	c #E1E1E1E1E1E1",
"  ....................................  ",
" .....................................X ",
"...ooooooooooooooooOooooooooooooooooo.XX",
"..ooooooooooooooooO+OoooooooooooooooooXX",
"..ooooooooooo@oooO+.#Ooooo@oooooooooooXX",
"..ooooooooo@o@ooO+$#oXOooo@o@oooooooooXX",
"..ooooooo@o@o@ooOOOOOOOooo@o@o@oooooooXX",
"..ooooo@o@o@o@ooO%$.oXOooo@o@o@o@oooooXX",
"..ooo@o@o@o@o@ooO%$.oXOooo@o@o@o@o@oooXX",
"..o@o@o@o@o@o@ooO%$.oXOooo@o@o@o@o@o@oXX",
"..o@o@o@o@o@o@ooO%$.oXOooo@o@o@o@o@o@oXX",
"..ooo@o@o@o@o@ooO%$.oXOooo@o@o@o@o@oooXX",
"..ooooo@o@o@o@ooO%$.oXOooo@o@o@o@oooooXX",
"..ooooooo@o@o@ooO%$.oXOooo@o@o@oooooooXX",
"..ooooooooo@o@ooO%$.oXOooo@o@oooooooooXX",
"..ooooooooooo@ooOOOOOOOooo@oooooooooooXX",
"..oooooooooooooooOOOOOooooooooooooooooXX",
"..XooooooooooooooooooooooooooooooooooXXX",
" XXXXXXXXXXXXXXXXXXXXXXXXXXXXXXXXXXXXXX ",
"  XXXXXXXXXXXXXXXXXXXXXXXXXXXXXXXXXXXX  "};
