/* XPM */
static char * walloff_xpm[] = {
"27 23 3 1",
" 	s None	c None",
".	c red",
"X	c blue",
"       .....               ",
"       .....               ",
"       .....               ",
"       .....      X        ",
"       .....      XX       ",
"       .....      XXX      ",
"XXXXXXXX.XXX XXX XXXXX     ",
"XXXXXXXX.XXX XXX XXXXXX    ",
"XXXXXXXX.XXX XXX XXXXXXX   ",
"XXXXXXXX.XXX XXX XXXXXXXX  ",
"XXXXXXXX.XXX XXX XXXXXXXXX ",
"XXXXXXXX.XXX XXX XXXXXXXXXX",
"XXXXXXXX.XXX XXX XXXXXXXXX ",
"XXXXXXXX.XXX XXX XXXXXXXX  ",
"XXXXXXXX.XXX XXX XXXXXXX   ",
"XXXXXXXX.XXX XXX XXXXXX    ",
"XXXXXXXX.XXX XXX XXXXX     ",
"       .....      XXX      ",
"       .....      XX       ",
"       .....      X        ",
"       .....               ",
"       .....               ",
"       .....               "};
