/* XPM */
static char * x2bonus3_xpm[] = {
"27 27 3 1",
" 	s None	c None",
".	c gold",
"X	c black",
"         .........         ",
"       .............       ",
"     ......XXXXX......     ",
"    ....XXXXXXXXXXX....    ",
"   ....XXXXXXXXXXXXX....   ",
"  ...XXXXXXXXXXXXXXXXX...  ",
"  ...XXXXXXXXXXXXXXXXX...  ",
" ...XXXXXXXXXXXXXXXXXXX... ",
" ..XXXXXXXXXXXXXXXXXXXXX.. ",
"...XXX.......X..XXX..XXX...",
"...XXXXXXXX..X..XXX..XXX...",
"..XXXXXXXX...XX..X..XXXXX..",
"..XXXXXXX...XXXX...XXXXXX..",
"..XXXXXX...XXXXX...XXXXXX..",
"..XXXXX..XXXXXX..X..XXXXX..",
"..XXXX...XXXXX..XXX..XXXX..",
"...XXX..XXX..X..XXX..XXX...",
"...XXX..XX...XXXXXXXXXXX...",
" ..XXXX.....XXXXXXXXXXXX.. ",
" ...XXXXXXXXXXXXXXXXXXX... ",
"  ...XXXXXXXXXXXXXXXXX...  ",
"  ...XXXXXXXXXXXXXXXXX...  ",
"   ....XXXXXXXXXXXXX....   ",
"    ....XXXXXXXXXXX....    ",
"     ......XXXXX......     ",
"       .............       ",
"         .........         "};
