/* XPM */
static char * x2bonus2_xpm[] = {
"27 27 3 1",
" 	s None	c None",
".	c gold",
"X	c black",
"         .........         ",
"       .............       ",
"     ......XXXXX......     ",
"    ....XXXXXXXXXXX....    ",
"   ....XXXXXXXXXXXXX....   ",
"  ...XXXXXXXXXXXXXXXXX...  ",
"  ...XXXX..XXXX..XXXXX...  ",
" ...XXXXX...XX...XXXXXX... ",
" ..XXXXXXXX....XXXXXXXXX.. ",
"...XXXXXXXXX..XXXXXXXXXX...",
"...XXXXXXXX....XXXXXXXXX...",
"..XXXXXXX...XX...XXXXXXXX..",
"..XXXXXXX..XXXX..XXXXXXXX..",
"..XXXXXXXXXXXXXXXXXXXXXXX..",
"..XXXXXXX...XXXX..XXXXXXX..",
"..XXXXXXX....XXX...XXXXXX..",
"...XXXXXX.X...XXX..XXXXX...",
"...XXXXXX.XX..XXXX.XXXXX...",
" ..XXXXXX.XXX...XX.XXXXX.. ",
" ...XXXXX.XXXX.....XXXX... ",
"  ...XXXX.XXXXX...XXXX...  ",
"  ...XXXXXXXXXXXXXXXXX...  ",
"   ....XXXXXXXXXXXXX....   ",
"    ....XXXXXXXXXXX....    ",
"     ......XXXXX......     ",
"       .............       ",
"         .........         "};
