/* XPM */
static char * x2bonus1_xpm[] = {
"27 27 3 1",
" 	s None	c None",
".	c gold",
"X	c black",
"         .........         ",
"       .............       ",
"     ......XXXXX......     ",
"    ....XXXXXXXXXXX....    ",
"   ....XXXXXXXXXXXXX....   ",
"  ...XXXXXXXXXXXXXXXXX...  ",
"  ...XXXXXXXXXXXXXXXXX...  ",
" ...XXXXXXXXXXXXXXXXXXX... ",
" ..XXXXXXXXXXXX.....XXXX.. ",
"...XXXXXXXXXXX...XX..XXX...",
"...XXX..XXX..X..XXX..XXX...",
"..XXXX..XXX..XXXXX...XXXX..",
"..XXXXX..X..XXXXXX..XXXXX..",
"..XXXXXX...XXXXX...XXXXXX..",
"..XXXXXX...XXXX...XXXXXXX..",
"..XXXXX..X..XX...XXXXXXXX..",
"...XXX..XXX..X..XXXXXXXX...",
"...XXX..XXX..X.......XXX...",
" ..XXXXXXXXXXXXXXXXXXXXX.. ",
" ...XXXXXXXXXXXXXXXXXXX... ",
"  ...XXXXXXXXXXXXXXXXX...  ",
"  ...XXXXXXXXXXXXXXXXX...  ",
"   ....XXXXXXXXXXXXX....   ",
"    ....XXXXXXXXXXX....    ",
"     ......XXXXX......     ",
"       .............       ",
"         .........         "};
