/* XPM */
static char * x4bonus4_xpm[] = {
"27 27 3 1",
" 	s None	c None",
".	c gold",
"X	c black",
"         .........         ",
"       .............       ",
"     ......XXXXX......     ",
"    ....XXXXXXXXXXX....    ",
"   ....XXXXXXXXXXXXX....   ",
"  ...XXXXXXXXX.XXXXXXX...  ",
"  ...XXX..........XXXX...  ",
" ...XXXX..........XXXXX... ",
" ..XXXXX..XXXX.XXXXXXXXX.. ",
"...XXXXXX..XXX.XXXXXXXXX...",
"...XXXXXXX..XX.XXXXXXXXX...",
"..XXXXXXXXX....XXXXXXXXXX..",
"..XXXXXXXXXX...XXXXXXXXXX..",
"..XXXXXXXXXXXXXXXXXXXXXXX..",
"..XXXXXXXX..XXXX..XXXXXXX..",
"..XXXXXXXX...XX...XXXXXXX..",
"...XXXXXXXXX....XXXXXXXX...",
"...XXXXXXXXXX..XXXXXXXXX...",
" ..XXXXXXXXX....XXXXXXXX.. ",
" ...XXXXXX...XX...XXXXX... ",
"  ...XXXXX..XXXX..XXXX...  ",
"  ...XXXXXXXXXXXXXXXXX...  ",
"   ....XXXXXXXXXXXXX....   ",
"    ....XXXXXXXXXXX....    ",
"     ......XXXXX......     ",
"       .............       ",
"         .........         "};
