/* XPM */
static char * x4bonus1_xpm[] = {
"27 27 3 1",
" 	s None	c None",
".	c gold",
"X	c black",
"         .........         ",
"       .............       ",
"     ......XXXXX......     ",
"    ....XXXXXXXXXXX....    ",
"   ....XXXXXXXXXXXXX....   ",
"  ...XXXXXXXXXXXXXXXXX...  ",
"  ...XXXXXXXXXXXXXXXXX...  ",
" ...XXXXXXXXXXXXXXXXXXX... ",
" ..XXXXXXXXXXXXXXX...XXX.. ",
"...XXXXXXXXXXXXXX....XXX...",
"...XXX..XXX..XXX..X..XXX...",
"..XXXX..XXX..XX..XX..XXXX..",
"..XXXXX..X..XX..XXX..XXXX..",
"..XXXXXX...XXX..XXX..XXXX..",
"..XXXXXX...XXX........XXX..",
"..XXXXX..X..XXXXXXX..XXXX..",
"...XXX..XXX..XXXXXX..XXX...",
"...XXX..XXX..XXXXXX..XXX...",
" ..XXXXXXXXXXXXXXXXXXXXX.. ",
" ...XXXXXXXXXXXXXXXXXXX... ",
"  ...XXXXXXXXXXXXXXXXX...  ",
"  ...XXXXXXXXXXXXXXXXX...  ",
"   ....XXXXXXXXXXXXX....   ",
"    ....XXXXXXXXXXX....    ",
"     ......XXXXX......     ",
"       .............       ",
"         .........         "};
