/* XPM */
static char * x4bonus3_xpm[] = {
"27 27 3 1",
" 	s None	c None",
".	c gold",
"X	c black",
"         .........         ",
"       .............       ",
"     ......XXXXX......     ",
"    ....XXXXXXXXXXX....    ",
"   ....XXXXXXXXXXXXX....   ",
"  ...XXXXXXXXXXXXXXXXX...  ",
"  ...XXXXXXXXXXXXXXXXX...  ",
" ...XXXXXXXXXXXXXXXXXXX... ",
" ..XXXXXXXXXXXXXXXXXXXXX.. ",
"...XXX..XXXXXX..XXX..XXX...",
"...XXX..XXXXXX..XXX..XXX...",
"..XXXX..XXXXXXX..X..XXXXX..",
"..XXX........XXX...XXXXXX..",
"..XXXX..XXX..XXX...XXXXXX..",
"..XXXX..XXX..XX..X..XXXXX..",
"..XXXX..XX..XX..XXX..XXXX..",
"...XXX..X..XXX..XXX..XXX...",
"...XXX....XXXXXXXXXXXXXX...",
" ..XXX...XXXXXXXXXXXXXXX.. ",
" ...XXXXXXXXXXXXXXXXXXX... ",
"  ...XXXXXXXXXXXXXXXXX...  ",
"  ...XXXXXXXXXXXXXXXXX...  ",
"   ....XXXXXXXXXXXXX....   ",
"    ....XXXXXXXXXXX....    ",
"     ......XXXXX......     ",
"       .............       ",
"         .........         "};
