/* XPM */
static char * xtraball2_xpm[] = {
/* width height ncolors chars_per_pixel */
"30 19 12 1",
/* colors */
" 	s None	c None",
".	c #1A0084",
"X	c #840000",
"o	c #3000A9",
"O	c #A91700",
"+	c #2C00DC",
"@	c #3D00F2",
"#	c #CC2C00",
"$	c orange",
"%	c #4400FE",
"&	c #E83E00",
"*	c #F85F00",
/* pixels */
"           ...XXX..           ",
"         ..ooooooO...         ",
"       ..oo++++++Ooo...       ",
"       ..oo++++++Ooo...       ",
"      .oo++@@@#$$++oo...      ",
"      .oo+@%%&@$$++oo...      ",
" $$$$Xo$$@%$$%$$$$+$$o$$.$$$$ ",
"$$  $$O$$@%$$*@$$@+$$$$$$$  $$",
"$$  $$o#$$$$%@&$$@+$$$O..   $$",
"$$$$$$o##$$%%@&$$@+$$OO..$$$$$",
"$$   .o+$$$$@@@$$#+$$ooX$$  $$",
"$$  $$o$$#+$$@+$$#$$$oo.$$  $$",
" $$$$..$$++$$+##$$+$$....$$$ $",
"      Xoooo++++++Oooo...      ",
"      ...ooooooooOoo....      ",
"       ....oooooooXX...       ",
"       ....oooooooXX...       ",
"         ...........X         ",
"           ........           "};
