#define up_width 30
#define up_height 5
static char up_bits[] = {
   0x3f, 0x00, 0x00, 0x3f, 0xf8, 0x01, 0xe0, 0x07, 0xc0, 0x0f, 0xfc, 0x00,
   0x00, 0xfe, 0x1f, 0x00, 0x00, 0xf0, 0x03, 0x00};
