#define itemMinePack_width 16
#define itemMinePack_height 16
static char itemMinePack_bits[] = {
   0x00, 0x00, 0x00, 0x00, 0x00, 0x00, 0x00, 0x00, 0x00, 0x00, 0xe0, 0x07,
   0xfe, 0x7f, 0xff, 0xff, 0xff, 0xff, 0xfe, 0x7f, 0xe0, 0x07, 0x00, 0x00,
   0x00, 0x00, 0x00, 0x00, 0x00, 0x00, 0x00, 0x00};
