#define itemEnergyPack_width 16
#define itemEnergyPack_height 16
static char itemEnergyPack_bits[] = {
   0x00, 0x3f, 0x80, 0x21, 0xc0, 0x60, 0xf0, 0x7f, 0xfc, 0x7f, 0xfe, 0x7f,
   0x1e, 0x70, 0x1e, 0x70, 0x1e, 0x7f, 0x1e, 0x7f, 0x1e, 0x7c, 0x1e, 0x7f,
   0x1e, 0x7f, 0x1e, 0x7f, 0xfe, 0x7f, 0xfc, 0x3f};
