#define itemTank_width 16
#define itemTank_height 16
static char itemTank_bits[] = {
   0x20, 0x08, 0x20, 0x08, 0x70, 0x1c, 0x50, 0x14, 0x50, 0x14, 0xd8, 0x36,
   0x88, 0x22, 0x08, 0x22, 0x0c, 0x63, 0x04, 0x41, 0x04, 0x41, 0x86, 0xc1,
   0x82, 0xff, 0x02, 0x00, 0x03, 0x06, 0xff, 0x07};
