#define itemRearShot_width 16
#define itemRearShot_height 16
static char itemRearShot_bits[] = {
   0x18, 0x18, 0x18, 0x18, 0x0c, 0x30, 0x0c, 0x30, 0xfc, 0x3f, 0x80, 0x01,
   0x00, 0x00, 0x00, 0x00, 0x00, 0x00, 0x80, 0x01, 0x80, 0x01, 0x00, 0x00,
   0x00, 0x00, 0x00, 0x00, 0x80, 0x01, 0x80, 0x01};
