#define itemLaser_width 16
#define itemLaser_height 16
static char itemLaser_bits[] = {
   0x80, 0x01, 0x80, 0x01, 0x80, 0x01, 0x80, 0x01, 0x80, 0x01, 0x80, 0x01,
   0x80, 0x01, 0x80, 0x01, 0x80, 0x01, 0x80, 0x01, 0x00, 0x00, 0x80, 0x01,
   0xc0, 0x03, 0x40, 0x02, 0x60, 0x06, 0x20, 0x04};
