#define itemRocketPack_width 16
#define itemRocketPack_height 16
static char itemRocketPack_bits[] = {
   0x80, 0x01, 0x80, 0x01, 0xc0, 0x03, 0xc0, 0x03, 0xe0, 0x07, 0xc0, 0x03,
   0xc0, 0x03, 0xc0, 0x03, 0xc0, 0x03, 0xc0, 0x03, 0xc0, 0x03, 0xe0, 0x07,
   0xf0, 0x0f, 0xfc, 0x3f, 0xc0, 0x03, 0x80, 0x01};
