#define itemCloakingDevice_width 16
#define itemCloakingDevice_height 16
static char itemCloakingDevice_bits[] = {
   0x00, 0x01, 0x00, 0x01, 0x00, 0x03, 0x00, 0x02, 0x00, 0x02, 0x40, 0x00,
   0x40, 0x00, 0x60, 0x0c, 0x00, 0x08, 0x00, 0x08, 0x10, 0x00, 0x10, 0x00,
   0x18, 0x30, 0x00, 0x20, 0x00, 0x60, 0x3c, 0x4f};
