#define itemTransporter_width 16
#define itemTransporter_height 16
static char itemTransporter_bits[] = {
   0x00, 0xf0, 0x10, 0xe0, 0x10, 0xc0, 0x10, 0x90, 0x38, 0x18, 0x28, 0x08,
   0x28, 0x02, 0x6c, 0x03, 0x44, 0x01, 0x44, 0x00, 0xe6, 0x00, 0xb2, 0x00,
   0x92, 0x00, 0x83, 0x01, 0x01, 0x01, 0xff, 0x01};
