#define itemAfterburner_width 16
#define itemAfterburner_height 16
static char itemAfterburner_bits[] = {
   0x18, 0x18, 0x18, 0x18, 0x0c, 0x30, 0x0c, 0x30, 0xfc, 0x3f, 0x40, 0x01,
   0x80, 0x02, 0xa0, 0x00, 0x20, 0x06, 0x50, 0x05, 0x50, 0x08, 0x88, 0x15,
   0x28, 0x10, 0x00, 0x22, 0xa4, 0x14, 0x8a, 0x42};
