#define itemEcm_width 16
#define itemEcm_height 16
static char itemEcm_bits[] = {
   0xe0, 0x07, 0x10, 0x08, 0xc0, 0x03, 0x20, 0x04, 0x02, 0x40, 0x09, 0x90,
   0x05, 0xa0, 0x85, 0xa1, 0x85, 0xa1, 0x05, 0xa0, 0x09, 0x90, 0x02, 0x40,
   0x20, 0x04, 0xc0, 0x03, 0x10, 0x08, 0xe0, 0x07};
