#define itemSensorPack_width 16
#define itemSensorPack_height 16
static char itemSensorPack_bits[] = {
   0x78, 0x00, 0xfe, 0x01, 0x86, 0x01, 0x03, 0x03, 0x03, 0x03, 0x03, 0x03,
   0x03, 0x03, 0x86, 0x01, 0xfe, 0x03, 0x78, 0x07, 0x00, 0x0e, 0x00, 0x1c,
   0x00, 0x38, 0x00, 0x70, 0x00, 0xe0, 0x00, 0x40};
