#define audio_width 16
#define audio_height 16
static char audio_bits[] = {
   0x00, 0x00, 0x80, 0x19, 0xc0, 0x31, 0x67, 0x65, 0x35, 0x4d, 0x1d, 0xc9,
   0x05, 0x99, 0x05, 0x91, 0x05, 0x91, 0x05, 0x99, 0x1d, 0xc9, 0x35, 0x4d,
   0x67, 0x65, 0xc0, 0x31, 0x80, 0x19, 0x00, 0x00};
