#define circle0f_width 21
#define circle0f_height 21
static char circle0f_bits[] = {
   0x00, 0x00, 0x00, 0x80, 0x00, 0x00, 0xe0, 0x00, 0x00, 0xf0, 0x00, 0x00,
   0x38, 0x00, 0x00, 0x1c, 0x00, 0x00, 0x0c, 0x00, 0x00, 0x0e, 0x00, 0x00,
   0x06, 0x00, 0x00, 0x06, 0x04, 0x00, 0x06, 0x0a, 0x00, 0x06, 0x04, 0x00,
   0x06, 0x00, 0x00, 0x0e, 0x00, 0x00, 0x0c, 0x00, 0x00, 0x1c, 0x00, 0x00,
   0x38, 0x00, 0x00, 0xf0, 0x00, 0x00, 0xe0, 0x00, 0x00, 0x80, 0x00, 0x00,
   0x00, 0x00, 0x00};
