#define circle0h_width 21
#define circle0h_height 21
static char circle0h_bits[] = {
   0x00, 0x00, 0x00, 0x80, 0x3f, 0x00, 0xe0, 0xff, 0x00, 0xf0, 0xe0, 0x01,
   0x38, 0x80, 0x03, 0x1c, 0x00, 0x07, 0x0c, 0x00, 0x06, 0x0e, 0x00, 0x0e,
   0x00, 0x00, 0x00, 0x00, 0x04, 0x00, 0x00, 0x0a, 0x00, 0x00, 0x04, 0x00,
   0x00, 0x00, 0x00, 0x00, 0x00, 0x00, 0x00, 0x00, 0x00, 0x00, 0x00, 0x00,
   0x00, 0x00, 0x00, 0x00, 0x00, 0x00, 0x00, 0x00, 0x00, 0x00, 0x00, 0x00,
   0x00, 0x00, 0x00};
