#define circle0b_width 21
#define circle0b_height 21
static char circle0b_bits[] = {
   0x00, 0x00, 0x00, 0x00, 0x20, 0x00, 0x00, 0xe0, 0x00, 0x00, 0xe0, 0x01,
   0x00, 0x80, 0x03, 0x00, 0x00, 0x07, 0x00, 0x00, 0x06, 0x00, 0x00, 0x0e,
   0x00, 0x00, 0x0c, 0x00, 0x04, 0x0c, 0x00, 0x0a, 0x0c, 0x00, 0x04, 0x0c,
   0x00, 0x00, 0x0c, 0x00, 0x00, 0x0e, 0x00, 0x00, 0x06, 0x00, 0x00, 0x07,
   0x00, 0x80, 0x03, 0x00, 0xe0, 0x01, 0x00, 0xe0, 0x00, 0x00, 0x20, 0x00,
   0x00, 0x00, 0x00};
