#define circle0c_width 21
#define circle0c_height 21
static char circle0c_bits[] = {
   0x00, 0x00, 0x00, 0x00, 0x00, 0x00, 0x00, 0x00, 0x00, 0x00, 0x00, 0x00,
   0x00, 0x00, 0x00, 0x00, 0x00, 0x00, 0x00, 0x00, 0x00, 0x00, 0x00, 0x0c,
   0x00, 0x00, 0x0c, 0x00, 0x04, 0x0c, 0x00, 0x0e, 0x0c, 0x00, 0x04, 0x0c,
   0x00, 0x00, 0x0c, 0x00, 0x00, 0x0e, 0x00, 0x00, 0x06, 0x00, 0x00, 0x07,
   0x00, 0x80, 0x03, 0x00, 0xe0, 0x01, 0x80, 0xff, 0x00, 0x80, 0x3f, 0x00,
   0x00, 0x00, 0x00};
