#define circle0e_width 21
#define circle0e_height 21
static char circle0e_bits[] = {
   0x00, 0x00, 0x00, 0x00, 0x00, 0x00, 0x00, 0x00, 0x00, 0x00, 0x00, 0x00,
   0x00, 0x00, 0x00, 0x00, 0x00, 0x00, 0x00, 0x00, 0x00, 0x06, 0x00, 0x00,
   0x06, 0x00, 0x00, 0x06, 0x04, 0x00, 0x06, 0x0e, 0x00, 0x06, 0x04, 0x00,
   0x06, 0x00, 0x00, 0x0e, 0x00, 0x00, 0x0c, 0x00, 0x00, 0x1c, 0x00, 0x00,
   0x38, 0x00, 0x00, 0xf0, 0x00, 0x00, 0xe0, 0x3f, 0x00, 0x80, 0x3f, 0x00,
   0x00, 0x00, 0x00};
