#define circle00_width 21
#define circle00_height 21
static char circle00_bits[] = {
   0x00, 0x00, 0x00, 0x80, 0x3f, 0x00, 0xe0, 0xff, 0x00, 0xf0, 0xe0, 0x01,
   0x38, 0x84, 0x03, 0x1c, 0x1b, 0x07, 0x4c, 0x44, 0x06, 0x0e, 0x04, 0x0e,
   0x26, 0x95, 0x0c, 0x26, 0x8a, 0x0c, 0xd6, 0x71, 0x0d, 0x26, 0x8a, 0x0c,
   0x26, 0x95, 0x0c, 0x0e, 0x04, 0x0e, 0x4c, 0x44, 0x06, 0x1c, 0x1b, 0x07,
   0x38, 0x84, 0x03, 0xf0, 0xe0, 0x01, 0xe0, 0xff, 0x00, 0x80, 0x3f, 0x00,
   0x00, 0x00, 0x00};
