#define next_width 16
#define next_height 16
static char next_bits[] = {
   0x00, 0x60, 0xc6, 0x60, 0x8c, 0x61, 0x18, 0x63, 0x30, 0x66, 0x60, 0x6c,
   0xc0, 0x78, 0x80, 0x71, 0xc0, 0x78, 0x60, 0x6c, 0x30, 0x66, 0x18, 0x63,
   0x8c, 0x61, 0xc6, 0x60, 0x00, 0x60, 0x00, 0x00};
