#define prev_width 16
#define prev_height 16
static char prev_bits[] = {
   0x06, 0x00, 0x06, 0x63, 0x86, 0x31, 0xc6, 0x18, 0x66, 0x0c, 0x36, 0x06,
   0x1e, 0x03, 0x8e, 0x01, 0x1e, 0x03, 0x36, 0x06, 0x66, 0x0c, 0xc6, 0x18,
   0x86, 0x31, 0x06, 0x63, 0x06, 0x00, 0x00, 0x00};
