#define dead_width 16
#define dead_height 16
static char dead_bits[] = {
   0xc0, 0x07, 0x30, 0x18, 0x08, 0x20, 0x04, 0x40, 0x54, 0x54, 0x22, 0x88,
   0x52, 0x94, 0x02, 0x80, 0x02, 0x80, 0xc2, 0x87, 0x24, 0x48, 0x04, 0x40,
   0x08, 0x20, 0x30, 0x18, 0xc0, 0x07, 0x00, 0x00};
