#define happy_width 16
#define happy_height 16
static char happy_bits[] = {
   0xc0, 0x07, 0x30, 0x18, 0x08, 0x20, 0x04, 0x40, 0x64, 0x4c, 0x62, 0x8c,
   0x02, 0x80, 0x02, 0x80, 0x02, 0x80, 0x12, 0x90, 0x24, 0x48, 0xc4, 0x47,
   0x08, 0x20, 0x30, 0x18, 0xc0, 0x07, 0x00, 0x00};
