#define mine_width 10
#define mine_height 10
static char mine_bits[] = {
   0x00, 0x00, 0x10, 0x00, 0xba, 0x00, 0x44, 0x00, 0x92, 0x00, 0x82, 0x01,
   0xaa, 0x00, 0x44, 0x00, 0xba, 0x00, 0x00, 0x00};
