#define ohno_width 16
#define ohno_height 16
static char ohno_bits[] = {
   0xc0, 0x07, 0x30, 0x18, 0x08, 0x20, 0x64, 0x4c, 0x64, 0x4c, 0x62, 0x8c,
   0x02, 0x80, 0x02, 0x80, 0x82, 0x83, 0x42, 0x84, 0x44, 0x44, 0x84, 0x43,
   0x08, 0x20, 0x30, 0x18, 0xc0, 0x07, 0x00, 0x00};
