#define press_width 16
#define press_height 16
static char press_bits[] = {
   0xc0, 0x07, 0x30, 0x18, 0x08, 0x20, 0x04, 0x40, 0x04, 0x46, 0xc2, 0x86,
   0xc2, 0x80, 0x02, 0x80, 0x12, 0x80, 0x22, 0x90, 0x24, 0x4c, 0xc4, 0x43,
   0x08, 0x20, 0x30, 0x18, 0xc0, 0x07, 0x00, 0x00};
